<mxfile host="Electron" agent="Mozilla/5.0 (Macintosh; Intel Mac OS X 10_15_7) AppleWebKit/537.36 (KHTML, like Gecko) draw.io/26.0.9 Chrome/128.0.6613.186 Electron/32.2.5 Safari/537.36" version="26.0.9">
  <diagram name="第 1 页" id="oltf4NRlifEh5TmKqrgb">
    <mxGraphModel dx="287" dy="1405" grid="1" gridSize="10" guides="1" tooltips="1" connect="1" arrows="1" fold="1" page="1" pageScale="1" pageWidth="827" pageHeight="1169" math="0" shadow="0">
      <root>
        <mxCell id="0" />
        <mxCell id="1" parent="0" />
        <mxCell id="YJcozvg0irMk7yflcaDP-29" value="" style="shape=image;verticalLabelPosition=bottom;labelBackgroundColor=default;verticalAlign=top;aspect=fixed;imageAspect=0;image=data:image/png,iVBORw0KGgoAAAANSUhEUgAAAtwAAAH7CAMAAADINrhIAAAABGdBTUEAALGPC/xhBQAAACBjSFJNAAB6JgAAgIQAAPoAAACA6AAAdTAAAOpgAAA6mAAAF3CculE8AAAClFBMVEX////+/v79/f38+/zn5+fU1NTLy8vCwsK9vb25ubm4uLi7u7vl5eX39/f5+fnv7+/IyMiXl5dsbGxhYWFSUVI3Nzc5OTk+Pj5BQUFMTExQUFBVVVVpaWlqamqIiIixsbHg4ODy8vLZ2dmnpqd+fn5jY2NxcXFdXV2EhISzs7PMzMzd3d3W1tbX19fT09POzs63t7eHh4dfX19YWFhOTk6Li4vBwcGMjIyFhYWbm5vc3NzGxsbJycnExMTFxcWgoKB9fX1WVlYpKSmJiYn29vb6+vrj4+Oenp6BgYGtra3Pz8/b29vk5OTs7Oz19fWpqalNTU1GRkZ0dHTAwMDi4uLo6OjV1dWAgIBPT09/f3/e3t6ZmZmhoaGPj4+6urrz8/PS0tJeXl5HR0f4+Pjp6em/v7+0tLSrq6usrKy+vr7w8PCSkpKvr6/q6up7e3vNzc2CgoJ5eXlwcHBtbW1bW1udnZ2NjY1cXFzQ0NCcnJxERERoaGiwsLDHx8d4eHhzc3NaWlq2tralpaVvb2/h4eGOjo7a2tqioqKoqKiQkJA/Pz+UlJRLS0tiYmJ2dnYkJCTr6+ujo6Pu7u5ra2t3d3dUVFRTU1OqqqpXV1eGhoaamprx8fFkZGSVlZWkpKRFRUU9PT04ODg7OztCQkJmZmaysrI0NDRAQEBlZWVycnJ6enqTk5MrKysQEBAtLS0YGBgNDQ0MDAwsLCyWlpYjIyNISEgODg4qKio6Ojo2NjYzMzMmJiYwMDAyMjIhISEXFxcaGhpJSUkoKCgxMTEiIiIdHR0lJSUvLy8WFhYfHx8GBgYHBwcbGxsCAgIAAAABAQEDAwMPDw8FBQUREREVFRUTExMICAgeHh4KCgoUFBQcHBwJCQlUT/BpAAAAAWJLR0QAiAUdSAAAgABJREFUeNrsvYl/E8f5Pz4zq8uWtBJHQjgtidM6zSVAFxC0AusyoAMQIAlWMkhYiBsBFmAQ4qZC3IgrASccbb5tKE1Ik7Y0/TRtUgxNr/TXf+b3ml3Jlo3MYYxNWr15GVva3dnZ2fc++8wzzwFAFVVUUUUVVVRRRRVVVFFFFVVUUUUVVVRRRRVVVFFFFVVUUUUVVVRRRRVVVFFFFVVUUUUVVVRRRRVVVFFFFVVUUUUVVVRRRRX/e4D4HwIEh8vjC2pqhXyuSIwABACSiPldRRU/UkAEAJJIhwwdNmz4O++OeG/kyFGjx4wdVyeTEwAgBKvsruJHDEIxfsLEoZMmT6lXKlRqjVqra5g6bfqIGTP1HEaAD3b/qqiirxDXTZk1a/YcgUGm4PKMJrPJZDEpTea58+a/P20B1wqr7K7ixwgKAGCbvXDIoka7yuFQGJwuq9XtdrslHAPXLq1tGrN4yVKPBJQ0b5IgmD8YcU4MduerqOJ5gABp54xfMIfr9Tm8LnE3vpJym99Yt2z5OytMBEAUw2+Eac0SHT8XVX28ircZgZWrVge9NpXTjRi2YnRuJEOOcO3MNWtncxhBTUcUumjz+KZ164MxdSBeFd1VvNXwbWhZafclvKHuXxOI/QUJKqH2bFw+rAGRyfWrZ2+asHnppC1bh47ZtnTTstXNhsHufhVVVAQEkCC2z15g93Fc3eR1+T74+7imeevarfNmz5mzY+rQrQum7NgxZerGoTuHLV06b7UyhIiqPaWKtw4QgNTmTVGf00X0Rm5mN0i5wrt279mwacvsVnPKntJowtpkOrZu9Z69Q/dNbXbTVdW7ircNBKC2729TcVwQPI/cWNumJAcODvE4I06Zw5Gx2byZjFelcHCFhyZsHTdFSZGDfSlVVNENCAHO4ilZr4t4LrkhY/eDVr9SZFN5E3IrRZIERSHaKvfJVNzDEzbNPhIf7GupoooiEICQjke06aPHghrRyx4U4Mip8ocA/x2KBHTH927anmAsg1VUMYhgl16gJjZ30ol3dk8/ucGuoV/+4B6GQvbLkKh+9sxd7iq7qxhkQASQZN2p6T/ZPXbR7B2bGnPSV7Pm9SQ343QV8ozbtF1cnVRWMbiAROL0iZH7F5qV4bDOruVqtK+iLqOeVhVWHwdi/pRF66qSu4pBA8QOUFTztvlD1BKVWicNq1SBQN6KXkni9rIzbN68mUtVZXcVgwcYmbBmvU+uSPMcopCYIFC/eWtTCzbucA/25VXxPwzCeWa2SK7hq100wivsBHo1sf0cQOPSYdrqSmUVgwXkPLuKivAUcUBhm0n/htjkz55bSFbJXcUggCAI4DuzHXrtnDdzAnh85OYQfmCqS/FVDDgQcXSq2KYNvSnyjT8/LwGr5K5iEICQY42M4xcj4g2Z7C5c3KSqkruKQQGcNc9qcr857u26eEkNYJXcVQwC0BkhN/DmmqemnrusGOxrrOJ/FIUrdguN3lTryHn22DpNVWpXMSgoXGnQvcGgx+C0Pc3eKrmrGBSgM1P9L+beS7Ozx47xFRM3tMar3K5icHB1sf/ZLymYPXvxmhwQSHrl+jIJgNTq4fuCVmwZb1tz4wqfhCh/bfiIg0mQHPXBhx/cXHOaput3LlmQgKBMxUGg4dbmXQIrfGNqTxVV9AoIgGjtugpqSWD/9clr2wGMjhy9bXkGwNCtxdt2b5IAevtH225N/7gGiKfeGLZn+GKt89DtD47dGnY4f3n4xLHzujnKQiK1d9KcA1yqqpZUMQhAAMCm4YZn2C0fN5YDZCIgu7IgbuW6EQjtbQkJz60nzBcb5aAwdZm1fr8FwfidowCAywspEvh27vCGYHlCHkjYjt/dvq6uAIgquasYDEBA3tv2TGRC+Pb68afXt4vmDC0A5hmQn20D6NBG+ezVFASo/mzgzjX8/cpNbgAWXkUEEdr70599skNe1gYhPrzjdPsqP1VNsFbFoKEw9dw1OYDlcWWHL23/fz//xaf8LVFWupOFM3Uu/Zm2/CQ9zg94ZK/6DrZek6tnIQBa71EEAPHg3BUjxpe3G7l3/8hhoRV7sAz2JVbxPwoIU6vPr9mlixNdto57Q+Re1YIt/pMOABIZSID4/vd/eb0Z5YZ6cD6HO3NVQ1MAQN+eBgBAwzgSIEMBIHh/alm7BKWZ9eDG6UI1G2wVgwYIJOaVp4Z/uGfpkETpu12nItbai23xK5fj4TX3CQRcW65OvXg1gi4N01oDs3cGQndOqUKBffsi2Ja9yQrIZVMiefOV02U8xo+EdNP1M6aqsaSKwQKBkNwpvHrpwa9GdOre4eWfffLhcStV9/mn79/mQgDyp8zAPnRZSHTm4fufnLAQSHvui19/eS6FydwwWw5AzfVP3v9ob6RbORES5cIHzixZD6tqSRWDAybsBqonfz5siKIAi4ka1JcP6UlEQOmhIxQWvAQ/AIAvFgGuminbHYAAKNIy83SC2depw0Tm3j8UI0GZDsI4S1E+08bdjeLBvsYq/pdhm7bFZBBecFCAhBCikiKBEEBsZldG+jKpuIvLNIw0Zr39iiHAPTOXMNsg7Tx+/cJgX14V/6uAiPDu2SQv2KVeaynHTpG8rD7BmK4Jqsh4WDJlI8ZNGzKJ5wn4TM55WHpKXIce8EFVNaliMIAo+vYsq00pYyvwFSVuKbUO85thLd4KISBYoyEiigQuRjkgEnSfOOJtjNQnImuGqasmkyoGAQiAA2PynJSLYGMdEc6txpa4KRKyPBEgAK8QeFCU8CD2cEc14WsVAwyWqJI1MWcqVMZYeYJ6TqadV4+qyU+eLqvaA6sYWLB6cXpGlhfv/AIBwjRvoZOCzznmFU9DzvpKUE2rVsWr4XUVWWZGSAZHpZViSkySFEnTNC1W35k+efjp5x3zaich0MJfH7AO9lhV8SMDJDtXTdhfBJuLuOjO0ZlbGJGheE4UyCq4OpPJyPfUNLS3jD89d9f9DbOmblq089fnrpw5c3LYrSsXL168OH/Up+d1be8P6UvaKURjUzeiuk7OWlo2jJibIFiDer9ls6rivx2wZJgrmtoIzGuESNpdiATs5pqWVfdnrbi7YtKWg1tvT5y2c/H1z7/67Def/ea3v/n04ee7l0/fNvnklaEHx/zuwdCNE6Zsmnpp9uzZsxecGrGCd/2ksi8FsKlVt6em5KBrIorJjWD+1LkhTkxsVNW8q3hJdJozAKRDEZvDb+cFW1cd33TqyomPPnk44tGoi6OHL38w4sP3Hpw/OfTuptUrt19rrfUIdDxlUqdL6lKpVEqr1YaNw3dGw1o/N6tRq9Vqhfbw2t9/LSD6UisVTf7D+d01JVtLkdwQBJbsHRIgOmU2rKZ6qOLFQGQ+o4ytW3ho3KJ5d26fe/DR7//v648XDzt4d/Pmjctmrjy9ri6o56U0KoUim9X4uVpt2J7k8Uwmi8VoTKfTaWXSnkratVO+XqjhcsMatQbDrz5ycTWJQB8IqL++QPTB/CmLli1atGnTlCn4RTB71sxD074YdWXBwtPrWoP6pF8Up0gKv15e3Hz1AfhvBgSQghSTnhL/jRhhSgKxz6nhGlvmTBmz+Pzo8xdHL/545I3Ft5YuGLKuWRjVWyw8bTjM9Ye1mnDKrkvypMZkUmdXaxQKr9frdblyuVAoFMK13EmapAlA5m+dcQESQIIiWMZJQn1bUDx+49SsP67etG/FihUrZs6cOXPB1HErNm0a+dXu648mntx58fyo4fOnT5687eL0ncOunJl3v4mv9GscogINSqXjmUz2TJFtAvTl6ariRwTIVKvBCjUBIIVokVJ45PiCKfu2jXj303eHrxm7dcLdqfeb6vUpjUOhDtt19iTPZNfa1X6/xuAweDmRXD4eIhFFsXmJO9WB7rwhTI8WuAEiu7b2UTfObbr0yWc1EYO6iLBW4fcfvnJqyMw6hSJrMMi8Il8k4pDWrt++YcqKvfvGnDx//eMH27Yu2nC5qSYVCRWvt7hAWpXc/81gTQ0AUPmcTSFYOO7W4v2T5w9f8s2Sics2XGgOCvhJpVbh8KfsKSkvabIrAjKOK5eLu0O0WEx2ErWkO3dO89Czufva1k6N9EOHCcu2nfUuQub3+/2M/q7hCoc9GDNk9tE0T8lTKk1pi5mv55v1aR1XqwnYvKqwsa2hvWnIvJNrdy+ePm3anavNXG++AEE/Jgmv4u0ErkHNr1t4dcXJEb//4tyaK8PGrrhapw9j6vjt3GRY6/crFJpAJBESM957RRajInd7sbv1IDbOgUleG7FV0LVETvRRckNQCJWcrfBDRPh3TZwxs+FaSwAhGiEkphDpJumCK+LMBBRhpcVksiSVyVRKaw+nUp4L4/ZNPPnog5tXZl2rTUmqlpX/HpRJU6YgZD4frl+wd+LEnbvff+/2qVm7mto9Jr9akdWmdEplKqsS+RIut5jqF287AtDrlx+7qyVJ1sEb9wQBcSSAKqgGCBEtC0nQ6TT4zIWAAokNgJSrdumjd85sr1+4TlQ2Pe351gjlOV5ZVqszWizGZEqtSDfMPXp2+YiRa65MWZfNu4uKeHV2+WMGc8tJZsUl5Ei3X1sw7eHDkZO3rDmz4EJUzdWmsOkuzPVrshGX3CqmKap/X9tQrNz43onNdSq6JNidrVvO1EJQSX4u/GJ6o7tXuqHgYbXfVLvrzLHPF5+6wG9otOSebzPH9m+CsrpDbl9Aa7KkeUqpLl2zcO/knSPfu3K1JizBxSyf9amt4kcEiAiadqZ3jdu69eJHnw7bvODetVqTQpVV2KVpnSKDJTXJOFWXTAsQ9pe5DAtoWtZy6sGn58/MPBAzW+o27D3/3pX7FF2peWrzmtjiBVRvpz4yfPj5JR/vPjd00+mYUerRRV7sVoK6rCWAcucjDm6Sh7X0+jlT1nz+YNrS9VmyyusfM1xZT+O4+SNOrJn24My9FkvYr/Wn1Fq1XW3guEJWltXF1ZGi0MbL3Kh/HJIIKAaUJNyyY8v8E2tHzt9/ftrdhY0bR+7gVNI8MttavR+NcvbS1OGxdumFA9fGN7XXxPTSrIsN5HneyRHx7LyXsIYijpROZ/Tw22fPH7nkxKxglq46X/0YALu9Ygnapdy1bNLODz9fvnfThhaeSqXW2pV2tUPGcYVINDAmMawboLi/9f72uRcakvz6C0cOtOyd0cb6CXZ1G7h1G259c+H4bzdXaIMiELHyTDbQtOH+/YWN0XAgbn29BXdK7pNplVKT4PSl219dnzSHS+GcQERfPBOrGDCwbhYIQuRzRHeN/Xjaxd3n5x3hm/x+LdfP9aeyIkmIRMXg3QG8j7Q8o28bP/f+vctNFq/be3RxQ5nhBIGQo+7kqFHb9hz7cukz6TMZGe+buUdqnttUz3fkQpiHr2nQYyJ/6LxXxzPFahceXPJo1JxUnpUNVVvK2wpWWUah5NyZWxZ/ev3M3vvNyUzWEE7ZFQabKE4jBEvxiwNr7sXmREiGON6IGDsYOhd9fgBHADPqD+Vq37T4wzGXYgHH/Y3ZZw4lIBALp+1pqL2/LpxgyvMhsp86T0BrPOPXWQTH75x758x2P2J7WsVbCQQIl7pt46PRw29su7femPJn1WFdSi3KhcTdlFxioHNIMlGUgEBFZQTlV904xKTqIUOpHSdH7p6qV8vC/rChmBSwW8F3KjNzyanmustRlxU/Iv1ho2RjMNk1SyROqHS8utNb3z2xpyZCv37jVfQj2DcpZo872TTu4BcPbw/dtF6bDShSYW42YLPSb0821E6dlpA07xzdbAXqXWM/GXWnNeNUKbmqnLszEp51+8MJIIDm6NqRq9suHMi+wXrYhERltwhmjnn4aEiq+7prFYMMJmDcKjLO2jZ58btjr9ZJswpFOGk35PJi4u1ypOiasEG39u6xGRdHH9u6ThoJpJJ+X/eXS1HEx1M7lr879HRtoz73hicJ0CVLmg8v3X1+Nk8Mq9rJWwGWLiHlkQWP3p0+eVG735Dxc7WOrMjNOP0Ndvcq9hYACoFcbPNv/vTTn05q9oe5alG8R/oG/B+SmA6PPXZ98pz2lgYH3ZcYh1cE5VKZGqec+2ipx/pWiYT/YSC55dDJYQ8nz9zl8cs0YV3YkCi4SQi6Zv5vT+KaErnF/tXb3j23+sjlsze/XnuwweemiW5u2ITVxWlYdvvcOzcPHm+pa9C5xIwz3xu9DjzFRm6vve7QxQeTTO6q7XvQgCisbyAAVc2H5p/YP3qcR2NQhP2prK9Aoj5Fkr9xMNmmsFseqWo8+M65s2ZVRF27btXpLaMefrN/amObMOkwqBwKtT0trN+1YtuHH58YeX7WBUEtP5zoFs75ppH319wb9d6EJPH2yIT/OUBAkIm2qRPf3T3hsCegUuh0WU7OTXd5EQ12BysDuWvPzvjobrvXlbXzNJFCRGuqGXJ2zYkv//zN2ovz16yZvPPc4psffvpw8clJU8Z7eKaUikMObAkFiCSO4JTp84ckquQeFGDXaa/g0oP554fW2VUZtdbuyPWcjw12HyuhwJs16sHFJkNcZDfhaQH+Li7SGlt27Ri38czOcydGLp5x8eSWu4eGjK9PJ/0ajSg0CLY5COWOmoMnttVUs8gOCgqxSxO/Ob/pgoJjCCu5gYSYXZXpqor09pGbAo7Dtz6adlkr9oWNdlmcsTMzvSTlHINl/fh1dfVBgUdvtJj5fEtYHcj4sOs1jlEb0H6yOSsK2Wsnd858gwW+q+iGzhCpuOP+8hkfbwpqvQatPcWRv7WxJYz7djFTsa/h9trlC9K2kEJpChR6pviDBBmScDLZbDarVqhkCVe8UG7zHoS+U3Hppflb9cRbZ3H6rwTDawQI1cKlj5bvuxawqew8hzdPv7XU7gQCVs+CB0s21+TzKqlJHelVEkOCIHAwcbdSToM1OYaEau6e6ddcAFXtgm8eeIjzyo2jbk5vknJUKXvK6abQW6h/lPWYefCsiqvbHoxpV1kNSqPO564kCTs9yLsuB3Z54g7WJSKJZen+Q5yq6B4AQMA9PWz3lXl6m81u58oKFEW/hes03YAA4WscevPk1UycE07zvG42bXxPtpbFzpfs82y0MRhUcgNIp6bcnlBVvN8ocIZrENJNmf/1rfVZjiHF80oI4m1WR2DReTRu3Hx+9EppIa8wmbwS2CtR39ZLgcg7fuLSMDEAy6P/k2DZQDjbhj68skkp4yS5Gh8F3y6XkWeBY+bd6eP7Z8yz5Apek9nvohBEP7p0ZwgQklW3NzlAtVrxGwIiCFHj2HfXjNf4svZURvIjGGcIqNzcWydO1SfENrsxzLEiSMPOsjg/LtBHxk7wV+vMvyn45yw5v1efsdl1ao4Ygh+BGHHV3D037FrGldPwLc5QZ6LYt9It4LnA/SUPTzyl+HF1++0HYjyFaPX9BzdmWiReu04mGewuPb+7xdmtWDl7/vT7YTqk0Kcd8rf+QXwhoHjO1kVe/HD+yJ7Mtxo4k59/07HFQxQJhV0bEb/lejajQZGahRPPb5JGaG9Sr3H9NzhGQ4Tks/bMrFZw6E9QFECK1TdmHDdEFFJNjn7raYIAyB85NWNLa4jg8Mw6DvnjF9oliKaePVL1ge1PkKqZj84d8PvU9myOBGSfE+0NEIiEct602xey7rzGbMq4/quMZyg8aa8OgSq/XxvFdznn8LvLr3pdal42/9aymsnzzUTUE/5DO7fN0hasAZ5JXfhvsy0QYO6Wu5HqOvxrg0kHD/Onpw/frpJr0tnC26yQsK5RyHnhzPQVQpfVyzOHB9r/emCuM39o2bUquV8fEACx4OSjTQYJ1+R/qw0krPUg0b531JmWiJsT1pu8jFf5f+PrW7r0jva/7YU0CIAgNXTGRlNBxXPEcSztSxR5GbyuxjVT5k9bqaXiGkvaYS2u0vz3SW4A6B17D1XJ/XqACLjujZxfk/fq/L7Ooo+D3asK/WTWpv2nd06cYo9bZVKPIv9fns8mtXFYivwvMG0OHghABifuvObihHU+MTuQbyO5seEGRZrGjrrbnCd9SaNd9N8orLsjvmzvTHe14OXrQLZoyVlvnquUuVHR9Pc2kpsCCf2E0bfXBcQSv8WUCQ12fwYE9UvvcAe7Dz9miOv3TxeEZEmNvEtCvI3kTi3YNmx1Esn9yrQDGyrfchN8/8C1dOlc6mXmE2/d7Rp0IICAbPPNlb643e7CycS6cRohyCavLKaHL61rQ6pUeq6YMRCWkvCwkSyo6xDAJjrpjHjpVlMPlOqTwW7pX4tlqEFnLAGCiAisWnNuXlridkr1/jIXRfasnd2mSv1m8gMRjCJT7AcuCUkUTZ7FY4pNPJcZsDQqCD7XKFcIm5RKpTKsDhQIZm4QUeDYTIdalSfZMZJEIpGIz+fz0WxX6FzCx8EoFMcilPAx2zkkvgIAUcHnFIn27tnnLda8d3MiTBsStieQyLNf2CQ4PzQEgM7hjyJOjglvRgBIRCKRKGHz4QzMGGSkCLpYwtDl8+USGARi+kCFrNBqtVrdpXhTJGZgdZdKnYjFeLuVRqCYZZ8Wy5mAfTZKrzxUj+lFV705nGGXjc0WW2lZ5s0qW7hxOlG7c36zyGHW5cTuRI6kIzlC7POJxQmfmOY4C1Qk46IimTzI20Qo7xTBEIcTcts4brEoE4c5Tg66RC7k8rkodyQH3b4IsrpybsqVCxESV4gI5d2EVRInxIUCErtDiAiFCEhbSUCJaURaaSi2kpByuykkFuM6I/iHQLSVpgg3RBRtBbi2CJVoOfVo6OmEVSW18AIFiqDEFCDEBKJw+narGFI0BSnsOWAlISTlFCTdJBQTJEWJxTThJhHpDgHSir8MkYAW05TYTUPaLQYUbYWkOwSR2w0pWkwR7kKICsmtkLaKoTgUAtZCCNDxEEXIQ3Lo6nX6Smz+7bfffffdd7/6w0+W15MAAe6j93/yk5/85P2ffDFjhwhRFFh/fvfu69evX1+yZLOOcRqY8OjBEvzF9ckNIQgJZL69ZO1N/HnGpghmv3jFiZtrlyz58pd/Gd7GkDs2effIJUuWLFl8Yh4HZ2oUT5lxHX9esntUG5P72z5xyYMHDx5cX3JiX54p7jrnPN58/eajc41MnFH41pIixjhwHworlz+4uRt/nrELE5RQ3bm158otjHk+5rqatw5lPu4ZcxqnBIWFq2NuM5h4SsfsYLp7Zc/Eg4sWjJs9N0AhAMkL40po9GHh51146dKlS1OnTp067pocPxH8S7f37Dn56buCNztNhsC28uSIS0fmzlHWNza4LU01ef+B1px3/Xqvr70pnG+5Fs7XH5BaG67paf34NpK3br1cc2GdN9NygZtoGW8vtK1Lu4NHakP6poaC9EiLxL++xSlrvKBytqzjxtvX8+Q1TXq3p1EgN1+oldibWuSOlkans7VFk2it1xXa1ptI4TozbVwniPPWtTn96+pEgdbWgK/9AldSv15ZCI7nyy0tRyxbFz9a2XT6gLlx5gaub32j39cy3u5uX28hg+tqxeamdrn2Qisnu269z7Dugs12YbyWbrzAt3ouCMWWde1u5elGt2b8epfqQBPHd+SI1tp8hG+NHYmGogcEZPpAq1h7ZH1IdeCITdS6Tp2vvaB0B8eb3bHxQci/Vg+VF9bR2iNNPuf6IwbJhVivgmL+4w4Gj590rM0RANR91/HkyZMnHR1Pv/3rEYigddRT5mNHR8fT8xIIQPK7x+zHjo7frcNieMzjjg7mmyffj8ljn+OfdTx+8rgD//tDK+bqVrwDbuTJk+kZAID6t2wDjzs6fjIXv92mss097Xjy/VYfgCDxFfP5+ycdHZ8J8Qt0R0cndmZIAPy/xx3EbT750xH8srjc8aSj2KtRYQLAwsiOjqcYj5/+baMVAaD7ebEPjzu+CSIA6CtPHuMmOp52fHdeBAAV/l3nKX63Eg/MpqdPShf+uyQgkPeLp/g6vu/4hPdGVSkEhO98GIyH9Rq52M1UmLaK3XK5PBSSy8Uhl9hdcIXEIVeItkpCpDURt7rzhZBbEg+J5fGQOC6xuuMStzUkcdO0y22VS6xua9xqtcYLJO0qWK2hQkgsDpFWuZx0u0OIcrtpig6JyZBbDMlQiHTL5YRYUiBCcSzi47Q7kqPFiYSYykXk4oSzQOdECRhcceL8hKAsnqpv1WZUAWteFnAVbAYJlVWLkEyRoZx+FaHyy8QiTZaOZNVyuVqbEHPtAZRNZumA3U87deFQRJcKJUy8vMTO87ntSoNVbdJQDosWOJJSuSwpdYvSppyLJ+WElHwVZec7aK4+adXqk4TBmJbb9HwXR5mOSI40unobS/O2z36P8ZPPPrvjJQCwXfnD3//+97//459PnvzrQAgSaNcf8U1+/Pjx447PVQiQkfPffv/4CUuURVhsXvttieyPf6kFEEZGflv6ouM2pkHT/xU/Pen4rhavX07+BftEPX3y5BiuAtj+y+Lnjqe/aCQIQCx9XGrgyTQrAKT+s07m/XANy+Ex33V+8QALe+MfO/vw/T0s/ab87MmTIjm/UuHY/E87OtucjTWMS3/CG/F3j//PTkLg/eJJCU8nWAGgZv1QpHbH04ceMUDOzx53fIufoH8ueHMTBQoB64Xp85paFya5fHMuYjZLchYLp8ATqMQpj5pU88O0w5wkDRYd7TTzaB9f6soZPV6x0mOgdUYtqbakxDILz20zGuMJsyURN5q9bp7ZQCg9XDLF11KaKM+a4ZvkIrMxlzPyffG0R0Ypo37SHg3TXI+U0kSNtCqtl8eNFl/CklYV7GaDlWdUiNV6JamQpuTKcRNHnlzR7HVc22VRSaUZq9YSECuMamjghUGAZ6JEpqSrYErmC2GpSJyyewk/zwDUaQXIpMNkQqmTSHQ6iTucjLhTyghQmzLAoHPAjF1LiLipgiRsl8e1KYlVw+MQ/rAKGOwalEupKZ89jFzhVDyeCsvlYV2CUHM5ZICb8azTiytP7hDIjD99+vTp8QdOj68x52lAhcbfwzg0bvacmiwBAaWfPXv27M179uzZcjhdwIUeLo0Ze3vo5FEjl++pC2CtdD3OfbV48eJRi+dZ4hAB/7RPv/zqp1/963f/+GKDClGQPPzuJ1/98k9/++u//3S9OQ8IoNr/W/wA/fvv//jTQQMFgHvVr//075/96t9/+vv/e2d9HEDgXPynn/39H//497//8X97ZVgJWPWH3/7sb//+97///Y+vD2BVX7b8//313//4xz/+8bO/XDFgXajps3/8HX/+959GnMZuLZK7v/zpV1999dXX33x1JlkABDKe/+ZLjC++nnEavz4kc0fhPs8YuXjUFHMcQMI/bs+eMWPGjBk7dkq7lgLQVzd19pRFWC1Z0CTwQkBZ5u0Zs+WDjo6nG21vUC8RTbh5LVO7TiqmxW6SdFsRYRUTSCwmgNhNA1pMAdothmKKhgQtBjRB4/KKBCG2WhEVIoFYzKjPkLJaAUWLCWC1QkJcECOKJhEppgDptkJSbCWwLk1Z3RQlthLIbSWR2C1GVisFxXIahgpukgyFCDKepwi5hESFuBiJ4yEgNly7O3LN5UxCkebztT4rlEisIO4KgThHQsU5cZDnJJCcw6Fpn48kIxwxyUnIyQhHgiJOF8rbErDg5IjdHI5bzLHFrSJvXizKuGAkk4C5jI3Ie2W02OYVu72yuJiTiSObwUU4bT5KYvOSeZVXnJMF3O6AzGqVBQrQqcoRnIAvZ2rJ9SZtaFkymUwqlSYlz4/dsKE3bOeljUajhR9V4emZO2XxGPU1Qo8nZkxgHdlr9uijwqBQGOWnmHlrsjYoFAqFghqhHhMLqprbmhuCm3eOvBrlhQAg3Py6hvr2+ubWllqBAWussub29vb2uvbWeqEZq8Skua6uvb2lrrW+RqDAWnagpq65vbWurrWthmcFBBDzW9rX19XV1bXXC7LMI1nb0tza2tra3ixIY7WDTte34e11jQ0eP56eR2IN9fX19cHmdqEZP1CA29bc3NzcXtsujKVICIm8XiAQCIK1NQKPlIPnqAaPJxqNRmMxvjnFXLc0beGzkHIARFTWI+CP+fbJ96eyb84/2XFqm1HddF+GHVtLYKwUxc8E86nT0FEqUlec5JYsImyeB1yOgBFpiLVSlFc4Y9Nel2UGwXsTjKGDIJmgXlzTiyjOtCmmOCtB22dPHz5TabVqjNJAvlhTB5UWKRnbGNMEm5ChrGm2GSaZA0H0KG8Jy3O/IeYw1sQDi7aZok2B+ZagSpfKVNFhjDCZaKqXgpUQWgnGyuCWu61idiStcklOLsEGDCYbBmFNiHIRjiyj8uYJSECCyMu8gYBBk3UY5IwLQSGgUSgUCrVfYygw5xXZeabUkCsXN/AyNL4rcn8yyTMaLSYzL8KYQjkWi8VitvCNRjvObQfcOp6Rz7eYjTyLDw8wlZGaLRb8gKX9eKETuu1pczqdTvONUhFjzBBJjRh6voWLyY3cfqPZbDYb00aTlxlyV0rJIJXUMCsLYpXdbrfr7DyT3UcxGTyZPnP9Ck2GZrLqZjIymUwWCMicEpygGeRdCcYKJIpIrDi0yOrMBMZ2dDy9wyXeELmRZfRUr/zCkVorUUorxUYclmqOleiEWONZKZtHpyWQNeIVM+8RCNeQxv9QZ3UuWIoAK5GvtD7EJItlzWsEfpLZR6ezMilCSLtqzYx9/Lw7wEtzXd1SbZY4XoydRd02FZ8g5nmDxdJjsGecltuZiUjyBVwLE5b6x5ovi3nYSulMOs9LlApaQ8sFSS9TfPH9GfWILeoG2DzP7KPIluYmOi2PVFEIsFfCJCxGkKCK5k/AGM0QTn/FSBiCpknafnfrqmLcHKSsBGEV01YxxRQjBCRN07SYtpIhxO5B0rTYSotJMcnU9KQgSclpkqTFFAkBhUebZmx5pJWm2dJXNEmLxWI6xNQmJxCkrCRJkmLaivNVU4gAYnwOgoLsgBGAwiDEYppmJB5T5Q1BAgESUvhiOm2szAGgrHInLPIGwsKdjseP972p1Slq/QfHI86kTq3MuPqhuVde9IFlKPK/aIemXOtPPRrbKEMce5r3TO1Tqpxbxep/JGPOZh/GYo5AiiRpksR3Gpv9rG63OyTHM2WrpFC3bNPsTfM2LZu1cd6KqeMOzVl1oL7WzFM78wVabCUoiiEZTRDFznVaY/FNNDXKqMqXqfm0Y6f7ObYt+BxHtB5j0ROyjUtPy3s7pi/35XnH9dxW6TPskbio23cvd+/pgx0d3+3TvBnBHVq5ppZypCSkxOCN90eDr0nuYilhCCSWqcOn31NbXX6zVOYGZG+HI6KUyBAiXBFBJstypRZPsL3x2pwNszbN23tn7O0rk8/NeHD95nsffv7uBw/f+fzGOx+8+/nHN945M3fOkPsbVt/fsWje5qVbzmydtu38iesjj336xy8+Hn5737Krq+pinnRKLROVJ86EBGZ9xJGWV+5Q8rOOE5rnOHG9iFC9kxX69u29n+vtmP64d325b6AXcr9kG9Sdxx0/LOOSL3vIq8A1ZaKU4IYlwGmKJvolCPV1JTerHmsPXRy+KEZLDNK0Ii9GFQRBaQ5A0qGEOt1w4f6hRXcnnRm2bdSxTz/7w/sffX5jyajRw66MGTp26769i1Zs3Lz57rxl8zbe3Txv3rJNdzfOm7Bi3oRLd06dXbr57qZLKzbOu7to06GpUzZNmXJpx8xNixatmLJs852xE6ePvn5zyeJR0+6sWHFp9cJ15rDIjZeICOC2JN2VhRPvjx3H+PLeRfdrkDu09HiTqLdj+uPe9eW+gdcgNz5gwpMnv1itfgPWEpjbekZRCKtoCB0Ci7tf3g2vK7kJQDmbhg3f2uCNJ3QWrYSG7Ap6z0ZdNrVOOH7BqTUnHo0ePXLJseX7b29ZtmPXhRqBx2KW2sPKpI6nDdt1uqQymdLxTEmeicfjmaQmo9Hi8ej5+qhQqU6EcvGcKJLgcLwykcyQVWvUXK7drtVqFWq/2u9XqLnKND+m9zRenXRl/owZixePPHFx7LwDbadnSivn1ASpX3Z8zI+Dl37dP28syoEzbcy1a1S9HdMf964v9w28JrmNI558e9zR330DANguHnRKUoyR0RZOyfpFLekzmHkPApGGzWuHrZRZnRqpySlnDBTFORTzP0HQXuORlVOWbrv+4e7pQzfvnTqk1RP2eyMcbyCgUGtTYbvSJJWa0mmpyajT6VJabVibzSoUWUXW4TCoVIYs/s/hYOfxgUAgI/PavM6Mzeu0OTPeTMYryygcCgVXy9UqeVKTKW2SmpRJXZircCik9ac3zL5ze/6H/9//Ldk5YfahdXqNCxDslA37ZCAIdH/8/qZA3v9lrvH8dqnZyxnUe/QmYDm2fL2q/4OnAifGxBNh7AtNAlJicA4uuQEBybh/wf7Fl4yugkHJM8TLr5gEwOpSSefO27l//vm10zbNCUalYVVE4nIaUmmp2WiRGi3KFDerktl8OYlE4nJbxSGrWIwNBCRFkSRFUgRFEYggCYQIisLmus5QNVQ0/6AyUmITASkm3QVJzifyyvxhpdRolPKUSh4v1rD+6r6xw7/+cP6a6ef271iXVnHkVDFrDu8nHe+9CXJjiXhlk/G/L4SOTrd5VP3QTnc45m+mIykOe1u9Zr3vjWj1rwD1wpMjT7VJ5Cq7Rxvpsk1gm1lcuf7+1kc3d265c7Rdk0hwZAaF2m7iG028lFpli+dDbsxgxipWTFPc61mKIRil5lEPHrJudZ02cMZsSTG2cgRJsbvg82a54ZTlwP1ani64atHtyVuvLH5vxtJZQ44wCxOE8rOO62+K3PvHeP7rojIgILLaeH9fVmD+XbdBKWHNZkhda7bCl7TgvBG42s4sn3ZAQUu4+qTXzRSsYRhIuFXmqXsmL5k+4Vqz3RdyZfy8tMUo5ckC3kg8RDK21U5vVna4sGWb6Mw2xVbrYf5k/EeJ7ikx2WWmYv0ChumMoRkhAhXTj0N2LaiT74gg3OFd+oCKq5Ny/bzaXYcWzBs2aufWU1tWbJdyzH/sGPGmyL1zTHOuH5p6q4Dt4lS/jhZE0DZ6o9VpL7AfAcExSmXicnKXLdF1A3pus4ix9r9SV7BpOx9d8Gj6JXXepTBJHQUCMGsZAAJxSrBg+tppd1ZKRRGRzGBXpvlJtTfnJvuesfVlJj0vblvTrrZSkLDmIw6DKmBPC+qOn5m879TWk1u2/Lvjw2i8Qor7fsD0nQ22fm90sIFXv/tTcEMAnKNWuBP2zgAtSErUTLhWaWEakW4rXekGvUi8v2pUDCKsqns7R14Kyt0qk5IbQexCHgGIvHL2rQfTjh7QhcQibpJvTIYNIvdr10vrH3InuEknxS7uE26JiyNTpzTJ2nubzw4d837HH281qa3wDfB79HTBf5vkhro769ygPysZQMA5v4UWKQulBXEIJGlW5y56YED3hC9HnKnk1wlBJkz33rBzs/4VXM8hgqr2PcuvXBDFncl0MoF9fpjFRcLWtnnkxVNHDLYcR2OJGTURiZVZqi8d2OfR6A9yI0A4jTai6CjAqC9it8SmyKh4NacPHjs/9NTQKQfscUD2czKGnfs9vn5tcJABAbDeevLr9f1aLZnID90n59jlZUpGtp4HYBe5UXz37il7vhnmeJao1P2TkWeFd3HJlTr+71mvILoL0Skjp98PWyVhvtQg74wVizdsHLVzh6BgFWmllmTWKS4ur7Pymngti0F/kJtAnGZziPWFKXrMMDq71SXLGBw14yYsXXpw3qUVpwNU/5L74vz0IFu0+hcQwMLijqe/dvab6CYA5V62NWJTli1IQqiqVXKoMrc51/DN0Oq5yQR64Gx8sMvM4MqwzxkiYOdUrWhJA9L3Pt0qf/756aK8g2770RnnZ0kTtExq0sSJUlp7cerQ/HOzk5EQJ8VXOhLit9I+EGjVhSrfj4Lbm/Jzg0M2jV00b8pqgahYruS17x4igHz5iVQlckPYm+QrTbRL4oCWOClAFifNAEJSU6xSTHhzBCc+8NYEmF/c0fFXI+qvREoI0Stvq3PhQtdXBCDkCXXAXU7u5VspRMS+PozHh8Qee7gDJQc7bDAjSfxfUWYVvfQkW2+tGJl5ruguOYh5d525fqrRJfamzLoIM8SMt6m7ZcuSjUG5OMNL8wxva4olAiSUYUMvl0lAaM3ZZArP0X2n7t6d2uQjQX/kCYcIar74ZqYOIKrCg4IqPjzMC895bdzxdPEL59aNckABTuuUcU0yCIH0epJtW75xlXzCGG//mi1e5qoYcjfm+u9GN85XupM5sku1wOTm8TPdJPfIuxQCmndnksC74NjaQxEI5K2TP5wYC7m3z4GQSN++MSEAQpfHS6+sbe00q7W+G2t5N/X8pxDfaZF53+KdBxTWvN+iVDGTRBpX8YWRdfvnn1a4RVq91Bl/e6tKIYByPEdl1YX1lKXcCZ833LZj67xLSw+o6H64EAJQc3/xq88+WCarMKSBg55eOgqiyz99/2e32Le0eNEHUQoA84xPf/3p19dbCRT7xALYqdLFIaTw4aYBrzbPkrvV1U93mgS8m21irg2iMs0SIlW7kgLl5F57H1j9t7+JEolhHw69/eEyKjTl0+m3Rn8SC00bC6n6r2bc/vy2PLHmo3eGL17rKx7FOXdLbv6g5fmPP0FJL527OIVnlaiUZoWchiV/b9K6avKtCzmrymLMME6jBPXWpg+TBGPxyn1D2jov6+tujTtVlu0r9m7ZNFf06md4BhDN/e3Q5iHHzmWf3ZbYrqx8DLDfmMzN3zljZfpqfvcAooD0xmip3Bq+fSMMar4sPhScR4cBOjLCONDjyJL7QqQ/bjOWmpmdR62pbM86o4EWqavruUVQ8dFHu29+sbZNjK4tT+Zbds+iax9ettLpd2pD284g+eRzHFizOxnf9u1el/lLM9s0ser/Lp775p8LeolQYUls2z55xoSYl+Sk+H6XtXM9Bdew3jOtOUdqLOq3w39CzBHlrGyUBgJ0RJawlr2REkc87so2o8Lof8wji+sDlDuX0TbO27JvadtrZ8VCAGz/0+YwofvwFN2lwlOlBSg2jWBxKBGgin3NnRzpB8AWYHYMzdvmA7Aw7ZGTAgTFPbYLxL6xsE2LlqyDILHtVD/PgF8ImD/x9OnPLvSHDQj3XH7qbjyr7q6iEQCGJGqZu2skoeKDK9P/fZOPgHjpmqkPZgxxUStGxSGofWjKD98HUx+OR6TmXNB17j0FUD6MsVp38g/ffXZs+ftXenedFbWcPTHmMCfEUepNIlRKz8Osl6tPbRtfsCqk6rel+ovg0892nzKRzCskfPfrf3yztzNgAgKfR62urH3Zf99xzoc6V0fFclu2bdHBScuM8LVTK1/9+6EUApt2OwHytc/lhwCAbsvcVicF4iYXALTyWkMeARkv5D+go9iInlU/rS/GwQAAVQ8OAUA1f7GeicxxTZ7Akpuyr2oXfByDgD5+3fmaXXw1QAAkMzo6+ofcmMezTqic4R7FmzC5dUZZ191CUHGjSb7ug/diQH7y70uGBAhr/NZ+MUVueMeQH7kXmj5qAMB/voaz+44VxN5pYIMQV/7xnjRBTV1c8SUMkVW7bPK5lUp3gWuUBkKo3MOTCq2fvCBAqI149v525G9Dcz/bseH8OwslBCI8H29beeRITacZCALapU1VfpXqfvl4hI7sMqsCGOJo2qfuOXU48rpdWvDbBgeSjR7tInjz//y7n26Kg8Ct9//x5wcCIDyRAuT9d373530ucPrEpRt//0DHuHFFhl9xA8alC3c6+mEbAcDmEyJWyk27y5A7fvXdv/zmgz9gvUbwYex1+/hKIAAozOh4/It+IjcRXBzNh92wp74IA+PtZBenEFR8vBBA3YNPhGDeoySAgbPjlz2QAfv0E5zQjM1U5tFeipy7WO06toAC2od1TJSua81+bKhqZbSUZ5A6vWb0Xn2cziiN6nypNGTJ5pwbN5qHnGm/BA34fL03wNPvZGHi0JcLacBZfLL7ahYEIU+DqHJPk79/ckxQfPsUV2tRKBEef3DY2fRrPbQQLPrZhONHlxxrgM41t7SKjSOzuWkft8ssDy+B9ht2UP/JpkDDiPVoyN9+fZx/fSVDbssHF4rWQPy4NX2sAyA/bamYcZoRjZqFyU02Hpur0g79nRIASvPw9ICOMQWBfMW3HX/tH3JD55qVIR4HgR6OPRAaDijjZd8h33urAYL+JWsTvLVLbk979LGJd+PBzj1jhsULF4eS5OWfjtr5wdUQZ8RqAqge7MLPBTJ/eRorgNwbO8puCGv7c7UeXLx1nYiOJI1hZ0/nQwg0+zZwrBrl27W0fOBLHQCFW8PlwPHhfm7BKi5/9n2NenllCzwmd6ynhk2EOOGj00/GXsfvEpKTfvbnpz+764dAsFjftO3RdmvNVw0AZG4eBq0juPS+xT5A79mIVv51Ey0ZNg7PCOD4r/wIUJBNKACvLXEA6Jq/gG3P+LARrL9pD006RQHSc8MEAVB9PGTAhzlw7vuvW7z90ZJ10a1cOFupXKfbx3WUzZBg6JAZQgLyFiQI7uy1j1bLEOG5Nap59rCQ+OoBBCRNw8+tD6HQoWaCkB+KMsf4j3LwagJ9raWrHRxmnbNMWT55l8GaVxh53kJP1xQCgOTtdeK8KTvgdqjngjh9TAEI+uB1DpDP+uw3f/honqbz4YcgL+Rm3RUFcUVyA0CIRTVn9y98nRcTOebhnEWfjlZCcPr9h8fGhSl09D0DICwPW8HKD1S5YUtpQN6ZZJ35RYpIjLrEkHv7F5rimjM2Tx6+ngEgdHIojafI1MbrMrhudzh+ZTsEIPqFCWc/ee/4gI8zCq+4H4v0hyLaPtIk8pOVlFq3WmkoTXhKMUP4vcokF2ADvxFJ0BPHMiknsZWuSwoVNXi6GLvfbbIqVh0/eX6W1G1VmaRZSQWfKwR4ky1EJplA/ek90w84fl5WUB39dCoJIGU5PmHyX9aGy7YmUlrrq5AbACTXXro4s89WEwjiy282SIwPPm9FR97fZEAgK1jwYRZSq39vBJc/zFBjbrtBfs1R67jzCZCfv5kht/GLAwBQsoUGPJmlLhzT4JyYX7RjDbzly/uIunCdK7+yTwxA7ANMbs2Nw4MQrpbRGyP9sFxnG304Ls1XkNsQGeaGyS6rN+wMwC3mJKYYBYkyf3S0lLGG3Q4h/sSmrIXPGn5VzWOmb/HYxJywPpWzAiYaEvbwDfHvq6EdKTd8y4p1oUW/efjNJ8fuFRA2q0Ey1PrJgs7hAlZera2yj0uv5AbAGlk4ckJf15khsH30YZsVcGe8o1TvnhQ1tSy/E/t8s2X7zusptP6GFqz6+qplxccpuGi6C5BDxzIunfmtN9and338MY+5NTXvGgENOWu+WG00rv5kjAvQTdfV4PSXl9ItS/6KyS19WDPwzg6QzHMI+HqWJJydae8wHzdCVeA2AKq5um7upBD2WCAUN52afffGMS7ooVdUdESicP4od3Te+THbvVaX1qiUkZ2Gvx77yibWUmoF/ZaJbQCsZ3dfuvH3S3Kc3I8J5xCPvtV1eaG6WKKy62/6jx3veXopAkfk685vdPfNGEQAxU/O1wAItI9WEm3n/7+ffbkvS+/66t+Try53oObRflBY8P7PbtbS6OrYOKBWH7Qyg606+Jt/P9zHY5sIPLxPIBqIZn/+979/PlMEEKyfr4D5+x/87M8PjkURInaN6P94rxehOC17bTtCbK1HpKUqj21coZWVlN7KEdjrT/zm633GZzrRc9+igUDuv3ry4g6ePKSypB2SYvXbnvsSAMQX1UOF4i0sB0CvmCaWzfvpXg6ifAQORovMmNB5zSBeq8nKK3Za9bBjJL8XckNg1S9e0Ne5hWl5PVaMCI6LABydxY/196zUtv2EF+QUNARILVUBgBIGAlAc7PCGl3LiKZ7CXXzZxocO5+D874RBqTSwZQ6zBEDAEbVzHC6AfKNuDewiA+aKW5Hvj7vv2jYlYc/3IjfcgWS2K06rErmJkLWSlvnMvti9WTR+y/y9sYLVpjRqE9bSisYz7UJAzFlKOsJvYyEyNHO6BBXm/H5PzjdsqgQSmoMfWsquOqfx5yvfk/GTjxoLvbUKQfj8kT5KqYUbuV1+JagzAdbE6fFi9jecW7FHsAjJJkssvvRjX5U9WaXFSAgJJpUbKOz4QjCwhlgcmn7872vyr2//hQtHcR2KijcEAsK20C5+PrmZsh0Vjn1GcieUp/bvWZ8t5MKWsJcEBOPNT0D4LLkRUp305nR0KQryrcK98xEIQkN+OZ4e99mxkUve+bypUy+EwKqJyqy9ZMJUeKSF3l6zEBH6c7q+CCoCTlptdJVyHjLMJH28TGbuT+8R7KI7yYQ2l+fB6DotYORHaPWXK6lSMkRAk2xWT4JdsSc2fLZB3q8BXy8BVBj9+K8b6dedTxK2tcd9KXcvW1HmsqbzlfS8fHXPBXZgMK7eNm111hpypM2ZZxrs2a747By39C0tRmZqxKulxHgpCqWnTh62qzx6kRDXm3293RG55vmVAxsveqk+PMyhbRaPvHv5xNZP//Tbnx60FUvt9H7TOr8mWq49813nNV1bN+AOrwBKTnQ8+WnmdRsSz5wmS3F6q62DEjyd8wWS+0U9RYCILBw7fFMsRHmNlrCvrBhTL+RGyemJcOatWG1/FgTozEJIMEWQyrtpbQgH8pWHgZ1OP6dZcscUsg8SUrnfYOpRGzTOP9JkLtoB0HPuWbeMUKWoqWf2Hfg5fYnc6dfVS7nXG2VJsheJgQCRSXXOlPtEbgRtwaXb9rSJ3L6w2e4LlR/dG7nFU44mTOK3bzIJQCkBcalYG9bcylQNBHwKFafieiO7d+/chQBydrb14e0/ZEtKQzxLTFRG1heRu/Tp2e/eRKz+i1Eid1vhNRtatC3L9fXCIwiQbS5X8lqS2z5z25rLWlquTtsNJKtddt7B3sjtGm7mZt46I2DXsDADwmrasHuuecKrN/QSTgeJFwV5omvnXt2BGc1rSma6gvqK4prq6uBLSW7QlXX8GbVkEAa4SO6G/Ou1Ez4x3uHvzbUBAeC4GihPWQLL3dpQtyeb6CYEEJMzXX3gys4VXJdbpuT7E0TnxuIAYqfWijez/mLGTJedqqxSISyuJZXlhiqzspR/Nyh5sqh6fS9Ofmjh/vaei63YK6F8dN2L76GKaTOencJ3DmHghDntpiAFy79kFyRKYSdE6Z70RvLyJWjYMz8GUxMDQfiKeWdeBwQAuRkdjz9te51IHAKhBfMdul4jp3Gqgpgy0L06QWfRBILs5B5kKwt0DR4eEXfd5uFL10uoiN2j45CoiHJ5jT+XucF3Hr3ioEpNFtt53mSoK3M37NYKc6JBeKEiQAWNqkLFE6u+enKlgiWbgKjIGmxZPr372dWS4kNdSf7iG1N3i2PqJRcK7Par+5uyZ8/L/IogU3qWXUUhxZDA6ZQonFZpAAcU5h486fjpa5EbAO2DhQb18x5J5DIFOkVu0S5NQIK2ukOFuCsX8eFkkJmAQ5GVabmpVCqlU0otRrMnVrfvvXcmH21svL9gx73x6+vaGzHWr1/f2oL/aGlpba2rw4WBamqCwmjU4/F49HpdUsnT6XS68/ua+BqVTKUKyDK4gm4kJyngugdyN40LUnST9uWToh59H/gXKgIilaNy7JjyJ98/6Bk7TMhJN22Vx/P5fN7n9Ilssc8WZA2GbNaB889qMNRqv9/P5Wq1Wm04lbKz0Bah42p5O5fWt2rt9lS4CLwj+4vL/K9N6vzFTczxSpyx02Qy6Sx8prYNHnm+PpqOxmLR2pqgsLahub6utaWxrrHpwPjxB65dOL1rzq5Vc6ceSg9ors3C6MeP338tciN0dKTf/pzoLQQ4TcpOn2VICzccPbpj6pRNK+6e2jdpy9bbV04O2z9/+IxRI9fu3r38xo1333333ZFrbx4b/t5P//J/n727e/SMJTdOnN+2c/q0k5Onn7yyc/LkyZN3btvP4Ny5c+eWL1++fPiMR9fXrl279tixY8dujnjIVHn71f/3+4cfvrf7vetrT4ycPn369J3Truw5ePDgwX1n5y2bcmnczHvHj1+9ev/+kMuXL1+eO3fu3PHjx49vaWlpqa/Hj0tDQ0NDbW00eCQwkHeDHSGYSztcFR8q0087RkR7LPSt3Lx3374tY2+dPHny5PTR0+efW/7Zv5aPHr38/Pnz56czwCO1bduaNdOmTZs2bNjJIm6VcGbiufe3Lb9y68oepmwvu9cw/OvkxYvT58+/ePHi6MWjdp549OjBg7Vrl9y8efPmiBEjRnz++eefr333o8/feeedd5gye19+tPvGhx/eeG/tjPPDz82/OH3NraFjh265g8d7wbgFh47eu7zzYvglx6B/QG7t+O7919K5kfP8Do2/96VVAiDDwkyXMk2dPjd+3YUjR8aPH3/g9Olrp+euYjB31eHTq9ZfW3V6/OlVFxrnbhj67k/PL5gz59DGFeOuzt2+ffv2uatWLVy4cNVhvPPhVZiO+C9clfHatQPXrrG/D4wfj1s+cvjU5IdDN226fKHpwpEi8PnwfszJ5s6du3LlypWrZ02dMmXZxr0Ht54Ze3Lamp0nd56bgUs/L15+fvTw0dO3bbsxomZAbwdgHn+BwElUVIiSv+44Juhuuo8MXVDfKhTEcN26KK46xjfe/Wxq0mTS6ez2VIoVvFh8K4rAteJx/vBMEYFMYNNOfkvAqwoEDEU4GChw5nHmQG1Yy+VqWbGNa45JpVKpHsPj0QeDwWBbWxtTeu9CEws8vnPmzLl89fi9exuOrj40bsGCcZtmT1n8iUA0oObu9t8++ab5tSaUu0YLuYnnlLIA0FujLZPs126l1AqFhnlPhvF7MhXW6XRJXVjYzuPxpGllWH9v7M3zd+vTwcZVB2qkyhQXg3mzctUatVqt1uD3LP7ILb4/2XHX6ZJJJa7SyLOM/NMfFh/74poumeTxeDy27BtWeNibrVazt9uQVXMDBoXakdWoVY6sRhXIeHHOeIXfrvQIauubho9ufF1L0qsCAtLDVxWI55C7zFQH1UsECn9Yy/WXRkCpvPpojMBk4plMUmk6zagN6XTaaLSwwCXzcLVGcwmWls9nXltvwdX2Sl+x9Rw9fLPFaDYzTwxTq694tNGYTmN6m/AZTJjsSRa6EvAYp+z2FFZvsFKUdWQVCoNq0TdNvgElN3Hoo6X818mjxZl4y+EnnhOgigCR19m67tXhk212TdafxSqhIqsIFKWITXFrgUjE8amiG5dfn1ArU1laa5RZmw3ry7i+IIfDEYlEPqbWYAR/wh9FTif7mfmC2S8S8flskZqv3v3sj/N8ogTH6/V6cftMsQOVipFMrCKqxrool6GETslL2ZM8kzTNcsCYTpt4PKXp5JWrSWJgbeUIIEXGIAIvQ24CIPvNemnAoArIvF6bzWZzOm2R5Iz9/lxEIpFI4vFCoVDAlciZquQMxEXQRVitu85z9Tkr6e7axu4ZsoppktnRHXJbmWJtRcTj8ThuX5LPS/L5vMuVy+USiQRbCLIE5n7gm+S0OfGPSjTr83uOAR1LKPZEza8TXiq8Wee3Pdf3CnKapZIuabNwjyCO0yaXGyMghOSQnx4lKMWFiY+GtuYKGakxnGc8c0oVBwmEKIpCxRzwBEEQbAtFmxUqfWLn/PSdd4YszkA283HX0lkPY1Zp1g8RTi5P0bhUAga+l/m8JJ7YO+ZIFgwsIABiroLzUuSGAGpujncyYwRLowHIUdsqJAwtN3F0mzhLpt/zavEScE+TKmJykRO4WfRsO0VTVfc2yyxYsOS5D5kKt7i45OET4/sjycqrDGZcrZH3WThBYurypOl5GfwgANnTZUGa6PQZAd3FLta7hkLEgU1jxwnunDg/RxdKhM2pQNdNIEp7siZeSFBEp/crzikIS9kESzV+sQ3RPurWIrqSURZ/RRCdf1bYXmZQXD224VWjlGBnUjfQw5LIdo8qy0NOMQnpEVFKJAeZWriUNOas/CLk/eTJx4Iyl1cEkeHEYRuTbrHrUogVt9eVEfh5/ccdOTBKpvShV64l2ev1dz5E5eZH5vbVjb4WIfrSZl+BK3GDPju9IuA9NivleN5aBwQw06btogg6PFQQQgDGDRyXJOE0pJJSsyAW2/Tu3HN/+dcXk65uH7Jp33oX1emj7UpETVqF1+fK53MFl8/pzQRUWYcmleLXCC5sOOAtyQtsUMUvUyx8SURYb30qFLOlajCVyS6vOwihWy7J4VcrrmtDdFsVIXBR+i7T4Mor9a9KbgKgRNQk5UmNxrRZL21r5jfjIui4snmtQBA1m+3isq6UcQIAkE+LcQbJmMcmr8hu3a+f7I6W6ZCd5LbmXNgUWHAziShn7VzYNVNA8t4vAOeZCzyYI9IRgHzj5Iaofv5hDhpIcgMmMWdfAUHT4hbuiyLLKYnS2xUAu3CL0A2AO31m2aaDQ69cPD98xsi1j7746y/+8asn/3j47oefffPwq01sUDUzNJ7TY4cvHjV//8QrVyZOPHly2LBha3aO3r9z/7T9k8dMeneuD3YKYLcPTy7xRFPjUPuPHE+psw5Vlpn9K1KdBdvwvhyukZk8Yb2a6/erS5YEh4Jr5/qorpt6YGfLq5KbQiC5+OSwnRdnnJix5OP3fvqTL37/61/++S+//fsnf/n73377r9/87ZsJ249cXrj9/vGjhxYs2zhh796zZ0+d3bv37ry9B/ffISFEZCrrrByynT//n9v8QpftHQKoOnHYC0FEasS11nk6rdqgUlybtc7PVFNjqqppA726RuJAvh0jbSkfpN645IYINlxcaOuTR2hfoZ6w/XUiJIg7J6Xh5zYAAcURKnNdT9CuO0ExgJGtH5xfvGfK3AuNdfVttbXrm8avmrXv2MH7TetbW8/ei4k69bjYvJP3jbywmuv3a1M8c6ytvq51fcv6I4cXXr5/6aa/S4uGkXA2yy5cqBXccFhn55ktaTMzvZfqNeWDLw7H8MSxzDLAAn9Mioium9oyev2rqyUgtOeDM5eOztow9/C1IxfWtzbXBgUevofHTxuTlrq/jRi6ZtqjUTNmnFhyc/6M4Wv2HLy76dDxOauuHVg59dcH5QQOOtNmK68bkN66drMckl3nKpKbo7eULCB8iz7N57MPL54bp/X6xHO6Kx1d402KO99+Pa6lH8mNEKidPkc2oOS+1PEb4WscHp58lmt4UeZVzYXy4Z27T+gGUHRw58oYNtMpyyDQm3Rhu/LqkJnazt3V+6aUXHKfXT6cl+xKvgN8qSxPiQ2B3WAy4XKPfEX5ce6UscdeDJTJJE+qLX8PCbe1RF5RZ8N9OXuzVccYYXTJJGM04ymTTD+M0sb/d0uTtWUy2IjjVRlUGbyIqOX61eGwXfDhZC0O2zIFA72Ei1HOWKpMDmNyzz+cATBhMZePY+m6mcGVWp4Te+a8ssKnc/bJDfkVAREQbBsiowaK3Ng9eGvH4/l9N+US499br3M9dxcEgKJFHSqT3KdiVgByQ/cWGdXtniiTuqTy/uqjXTaKxJkdJVf+Z0dlkbnMzbAyuTGkPHM3o8fzyJ0qj1G0jF7fF3KPu9lix6Y5p1MkyuVyOVdeglX8eKEQ0vxrZ7NdWrQX80w8vNQS1ihwlVaF8eudPCsAZNTjraxJQEAV5KibtaQiubvheeQWX5qv0Pj75Kn5qoAQ6CffVw2Yzo3JffDJk8+4fW5BPu5EMvV8nR0SwJqQlonDlXejYgAKe8Ypdd3JzSwEKHk85ZCZR7t8f+g1G0v2o2cHZVNdN3I7eiW35aXJnSznVXjkkb6Qe9daQaTLUNntZnL+sNODIJ7lYiMbwfjKFd3pYe7GVh2eF4f9GVnlFMalgO4uBOYflgHQV3K3LBFy7O4BITcO3p92zzFgagkm96SO738q7GvMNJRd3Gj0vmhCCl0pXqJrQnl1noeGwDp0iD3dndz4XapMmni6ObMOdRXspvbtLRkSnxkUasUq2IPcypckN683cvPKB8Ox5FpfyN34QJio6E6LgPOzbZZSaEvpa8SaDmFu7WYTLqNCphyVV/IgW9qynB5FcpsZcifxs/0K5K6fXpewc4gBqvEOk8PuZfukx/fpbABQYzoev98W6WMMLYx+cFWbeNFOwNFaprlQly/pKQBCZw7bu4htT5nwKjlDTaV917ijZU/MpX2uzpZ6Nr1sYdmNkaccSh7rsKaU8pJ2nq7E2qTSEi43V8Z1ZZROmpRKk07JPmY8k7I8LCkwcqG3D0UYBPN7WxeDvk+HmSqSCQHge3Qphed2qWCmcsYp4EzGeyy1BEY3ZQCQFMmd0inDaSXvReSmWZ/6tunX3Bon9dwQyX4EtA9b4Bgwt0BW5+54vznXRzs3OjT5tOMFNZgggOr2QFl67pUz+RQA8rGrdKZOkc0qJMoSuTfd43TZpa9uyXc21bPtTfdhD3Iz9dN1vBR2ne0U4j3J7VKayuS1MpXS2XkVyS2bsb0/yQ0B4nxzUgp7I/fie2GcYi4mlFUOtk6seX9cj9wwRXLzWbWEl7Qre87SK0luSAGCaBl2TZ7NUggNjOSGMDxsgWPAXIi7yN3H63JvHSvIvKi7EIRUxrKqOytX82kACmPmJqWdgjstravXJVPFT7tm7+iy86J1Q3t3fZk9sxu5DUXJrdOPv3d0fJSX7CS3sRu5fVJpF7d56cM7dh3mKyuR2ztqTh/JXfF9hsn90W1TRd9xTO7zp7n4a51f4a14Tt1vOm6IukezdCd3Uimtu2Y0dWN3L2qJZMeHF9xZRQgvEA8MuYF22qBI7j5dFwT+ncO43heEqxAAShT8Mr/DIffMNADxPQuV6a47EJsx3KOzFMk9Z8XqLjsvERxTAL3pvZc2dSc3jyW3/ehPf/7XX49uKonunuR2GqWdmnmqbs2ff/6PP8wxVSA3tA1f2RdyC3shNwCI88EeXq/knt/iZwr7qNWVExLwPvv2UyndLUK4RG4+86BylTWP/jD8nqCc3RXJTcgmTa91a7JMIXliIMgNEfD/iCQ3BNeuzFPEX3xsti5Slnx+zmU+LqF9tN3EK+klSvPW7z9r4elY6aObM29WWSIP6cnePXIXrCjTF6mwonRTt359fN3Mr9+5IC2+HHimdKjsAYlYTMxkVqdUShvf+2ZK653fH2cUFZMymaRQZ2cJ5/5dXkYlfbWREY629DYTya/d0lveHGgYVYfnvYQ26CArSjjlZ0/fr5d0PaYEIhwX13sBiEcZcttNprpvPr67+8beBlNaygqPsMkiZ/zGypV1yfYTew3ucNY9oB6PqmmXBm5CiXH6Vx3vNyf6MKEkICDubVvHFb+grzjPXB2HQiVhRdyfaySQUykQeoymIhd5lz/98g/bwyVyX55XJrlBcljvy/s9yV1skHfwq3qdachPbpt0FcnNMfMYLieTYeGoX1/WJaNHm1kRL53TXMyVxHicJObvygD0ylIt2Du54zPuJHsjd3hkuwG7vMYanJUnlLz3H/+63UXgIL1iuR+UfTTUj0AhzagldmWy7audlpqNIx7MkfKSjOnEpOTjzP/emhATnY5dsxLXTu4xExGtwT2w2QFUa6ZoBnSF0nnj8YiavkhuCoLc1BM1mpc4NJRNsysj+IYU5h7wyPx8QTAWE0qLojs68uNxP1mUSrLWbt3leffKuKFd03sMWzdyE2GFqWgL2/JFnUnnWfLIXHwbKLuT28lnFRZl0rLxLxPwUp6dUc/D9rm7b+zFyyp+jUzkktPei3MCnZW8Xh7B0ZaKDyQCQL5/Ka+3tvTX61SQAIhnl4kq7iP9dcdP2n2srldsMXvuo/fWOVwWVi0xJWtv7DdKk+37v1wpNbFjITUWYPb452PlFIWseZ8/uHTbQaNLHtblQD8kQH0VqHZuUg+s45T+zkq9qw/XCAFwDJ0sdb6oqxRAEoeFnRPSOYXSUhMLCoQxoScqEFqKknbqv6a0fHmGZ+ok9/0yTUQzufcyWL2Q27T/p+08Xu2Xiy2VyW3jJ4tzzcZPTgRNSV4yyZpPhNPGXPzplk0T5m28u2zZigmzl365c2aD0Z94xdd3b+SmIHAPO2uqnP8DgLZjrQEsWUOKbGVyp3/S8cvNcy9cPn15/PYjjW1CY0pl3Hb2y88+uB80sy8oXfDD4Xp7KiXc9vBCkhncpNRi2TF50od3Fkw9tGPZ1mkfDL8URqGwMUO9flntV4Rq/zLugC2/s8jojfm+PcDK85ekopfoqboeOyNRcYVUHxQKgkJBDEMgEBiZFcVk/eePaoTH1hpZIpqSCzev7rKkQf/03oN0L00pm/4Rfm5RzUnP/0gYjo79+yKLsqh0S/XdyG1mHwKeafNfDtl19pLqr7v28YIF1788P23N5J3TJk8/N3r0/707fNjtyYtnXJm9qiFsiBQALHpqMwkjeutW82hzLy4NiDh41lJMAIB/IuJiQgT8a/yxdicCkFLUZ7t80Qg2NRUo5O2HRv6141c394/Zv//iuVEYM5ZfXPv+R789M3XUeg9DZF6y9sMHZh7PxDvw1VAlIyx40uCS4e2zvm4+fHnzsN23jvIz+YyUb3APLMnYYV+zrO+L4X0CYbX5+mifaTt3SZN/4QhBoKqPIJSzC4VBoUAQFEaFQaFQgJHmKZN2peXML3Yu3fl/n9WbSuTeu6FL8D2f3AvKjCBd5OaP/NetO2v/MVqYLGn13cntLNpllPzFHzSkdLpOcl9dsnbEyZuzcomIz6tSp5T1N66MuzfuzqQtY08u/uRfH068u/qAXgXgixI+tAzX92K+RMSprfyiKEEg1D7zvhxCxnkdImLXu402HIfBbxOxQRkY4rxXIa05snDWiv0H9//1yb/3zDw898i6uuaGYFRvSVvmLJ7+h2nDFzWYS+T+fLGFZzKlLCN3C9lrMnoWbFnyh39fmbR1QZMya1CY+EkV8erziH7AwJMbgr4W6CSHjJ6lkrxoLwRAxCDNOfhRQYxh9KXV2wVFyZ3mKZXh9OzfPfn5P//2t98s5JXIfepeV7KJ55EbXrpX1nfk5/JYNZO/5Ns//elv3448ImVfzcqkVF++1mQrkjtZ8818frKT20ql8tJ/vpx12d/ppOW7OAdX86Ej2bClpvH+hPPfPBx9cvSKZoXrubmojoyM9WLhgWjFtFjp0aCmvDf/8zs7Zs6eemnZ3qWT5t38+/U9ay7On3z9xvn9o/fvXDNt8rDbY65MPrd4xpLlE4+vajXU/ubJlwst2IMwlbLrlDxl2rTr3U8/G9OWM0pL5H73nDHJ4+kso75qYIdTypcQ0kt/POVycWyOsF+DnbIQHGD1gB32gSY3cuX7anq0Lrp9WvTCHJq42KXI6IkKY54o5nZ057whfLPZgv+W4vXE9Pn/fDR9wvhx/zeFJRxPuXDp1S5FCap7JzeaurKs813kjh471iw8cuvX38wtTjB7kttYlNTN30xMM+vvRaOKtu3MtRwuNEGw0WCu0dsdxQhM/IXYZdO2zB42be1Hwy8dUbp7HbjTD4S9uEpCdGm+kHkgKQA9N0/rp/3x4pUxY8/sGXZr6K2v/r5k9M6dY7cO3TP07vGFB+pq+UpNJiGSOeyW+mvjNtWnpPs+3nuEa4vgkFyXpCCXFELtj8bwJGSc3ym5392fxikAoiN2R5nrSpkseQSB9J5a5fBKQsz9QqBvvtqviQEnt/TjGY4+HhoaM69V9hIDBGVYUAujnqg+GtVbJs+sj+QKuXtHpCYpj6eU1n/xUbM0JW38/ZqiOYs3fu/xLm0Hac71LrlnHykLj+oit+DdR1KdTnn0X0NNXeQu66nXyBrEw7GPT+hNOqVxwaY0u/SvVKZFZTdeNHqhowcJCED4jLGj237/6PYycx51JhYu3+fydWEv5ksIFywPuovxyubpyX3bzh3fvuvw+Mb2NqH54IijUkVA448erk/aWY8vC5YDFuybreVaMgW3KWruPvtvXtOYAMBqtLDT5lTdN/ONSqWJd+jPS3mMnyXPlM7j6yFJkuqHul6vA9vkFdoB7cHlx48nULBPjlPZSadqbC/eDRbs7AQyqudbwrb8ll1KbNq4u12HPTyUvEV/WipV6pT6tQ+Z96hOyWtauqFL8CHN9N7LZM5ugJXIHRvxyMNLmff9ZUWaV5Hc6aIniXTeLy+ZdHVn/t8oT0l6dyO3c/4qQ49TUqwcd2VrNw5fMmJK0FlK6Vk+qGtreiX31Ac1oSK581tvjpitjttU2azDoND4t35+yKi128Nzh3jUBpyOwitK5CWsK3g84rOJEMhxnd3flS3l5LbzknVfnDDrksajn45oVYbLyf3mKPTSGHBy33vS8ZEM9Incuq1D05wX72ZNBjG3PcKoVFaAQDz2chJbBSfMCTMrKcYTnx0JJ5U63th/rCx6Tq3bsrqL3NC/pvd8ABOMoKLk/nB3bf2Ckb+9KEx2Su7y1JKZErmVsW0/OTHj4V8u1vMqkRvZLp429HJqiAi5ZeHBh6MnpOme7F75qKHXCI4pNxpK5AamyXMjwBXxRXJxuSse3/doXR4BguRHVfFnSIAIJMa1O2G3M8Ej5eROJXk1u//f9eHLH/xhxHgTmylH+b9M7o6OX/P7NqNsO3U79SJ/VwBcvKiQEdx8hRwvqcWvXDZhn6vNO1jTsnHzRqkUq8btO1exLoLKxq07yrjBndhr9W5yabKn5GZI6ln787/88acPN9fydNKK5Jay5DYplcIVuz+fNkdv73SETju7yE3ZLh7okTK1aLZjU8YDGFJc3nl+eJMCdWP3kJHNvZEbLnpY30lu4OrMJYGnJndmtOPJHorI/D7Y/aRsdUM2CKfLPA0BPF1Obp5SaamZufzTr8+PC/J4aZbc0reJ3OEB7cfRJ08/a3b14UACjJ89SfPCXFVuXUxYI2zwxPQ2Rj2GhYuXeQAh+eZLpYUU1jev5KnJ0yVrxy7IdUlk5Zleo7ddYzXleTD8BiVr+jOt2jJ26gGjNF300sbkLjdfOEtxKzyllHWS7fI0SpYvGWUuXnheTRXm3KRy5vXrC8JFvjKvwCHXg71NKOGKb9ol5Q10/R0fOr3ejaPnE1Jtb5F/FOxeMBbeu9XeRW6lUvmMx6tSynvN9Ov9BtuwFeEBzZq7oePJ7/uUCBOCDTO3vKCmOgQktzYoaGuqjSklJCuA4vMvJwGEobMTTGVO1V3xlEmdMnr2eKJrmTa1tFeLjOxcmSMORFxVicw4B6SOjVl7LrlLPuTl5C6fRgQmt7yoYBB2s3I23N59J9lVgWzX2mBvOjea92VZasZu5M5N3NmAF2+gucFGVySBe87oHrX4GHLDcnI/g/TbQ+5tEwbWWnKv4/GXfcvyChctWGZ4vkID6YygJipsXLiKVxTxELpGz7Fjck/YWC65u5E7fXuWqIvc/Am9TgjCJ1Sd5CYArQ0UlYukyWTEoealJZzeya3k4fQHvZLbcKXtReSGjI+VOHpw7UaeuKgyHB4p7EVfg2jjV22dxO+mLkDO/JNBLCxQVOCtbGZMfdqxu0fDLyR38n+Y3Bs6nvQxhTGxbMp92QvI7eLHYrGosP6wBL+vmYjZ3OhdOEuze97SXiS3XWlcsyDTpUuvX9arnsYb7e3cjwTucKDkBGg3xoQxvqWLsQy5u1Yoy8JphUKhsAe5u3Ta7NjgC0u9EewKOZmctHtTsVDpgRmCXsm9+Yvazm3l5IbAtvi2AM9NUUadqjzNUP6x4/fh7o/6vVt1Px5yD1uhHVC15NDTjj+15friHSZZMOWq7Hl9JWDBIoh5BJ7TF7hstAcmN+fEZS4EIH73li6pY2Q3tukyrGZmdTyd1D9talkkzuqpbKVaprIttilDUp53SRI+kW3u8q50JASIa0V2JRvNozPpo7FYLGkyMflCknaTh1OWrVVmSaeVPKk0bdF78GJSzMjrDM3RycpSBHOXmhMvPTRy851zC+M4UWHLWrMLQUCXGZZLf6B9P9m4yszjOmQcNt0FW+MBTygzu8fGaAgI5DKG3RW95zC567tr8xsm1iUAcvMsrKjoTCfMTiYZtUT6lpAbZoet4A5oaYWF3z/5VaurL9UxfFMXrXx+jBkdxtU89NEL+G1b8t7zjTqcxVmZlo6ce6C+rUZY09YyftecOZdX7lp1uq6+Vhhs2TXrdmPXIg41YQNJi/PehFcXXHh0xaStB2/fOrjnyu0xe27dXvK5pSy1WCIpCrM3V2ni4xV+gZ6XxFmkTVJTmu8qm4iJ+B6+xazXe6JRxg0gxjdaOpP4cMtUfN7d9KtUnSCD02+nAUHw37++ZsvZs5dmzzx+eVVTswAnumafHKlg7be/ebh77eLh+6fv3z954tgtE2buavLwFDavLzXqSgyv6iNLs48mXprcrQkA3Uk9W8kDp+Rmc2dLi0ibLC9KdzdAgNlhE/wDSu7MV0//3c7pS0BGYNOEXbbnlsKxxWJCvUeg9JvsZKdrambGYQ0kANk4f+KMG9eXX9x5ctr0yfvnnxs9fMaJByNHnV+8ePGdq5yudql5Z3bcuTL//M4zd7bu3bv57tRDO47vmjN3/LVrB8af2lEWSEvYpFqzJ4YT/kcFrO+KIIqT/3s8sZjHXF68MusxG/WMMwCLaCxq1pdQngSi9q5R8pJOzwwZkWThqHt5kJjx3rmdoyevwUU7Ls4/N3zkiUcPHq29eeyLr9+5+Yffjzy1Y8GURYvm7V16cMzJneeGzxg5Y8bixbt33/zqk3lYyCKBICF+ecndiq0l2hhODJ9O43TzRiOuDaTnm5mvpCbei+21A4KBJzdx6f/O1Tj7wG2oWbZxrvM51akIt7LWI9BHzQUyp6c6ye09d0GFHSvEsftz6gRJTYAjcij8KWVSaWLerGl948Krgi6/JNS+aNLxA0JpVs5WQCNw1m6SYGxu8Xw5AawRjszL5ClzplgfrSjXK2NSstsi8vIasLRIlGUVEtY9Maj3RzohKXvSx+/VF9iCjC8cDiZZNQDIPnSnDgRaT7fWtjW3NbfX1bW2travP7Bq+/FxKyacOrh1z9D9s3ft2rV9167tC+fOnbvw2vgL61obLzSt2nV/5qImXBUWGbJcOeiV3N1TFTDkRjAuc7lcLlzPCmd7xYngbTacdF8mswXyb0ml2YEnNwjVH/G8xDrjs+DO3njY1nuKWIg00SB+44tQgJ/sImtgfgsrG2lrKVYR9kTc2tUspKzdkkeUbvqzNx/Ti83jBOXKmEAv8Fjy5bVYuxLRA6jSe6JCIVbMgx6BQJiiyyr4loWXbzhrFr9sBdzSxRQuD1tP6TB7cRGfhasOXzuAi0mta2xvrg3GPMGG+1xcBSLg0HDDyjQ/2FDfgiv2nD68atWBeq4VQOQLKyurJbxfY3KXf4+GnGyJwMrAOa+w2yxBoT4EOfc7IPBfWaYb0AklBCFlV33fVwDyz56wvbcYGXxj8pYoLkSkEYOUsGxoFdMaMrjiOUDF2Val29I9Lpzq0TQsP6xyB+TcWCxmdBLdD0LFgqwwow9GsS4iiBqjtbFaS6iy2y+cstn40uTuOkp6fgcn4/Q6Xbg2oJimCPzMkVa5JJ7j2Gw2A1mspVm8TEhhHlLWQj7ny2MpIBW6KqcUNr7f8cv6RJeaBJ9L7m5DNuhrlBCC1O0VqYGV3ICIi/ty3cg+ae+B3uJwIIQ0F/tvx5RuCLIWdZf6YtgTZHxFUGnH592Wyk3D7kf23MZ8Y4sJhVJ5GaHLr9igrxHGoh6+2e60Xlo78ubkCCimnMcZasr0l1MrTK9MbhKSzn3jIp3VplFJaSk2RBFU6RK6qmF2lprAJYQEvZE7+cenv68vi+Z+SXJ3Vk/uD/SVZhBA3q2N2gGtydznCFGo/WR4s6iXFUpsz47pseAWAQLSeX5X2JR0a4PUycnJ3agrX8ZzJPcz4/ksuXu8hrFvJ6RtwqjQ4qJphGvc4CJGOMcqVql9TplDHxReOHztyDq+PWw+9vPf3Pj/ZqVNTL0vs5mvj+pjwiLahk99ebWka0BJkF+9NYvKJGZ5Ee+iSZL9HpRdK0GyTybp700tcd7854OXJzczHgTqxOCSGwGY3rPZ/0L///5EYu59DuoTw70fv9cm6iXvPARQF9ULagQa7OnsNPG63kY10yfNnz5/+IzFSxavGT1655WTt4ZO2rxxwopLCw7du3d1yMqFOGV704V1uK5he3t7e0Nbc31zc0tDM4v6+vZ2ZktLS+P6Cxeajhw4cO304bm7Lt9ncPX46kM7Zs3cMfWqMHZ4zJ2NmzfO27d3wV4GmzffXXFp5qUpO9r1sdNbh+05tWj2onmbF3/07sH9EzdNmYex8e7mO0v3Ld1y8ODWoWNvXTn58J6S6ENNFQSsh5eyHlfl+TBfHJHH7lTwWyrfEdpwYB0/VyaQEGg7Nn/vihUrVkyYwHR/79m9mzefOsNg7NixY8eMuXLlypVbWyaeOTNmzK0xE8ecGlPEraVLb20t4tSpU0uX7lu69NSp4jjdvXv37N1lU5YVcenSpUtTp44bt2DBzJmri7h379694/dXXl5ZxJAhQ4bgG3D1+PHjR48ePTpz5syZizAm7F06adKkSbfG7hn+0QT/gIbbC3777cK+PY/U0nebevXXQy6PQO8RGF0IEBS3xto18Vx5dMHlXSuPb1i9Y8G4KcsWzZ5w9+zSs6f23dm3786dLQeHnjkzds+ticMm7xy2Zv98XCF41PIZi0cuHv5o7dolS65f3737vUeP3nvv+okZM0adHz1/+rbJa4ZNvH1r7ME7+/bt23dq88YJE5Ztmn1pypSrNcHTS48OuXf8+PEhu/DA44LBq48e3TBrTk1Mf/zOraGbZs2+NHXcgqkjPxyzYsqyeRs3btw47+6pfadObdl6au/debPH7Ti6YdscKewDufHoCK74mTpeJby81INGgbMXDiBv2p7vWpQgCOAYunXCLIypU6demr1p2YqNezduwhRduhST9dSps2fPnl16987ejXc37z277+yKzSwwh8+eZZ/6vWfPnsX0XorHkPl1586drVv2ndrSA7gC8x0GzJ54mCawwM8XZvKUKVOmzJ59qQwzx83exGDZ1GEn+dwBVUsaf/FkhBf0IcifAqc+vNZbLlNApWpj0Zgny2SU1gqyXW8ju4gv03DtSTtXm/JzNQFcqzar8XM1/rBdm7LrmBzZvLTRZNRHsdk5JhAGa4LRhpLQbqqra8KlgA9cWzX38KrtuxZuv7xyzuXLrAS5f/ze8XtHD109enxXNDr+1IJ7R+/NOrR69eqjR49u2HDv3r2rl3ftGtImFN6ft+h0U2Pj+pb25vph8ze0mfVMTRmlTutXZ7MGWyZgcDiyWW7tBU+fuI1rTLXtcRCwL+RGtdJe/SDJnITuktz4trn0Rlz+BlfYVMlkKkfAK2NqbOJCpyZ2VSdtxgE9zJJVlKn4i1Hb1tZQQm1tLfurpiZYU4O3CoXRqEdfKrrK1Nthsm7o7OoicK2hgMzrLBpQ2ZKTDNgKoawhMhCQBVQMFFlVy6oG/oBaS1p/8fhv5le1B7ADe/bYBV/l4xBw8aMxoV7qxsnVkTWvJ7tscnG1KCLyBlSGrMOg8Wv83DCuNcsUO03qUmGeUpfCBRbYohvJZDhl19ntprC9HGG/hutnagnjSsBZhUbtZwo2GVSBgCzjValk3Ggw2KLN2BIJDifClPwU4ZqfTpvTLKxpvNCqs4k4Tlz5QLZ3bFM242WLsAZkGYdBo8aRMSqVyiCKmFJ9E9zY4h3cGuiL5IYonNRW3sQWASyX6hAguxmXRk6xRZa14ZQ9FWaB6c3lapiKskxVWb9GoVCXSmBnVaqsowtsyVu2pJCmOLAlHjP1mvGwp9gqxQzwYq5UylMy9UlMpcV/ZpnU1FVMOJnEfWD6l9SGeTHvgNpsmv765Of1faobQkz4uKm36qxIKwjGPDG8Oo8g4ISN7q6bK+8953Fp8leqVIsXJQqFAlOuNs+UqnUxpWqxnGBL1BZ/OCInKzOK8HG0UUFtvdrni+CNxS99nEiCY44FBe1tKV8uL3G5cIG7eZOaXSGmRi6ulktSRNlrjBD3KkNfDHRkbxy8cl5/ChAJhbTyNvhKBgB2UkkQCDLDWlY9mCkS3FlTuAulOsNdv1iUag/jKrRUEa+eQREnaaQGVHKv+3nHX9f3aREHnBrRG7mhRB8NRmPmoocIty2Pumb/zxmT3ubjsLNYba9H9tyaw69gF5PxBpbqDGM5J9ELhFGhmqBKSdLIKRP4dPdTdT91HweWRNB9f9Or30sIKA+/t7hrX1RGYmvMy7YFO+v4VtzW23c9DVK9tP3qgzLAEcoMuSN98QpEU0f2Rm7kqI0JogJN8dZqW5zil88R1zuBnzfUz5DbI/BIn02qQvqjQgE/XeYuTU1Yli63Tz1jeOz72BKFfff6sGhBNEt7KelsHfq7xZJ+4kcfyV0sRI4GOhVbn4DJfcDXB69ACJY96I3ccqNAKPQYC6ylAYacaRd8Ocnd8zM7lqUPPSzG5Xs+Q269MGhJEATq1ixKxATBmNlJdq1Ho7tTeHQvvXnNewiB6Erw1Y9CdrOKqihtNJ90/CcMqFeWRBWFQh/I/Tp2bgbUwEvuOc4+HAjhomOnK65QIuSK1gSjHkWxxDVIKMySAS6LjMkt4Od6kpO0Cz2xqKI8QbD7zNQk+ab6BpO3M69IRQRQwqGrrHkk/9jxz/rCYC+k/3iw/ldPf9jQF50bgSk3K5MbEGqBUBAzF92IEaFeL3u91a0+IOcRPEtuxLEIPR5zNxdt98QFTKXWN9MN4vKWV59SBu295ElSfPPkF0dexcH8fxzhT578YkOgD+OFwNQHp0UVN4T0gliNpzPoAtnX2YjXf6W9GiqSm0oFhYJo9zg+98VZyTfXN2jdeuFVVT7qSNJa+RjnO09/GCJ6xeb+h0Hve/q3uY6+zCfBgpEVyQ2BzxOLRS2dUh3l1DzfW0HuvCfoCRq7p6Nwjzqke1N9w+VTlRPVr3gUJRD2ksjL90HH97O8r9jcjxwvvjHPCSlQ7DnTLusbuR8trKDPEIDwC2OxoKk4S6MBFKv0PkaZ7ExmU26vLU4Ui1a7LpEFWdMR6pyGFieBTL0jyJp8S9NF1qG1FDODAAIFj0CAk0cVfVlxZCOJHAKBPpqlmN1LVinJ4nu8iv7O5V516FkXM/a0nQmBSt+gUiw+GxePADg04dkDQWduHdR5gZ25d2Bcy6scIOE71vF0ZnnmRFT+q8udEVKlfhf9pYoGAwQJwNQuZrvYmQKFKiUBL79IsnhrYKkvRS9dBMpjP/G/0tk6GVDet84NBITlGTgRAUncgfI5JrNHd+PMMzeGKM/MCIvNotKN70ygW9ye0/NfddLD4t6oSuSGqJAWCGIeRdecSNHktxIEJirRed873eFQ+Q2HxVFjJC5E7HIcAcsT3jAjAJmNDMEp2I3rqOhmak0LBOZEp9cSM2hipVAYM7lRGWMBiC+/F2Y6BkE3N6diL8vuDxNHRkBIwLI+dT5QnU8sYj6wlX7xl6Jp/OJubNElWHpIi1HPXTmkWXYRZEyhqKyWZD7s+H7PaYHHjCP0KehOeWJsIv8kG3tmiwqD7OI5E2UOC7rDl+fMmTPn/tV2xluFEAmPM05Ol4c0y7GYILXjGX+nlXN2yRDuhi14uYg6Cb5csWnh9jmXsW/OHB5egEGc2uP3h+Dt9xvzBASQ5s0dwjhNrZzrZ26I8wjrCTHnch2zWkdIL6/Efbh8+XISkQQEvnVsewuP49RbEADlwtI5tcwTI6lbuRJ/mjMniKPuKEpZ2n4tizPKgXjTEKYLl+fUJAg8gLrt95kjjh9xMJ587uAQ5hxXF3rChlCf3sorzy2sOBPNCKPCaLqsWoNyR5tPZuQnfMa0N56UBkK6pMrK1TlCAb8h7rNr4z6t1ifRcDkFBVdUUHA5BYM/ELJpFKGI3yFPqLPunMbhkhv8PrlMIZLLNDK5TaGyctSqUERhkOcdjnzeofGFVGqR1aCwub1qQ0hmDgrbjQqrS6GIhzTqXCibFckENa21Qo3B6tSo4jm1RuLKKuKGG/MscYXfJ8/6mfPKA2qZNcDNikVZh9zH9RciXG5OolVz4tywV57VZt2ysIIWhblxX4qbz3NTnDjXHghp/IaQg6uxOnR+ScauLURS4XwkaU9I/LrjZ4xKhVVrUlizPL/cYQrnMyZdniPl+RJKaSaeMgUKKYtWzjUrxWq+MW8IbjBaK5vHOcc6nv7nhx9+9osv7Pihn/Wn//zqbz/H+OEOlhnqD3/+8x8Y/OeXQkzuqX/97p/fYfznh51WCKBs96++/f77779//Pi7X6zGj9/h3+KPT59++8//7JZABDi7f/VdEb/YgFsY8tv//PPb77//9ttvv/sjTnWQO/efb//5z28xfriLH8W6f333n3/iRn74/hsDAtA97Yfvmc3f//DzKbjP/D//8APe/p+n//yzDr8Qxvzn26dPnz79/rvvfziIH+jk19/9s4hfSxEA1NS/Mif89rvvfthHUABy3/m+iF/8IYiFyo7vn/6H+fzdz0/EESCyD7/9D/PFtz/8po4Ru3/9nu3j079Nz/Wp8A91+XwlctNEWOgJRpNl2m62/ULKF9WLIvxopmARcguWqDakFZpCfqExb6gVRLy1tV5OTbNDHq3nxmN14bi53VjgNQfj4ZZYRNPWEFHVtxpyDe2puKc9WeC3WArpeo9V2dIgUbU2c2Tt7SJRe4tB0rbe5I6t58ctLbGQMhgUzl3Ylss2tstE9a2aeEO70i5sPi2sb+WHeHWxhL+lLWJobI/ovtkqENXWZ+OCVua8+IeW1ulDyjaBhNtQG5c1t4k4DbWZnKBZK7a0KWlTrSWkCJrzslhUJIoKAi69QFNICzQFk8DvTuqTco0lnTcYTXGO0eL0SU32YTt4WXfKpHFr0lq5ypTKe5UpSUSncyXsOl/Br5O5symD2JFSkYFw1uoLWwS9JGNzP3j8pKPjSceTfwvxQuWpxx2PO548efKko+O8GADE+/3jDgZPnvy7HVNz69OOp8z2p9+fKECAsg+fsjt83/HDPCsC8Oh3xeM7Hn+KqxsF3u0o4RdTsYfW6v8wZ3zy5Mn3/7LTACWOPe4ofv7+IA0RGP+3H5hTPHn83S91CKD4jG+fMsR7/OQXm3Gf23/3PfPFk6c//C5KQUCf/O4xs/3pk+8m0gjA1CdsA0+ePPltA37dT/kF26WOjo7RVgRQ6stSn57+ZyF+6hf8wHbhSceTz7wAouw7jzuYA550PD2Oz7njP98Xr+vJBz7UJ+P69nMrIxWOIy3RGo9HVv5VThiTiGWGvNjr4BAiA0ecc4rofMZXCHltkkLGJrFyMnna53WRCW+CzokSpCSTcMcDNrncFpG7M6K81SdzuX1eV8iXiYRcqohV4nXGQzZfSC5yFqw2UV7McebEPlGiILEl6IQoktMJhUK/yFkQ+zghN8cpEXNUNcLmC/x43uuTyG2cUNxmk7i9tvCNDfqE1edMiH0iH5WT+ayFTEQutzlDIScnbuU4JaTTlrN6nbmQK+Nz5zI+d8hpc4c4Xgkt8sXphC1BSZwRuuDkWHMZDh2SyeTujDfudspchEjmEnMyK7cFMhmUCGRoOhAQuwN4IDR5q83gIzkaH5FT2aBLpbK6FQ632xGIE9mgsbKwgXUnZpwbfXH+/nmCCIBU9u7F+dPnz58//+KV0ykxQPKmk6Mv4s/n9s8WYgsY9+7Fc6NHjx49/fzBOUo5AGTNntF4++hzwza2a7HXz6GLDEZNH7owLYFQnB7LtHfx4sVNDVoCkLar0+dvY9rcelTPAYBI3j036uK5/Vv3TVrUkqIAIbmwcdIW7AS79dRKCwcQBHf1voPYf/vO1intWgSQW3j3Dv486eCpBUEnoJD36hbsMHtny52l43VigJDx1EXs3Dx69OhNMRtAID5+8nym26NPnrbLAbJaJp2bfx5/PnewTQUAyq88yW4fPXq2KQ8A0t0dzm6ffrAxgC0aKycPZzYPP79AGeqT59vp0cc5z94E6MJeqsZuiWBIrZJDGcIZSsZVEbJwlvSmUiGRLhmX6JK5ApcncmtNXtrAU1sDUq1bxrMXfDxuIa+0SyT2ZKTAlapoNS9LGkxcq9cUdotMulAiyYvnk6aINWzK0HalitQoFW6Hiev2Se3xiJLn1AmEQk3Y5LWmpF7KoctShphH2HJZKOYklaG4judy25UZcTgVvblhXUDsMGncKp1O7Eym3JwkL+5KJl2upM4VShkzbrUyQPqVClpl0oY4upRVwku6JHal15pKBqisUiE2JBW4Y+KcLhzKKVOFuFbnsnLtHKtBKyMDKd2alVy/26nxhyTqcDyeSkXkaq3T7eB6aVnYS2a4DndEnY3nuYp4XGGQiBV2bWVyk4RNEPXw9fqY3oHV/wLPY8YqNz8mwFMJivLr+cXPUQcO93el9dFoNMqPxjxGCdYiAkzqC4+RH9PbSUSBkBJ/Zkq68BN4PqZgPvP5fE8sRVIkiCdxPB6fz49ajDY8mwiYo2ZP1GyOmvlKMQSkO2Vh9uebLWbGSdRm9rBNmC1KMbYvpPhMm2aPPpYhIAEiTBoNT8zDN1vwBAhm+biXOAcHX4UnNnGpPoa7HfUI0jitOqnQexj3Z31MjycTdIHHbMbuQ6z/ksHM97CIpShAAauU+RzTR/XRvmRtgWDdxdXOZyc+KBsTCIQ902Yxk0OIIKIgpKzsLJGEiEQkIAjGVYwggBh/hWhmmogIgqJJimISnlAIICuJY8gICpI0RVIIR3UTpJXCc3WIPd8QSQGaQngzASnSrRMIBAE28oxAFAEJt9QTE1jcFE2SkKSsiBYTFCDExul1BoSAG58DUZCkACQJZuEdm26YcsK4fZJmzAIQO0RReL5IEEyYHM6bzcQ6M55deKZLgO5+BBSiWnGFb4gYywBTkASbL8jipB6HBzNB0IhgbRtsMtfKg25Vc/0atVojC2GTBxI5DAoGGh8TDiJxaPCnrFqjcuOzWJ0OxhVYrVFFmKppoQz2Zc1m1dmAlYnXjODt6qwja3BRTE5mxvcaHyNjCw9zFFkHc4xNxGTHCDkVCoXBkHHabAWcMwDmRU6cPsObcfpoPHa004bTa3C8GZGcubEhZrvB6XT6rIz5I+J0Op22jE3kzWPFH4kzARXTz2yAMdEAiS3LeOpqsj7G+iTmGDTZbDarUjhYc4BLxly0RuEwWJlTeNnPWYVDzsycfQG8f1at0Hj7EpKMQPv0WRUyTlFJobDWUznDHuyy/GHzFOyK6S2ZQhAEnXmo2UO6DGVUyazXaSJiSuJiZjCHEASuC1Y08RGY3CoES0H2BIzEBNFolgSluLGifUy4rVZU3j+mD0XLCwVKXWEtYLBojmGMHlSntYtEndGQnUYW2JV3mwLe5THUw7hYnp6B4Sn7J7sb1avxljWNItbMSsDiZIn9FjL2jq6lYEwcgiLYbBcEbpUqDQZbOJa1oOH9cQ8IbGJDsFtANTvs3UqfIeZoqsvqBVGn9yGJQKdRs2hPgiWLJGINj51luiHTo85WCVBu2SzuU2wD13ksWpY6qxwW3Y4g03F8+cx1Fk1WncSC1EtZyiuwu23/lGeXNmGeL6ipNQ5serpK/oLaGoGgvCoCoYnFgsZnZ8BHduojb3yB6dBe4hXP0Zc0SRXHpdLnNxbh/gbGEb5ku733vU/kjs0fZ3jGnw56PThtap+yRfR9AF6C3FZpbTSWfLam+srJ0twbJzd3tGyAV2g7x6XS5/8tcvfprLzhi7L0M46UWkEwGlUM7I2sTO5YrJzcPkFNNOZ49jFecVsqf9PEQ8TEy1Vy99919LZPP56fO+OO45mwJ5gW1uijvoH1Ze+F3NFycnMFMY8l8uwc4cwkM/nGiQcPTKuSu/+uo7d9+vH8juu31D1Xf2AOm6J41j4pOv0KRY0gquniMmmK1sR4ZM+oDATWTDG73zjvoG0Gr2/KXxWDA9vHE7mop8kvg8k9sNkpKsMRFMRKWdwgABJ+TMjPop7khu6dx9PiN85tYD1zf7AHpIqXBwL5dyeniO6SGxI4AWUs8xYEi6iEQmGJ3AiAgAA7Uj0jPaHt4gXlmw9+gvD05LekvkEVLwECuD/an+xBboIyYXIn3oI3sEwQrPFTJW9LwBUGhcZCjykCBEAzOmgfgBRfSPmeYvDHpIqXBv3gNr+n0JNYBEGBcYDz1FaEVxiMaamiGgJDeC2X23M6CQEwP+KHB6I7hWHjB3tEqngF0KNPenqS26cXCmP2we4ZhigWFNjJkre1LyqIegI994EA1D/Q9yUO6dVx98xbMBGp4mVB7pks6HHDkAqvcav62mJ/Aoe/J0trTJQiJow9u2wKAdo+2dyX2P9Xx7rzL6y2XMXbA3Lp/mCPRRzCLxR6+laFpL8hMQuEplLkOZkUBAW8Z0QnAtSOvenIqzfeB6hPSKtK948HxLjhzfHuNyzEwyr3a+TX6z9YLUJBupQ+PM4XevjqZ9QPBMiD9/X9lcPp+ZBfPz3YQ1LFSwOi+ydauxMDFvSxYFRn7Xuj/QdMbkuxkh/kRIUej6hCYGJh1Fyje0B0bmLsisEekipeGhA1fdzUIx7KKRQI9Iq3YuaEyW2WF+eT2WAsapFXkNDOm41KYkDIDY9Pc/VDM1UMCBBse/dajzAHjSAoMPctlr6/gcmtL7A+LkSqISpMVnqhZBfXpvpeF+iV0PrRwMxcq+gHQGD57Zwe+dR0+mjUJOlzk/0JQhkU6IvJ8QtGQVSQrWB9J6PDpNmBcfIi7CN0gz0mVbwsIEj+Y1Z3KY1M0ZjHNKAFq3oFlRLG9ByWtxF+LBb1VkoOe3+saaAyOGl3XxjsManiJYEgUHw6u3veL6tFKIwN1Gv+BSA1gqiHwzq5GGKxmLmixjt0kXSgzM+2kwsGe0yqeEkQAGR23812s0DEPcFgMPsWOJZgcqtiHo+IdWblBmMCo7vCTnDb5YrfvwEgyZY1gz0mVbwsIBBd3Ofv5v+XwRa3t2TahDK1QkGGCSSmLVFBrKJ7lG9+MD1QWhSavZ8Y0IowVfQdCEgmXdF1I7chKoiaB2bB78XdcwaFAjbPdZwfEzzrWMKEDc3g6QbKcIn2vRd5KxS2Kl4IiAA5b5QuVE5ufywWS78lLhQwEhVEuYwlxOkRxMz5SpEwq/YnFWhg1CgIZi/XvRUKWxUvBEKAmvLQ3C2c3B6LCXjut+MOwhxfENURmLrYm8sSr0BuOHWKSTZAsY0Q3Z8ufAuCOKp4CeDkSId+I+j0I4EAhCw4xIzoQ/WoNwCYtwiCSSbZcVggiCkraR/iYS1KyQARDoK6NRdgXzKOVjHgwGnW537T0rligwDIY902O0Cv+Rf2ryAVBE04GZpYKYzFuJU6pfq4QfrGAyhL/QHNO4dUqf3jAA6jr7l52Vf6TADIwbqt7fWa7b/+WZMCIeM5lefXxGKyCnsA6QwTb6A0BQiD0y+9Fe+0Kl4ITG7TqFmdXKYA9AoEMYvv9Zrtv/7RdoFQjwt/cwQ1MUGFbkGwaquWO1DkRiA2f0JVcv944Jy+oivqhkAKYSw2UGsiLwSkwgIhE4jgiAWFvAo2HIjG7jCJBk6Hkk6e8pZMtqt4CVhHXulK6oQIrTAW470V/q7Mm8UvEFo4AECuQChIPvPMIQBD5xr0A0Y3CJRXLsmrovvHg+nLtZ1/Q0oZE0S1r9VePwKCrEAQzQBImoTCaPgZbRdBYJpvSA+gKDUN2+R6OybbVbwEiL2PjF2fqHRUENUMdp9KgMCA088DQswXCvkVakES4Oow3cB1lwDKW3erBVJ/RLhlecPPAACAAElEQVR8ooUslRkEVn4wVnGVe3CAnB5BjQYClz4qrBDhDgE6u9I0cN2FwHxxZPZtyOhSxUsBNd+4VlJmIYjrhTH922IJBBAl9MKglgLOaCxoSVTYITNcmB64HGcEUA//Ovx2LHBV8RJAqa+Od9GD4+nNa3pQ+oZCfKFAKYbZWFRglFfYQ3pRbRpAriHy0Lm3xGOyipcAzHwzu6taXybqiVoKg92nEghEmoWxdIgIC2Ox9LOVHgjq6CKHGg4cuyF9/GKV3D8i5M+dKU3JIFAIg1HTW5HWAbA5SXjRmmieUgZrzeoKiVzJc+tMA5o+CG7fKXo7opSqeAlAeu9ke2fZdr8wGNW9HQGUbE2wVDQYi1hNwSDfQTwruTXnNZYBXXGCB+ZXyf0jArr6Dr+4agOJlFAo4L49Nw9SmphQkHGZgzG9rUK37t0y6AbU7Izq1mb6oZkqBgp1XweL+fggnRQKhYrB7lAXIKESxAQGjifo8VQo4y0+s04pgwNXuwcBVPOO4e159qt4ARAw3Zxb9NqAVp4wGvRWIgtRrJfJhO8QTOFL0KM4D4LFyqOwWEuTqZ/aVWqVLRnKnhP7aBUzSXV7y0O2IabiKP6b4EQFwrAj5okZC5AAEDHZugnAZJhC6vNqqYQtN8o0DnElYKY0KMKf2DqrRGc1X1gsnwpQ17nYMqx4E1sxFrGFkBECXaWEOyuNAgTSX2mYdoqdZgcC787WHi5WXn3BFBd1/geYA9l6rsXRZaq/Qma0KLbyJbupc6BKNWsR61kOi1WM2V2IziKxZScpVV4pfiJKh+G6pwRbmRWwhWuZ45hxKF4HAQlc/RQVS9aW3ajSrSeKtxWVTtx5J8s60ukDz5Q8Zv7vvAedOnEnxxAE3Zrqs/QiqMy52UV/OyhPC6OxZ/2QcG8oiql1yww2vkySgBBQBFNSmilfzQwCxVavpUiCoN00IF0FUp5LoFDERrtlNqvcGYiIMwYRGchyxBmuV5xJqUOcpFqe0CYl8qSdU+AqM/FwUmZNmTSUWuon1eaaYKs5KFy/ysORKE2qeNioiSdN6pDGnJTcP7/OY+PxOL60jpOTSp1ypUkj55rUcrU0XNDwUu6slBeyJZOJvM7kLSRNXklKGQg5koaCIaUQ28Jcd8KvKOS4irzbz3VZHZoImclyECcgovI2EcplIm5JQiR2J/IkiudId0FCh7/mQUospgBB4yLcTCloBCkK4sK+eAwYOlK9p3cjijeW6hQIqHQ/mbLDSAxwEWXkFhOwkKPoeEQCcs4EyGcitMsgs8qzDqs7qyjQDn+Ezqa8UJVSUVm7gpYluSRHqYvnTfacPJWMxFMmWcjPyxJqU6qgSnPlMqM/JFLqXBKdMhIKmzhie9Lm9puyVJbHJUU8bYhj4sZ9Om08r03lxFrcdDggNvhtdMCfcTs1WTqfNYTcGrWECjgktFeVEzsDEYKT4VC5TISIyzK0mBOxEgknDfO+AhF3yYE77obWghjRBSuB3GKKDGHKABISBMk+ygQTM0NRzENEsgNBQGY4i7ICvc6rktw2regXCPN8YZRfYbEEEPrDLQXl4SZXeFWTN9C0LptpWieV1DXxJQ3jBS7PulpvurHBIG2pU2vb27XZ+saks66FH6ldJ/AJmmpz5nWtzuSFxoz2yHqV6sCRbKLxgNLVcsFYqD/tCUXHNxSSFxpF3AstXs269qyoZV3W1bJOJ69fxyvEBMLY5caocOGh9U5Ze1tA1taedba1cgvBdml+xt2FXF67J66ri0XU9Q0RW127zNfQGI4I63Q5Tz2voG81SkyNQZdmfaszU9cacLbXaZztdXZRQ6MpIWiM5k3rmvPqxlavuqnV4G05oEnUN5kTbQc8+eCR2rj5QmtC2dhiCx9ozGba1yVFda1K3U9mGwvC9Z6EvqmWI11XrwqvrwtkGxuz3pYmra/uiD3Xds0Tj65L9j7eeTXHTWscLnE4LApppQqaF+PR3HazmLu+Nq5d1xLJNrWKbHXrDYnmOnVcWGeiefUxwt/msSqC5jgnJrAVLLGMRKpX0Tq9guDyw6QjnaJlZqU7ITXlQiZTJKS0i8TJpBOpeQ5SJeVSGSXXKlJyC7lk2OVOmiJEkhegtNIAUhgVpIMXtkaSSXdCp5TkTaZcQcfjWKVGFeTqdZSfHyazFrvVazRafXx+Qm6OOa1pYdaaDipoXjAcUjZIxeoGvsRZW29z1dcE3LX1KTq63mI11gmt0tYaa/hCS0R2oUXEWd/kyLcesYfWn45a25qEVuORmkKqri1vWNfOcTY02/K1waw7WhsmjMEUpdXr5A69MhQxRl8nohftve4vvghyHkGsclls79y6SNwSs4WkRqc7pczQ6lSA9GoydCJgcxecHLFcxBG7JRI34XYTBE1CJKYpmnSHrO6QO06LJW6rNRQPWfOSkFgiyYvzkQQZz3OsIVck5Ob4QjTHmSPjokQhIsrRCaczlFNx5CGv08cTCmprhG2tJm/G5c55OZTEa3NLZBx5weAZzm1M5cW2QCRkk7lCHK/PbZOJCpKMyBrKyORymVci8QbitEhUICM2VyEv4pARpyskEfnkbl8kXog4CwURp0AmbC5awpETeY6LiudytMSVp+UJ3NOCmIy7abdVHqJDISthdQfeqxUD2mqlqEKBsLryJJnPFayRiJW2BfKEzSEScwwq2tHE73W4YfRyY0BS16IlG9rsYn27hUi38ylNQ1QcaI65fMIGjiQoyIg9DWFrus1E65r1Ib+wJq4SNjhtDfUOW6wt7NLXSwvKhmhIWV8jSdW0+TQ1dSJD23qNV7heK/I0mpyWVr7LuD4asTe3iXQ1rRl1sEWhEtZpObEWu8+y3sxJt8Yi9tZajr+h3asKrjNkahq5zlijLhdr5bnMjZ54sj6aSNYIfeH6oFPRUBMICOuzTmGbOsFvsOfN9VIXr4Yft9fU5DQN7U5ZrC2QELQFcp56u9XYbBTzgvyQv63B7WjwSDLBmlxCGHTKY21+2tygJS01PKitsRCOhmhI1lATd7bVcFy1DV53Q7OfjrXZKV6dhdC1xuKO1pq4oX6hss/UhgA2XdcXJb8oGhMan31QIIJivTGcFyu0EUqRElkV9gzKSrVilTIp55iSOR8vzeGY0pmcSa8qJPWauD1qd2s8pkIgasklzPjHY5OYYqqQyahyc80aOmu2UzJ+Su41KeM+rDgojU631pQRa5UGUqFUoIBSTdmU4UIy6GlojTYE/VqeyKoJe0MaZUac4Wbd3uSpzfYDqbyEq0vk7dxInBt2ijU6hzWg9Fu9SY2Vo+Pmc7qwyxXW+axanles5gWsWV4gJDOp5d50OB9R6lx5nikS0lmcVrtRJfabuaTBYpd7LaaCL53OudJSn0Rq9sZNfIXVrk+FFHzB8gVmY0EWteQifA9HIhVkCjy+323na0J+vl/sMKfETpM903gtTPZixoFmjc3llts4ebnTmXNzDD5SZMjIE2pFXMLV5uJ+bc6t1ubcWa3IquJm3By1wRr3ZwtyhyEnNhhctMwgIm1ZEc0JiIhEwGkNiUTWQoYjd9uccRSRuSiRN0FHMj7apeKQcVvG6sY/Ml/B6rS5KJFIQuRkHCovSlBxWwTJvV55yCkS0yKvhPI5CyTHFqcTNh8dkdmovMobD6kyhUJAFpfLAi6rzZAQO7M20mdgftxxjdPt8qvi8mwgIg5oOFaV2knL1Bl5hKuIJ7R+SSGlkOf9Go5Y7XeSDn+goEo5rLawJm7Tqd0JrT8e93NdcrU2Elf4OSEVN4BbkET83kJEYctLFF6578iF10mnodm9vWjadsZiQlOFvPMIFEQ6KYdQ+TmkL+AlXDYnmXNy6EJERFpFCZr2RUiUz7sJq0QMxVaaEItJaJWLERGiESHGP24aEmKKIEmawjolSUNEkwQUkzSgKJqAlBgiiqQggSeFBIIUIiBFEYgriLZdEAQ9PoQQwcyMcDQ8VsVya8zSAMnOQZhZI6IYZZf5hyhAEwghiiAIAhEERRF4D0hQWJ9DAIkRoGgSEQRJQJJGCPeLIClEiglA0GJAWcUQiMUEElsJwiqmEEVRBGHNbx1iFVNQLiYIq9VNWONW6I5bgTsvp0KROGHNJVCBE/F5GnsjN0IK+3pBllLzwyij9IsjSa04pwuH5Nywi3RonVCmSUBn1klGDAboyxqsuaxDXDA4rCGZIQJkhgiUyUTA6bChQsBLu1QyK+0NhNwqmZzKBArQFkgAnywCIxkbFZd5iULGG3LjH6/NRTplCYR/fA4nKqgypCTgFbu9XjfkBHKEM+ACIocI+FQ+ypUJkC6vl4oHMiF5Ria3qjJ5ymtwETZHAooUNtoVwD9ea8jhsIodigIVUOQobzZCRQwZGFHJSElWFgplVXJrxhGHMlUCyLIcwNFkYEQTIPNZlViiycpDWU2eMnBFSKW1EQGuF3q5Bijy+8k8l2uV6LRxccruo2OnNXQf1xYIADg3LhWltVcoFFZYw0GAsohsPoAQO5cvM4Eg0GUBYZtDxYkzZH7Bni2x0+vySTLq/NA5hygzRxgENXVzhTFzvrO1ohUENew3pOV4ToJnIcWKZ0WbBgLdTg2LE3QKz59B5y7Pjlin9QeWTCt4vsxMeQBr0kCLNhIUwiYW9pyoeEmseaDTSlLg9iq5gVLvpfEzSREkRZA0iR8aZjKOH1/8IBKAorEphACQIiCgEWO9YSdWBDv6BEngS4F4lk8ggI/BI0/h+0FC/BgTjMGKKNqsGDMKhRjJAAg8YWMmv0WbC4KIYk1hiISQoJlvGcuTGBHYioBtT3jgSNYOBbBFCmKLAp4GQoKisGSBgESMAKGwnQcxXQOIIBiBQmDZABABSSzAKGbKSCBWYmAZRAOCJAGkxNhyARGFkJggSUTQiAjYte6+L5y5T56xsTdCFhQKw5XsWFS01iumOk1fPShR4gKFuiw+7PcEk5eBNQlQDA8JWLJZEUXrEyrZjRgGFU1qCBaH0McXtK2siVqsrEkM78zcQkBtPu1V43tUOieBKNbg0GmLYzaxDwtRsup19o6lCwLdI/1hyeLVzVbVaXwDYOZkGnRZuggIOh8ryPIRf201pXojN0W08jjMlTO8KY4UYyjofMyL1985LAQovoy6HkLWvleytUDQZcpjBUOXmbDUYudzizBvi8a/Ukl21lRXstxiSxh7BFWy3uKdUdGMCrtZG9nPrLzCAyrGDzn+A5WogUpykGAfTubv4uh13ZKujBmoXFZCSW3A8BqxVsTqGSb26GxQ4KlAbgKQqmAAEG+q6P3zkLcI2lfWC59NBygbxTVFBrw74Mj10ItPKmk0hahe8pvQMdWzJb5//HgZbvSFPzB0QP865hLY/FUba7P3CwUxdaVxh3GpNtenzr0urOma2l2tguQzr4zVG12DUQk2PfIlamGJn+M3TKbsiv86ar8c+sQfQlrje508OuERCxlPQNoeEwhUlQQOodWqBofcyB4UHm6K+XueuLDNZA8M3Mp7JxLnX6ZacU6bEveyiUxLvf+jK/h94o9YlNLFX+M+i6+wkYFWXlQgtFVcfTfVe+nBIXc2VnPtmsfR88xH9uT5bjDwHnr06BeX60PylJYLYEXvSihuSrr++7SSl0Jf+ENYowEF+Tr3ecV5DdbpaUtMyHdWWO4kCE27mhoUcgNnW6x97jOPXPxKjcw/GP2B+5a9eCdrq7JAwsrvUnmzOlONn39pQPc1Sxy9BrmJ+htGPId18wUCfaLCux4SBWXSNTjkTghjzYdrON1PTAluRXiuQXmTXDj1YrFrrTVKyl1/um2zqwcq5fJ/BQhhbeh1bjPh/HiOFQBU8Ahi0fizLRGAUulSg5R2PWSJ1V5r6DE/I2+vF5mowSA3wR31EuWlRH6tuBcGu/XpquR+eSDCa+SSrxNK6J58sAABkY8JojH3s/cEAaBoyxQGR1EkebHg+OYe1iDh7bg5DwflTZKZkX7RLojU+lO9dI5yr8u6/0d17r4AyaUqDfkaZjEC3b+IU6i6PFGBuYLBHAIgW9+zqHC3hcny73vhG0EQffLNhf6gsL2le1xn/EyzzU4OjppEnzoAiBec1toSjlOV1RIUb1ZJsG/wYPT9xwj3Kl389Uy+0Q+FBACRWCxmqRAeTCBQkJq6hGfRzx5SFW4f6lz/6ydQ4aCgubV7XofYWJcywbj5D/yEkl64mX6R4KXalAXUi85NWVIRNjihSu6XABK3mguvwyYIRDOOEwDZaoQVJTee1vGSXWovAQDpEPAc4kq3j3G8qPDehcDFa+Pn4KsSX5wUxmrruunc9MkgJw0HZ8UUAN55CXj+hJCANq2dqizfKXeUVyX3K4DSWOzUa+hxCKI7kxMQ2IRRvbRCilcCAG+rt7xkNpJM+/kfjm0td8kv3SpkXiWvcNsgog7/+ud/eVBPvqKlIGQSRoN13eqrNW2Bxgjs46LAa8O9Tf+i1ySV8YcRqLzEFKqVSQCqqiUvC7k9G34d6xIBUOPuFK6qhJ0CK6nR0NmYLQ+dgq4Ht9IHFr/bynjZlbz8IEQkAE2b4jQgYFmYHQty73StcetD4asJbhgyC6JRQVmaZSCalrTZB3G4Jyx6wcsHghp1vhedG7gaAm9B1qNKdIGdQaYVLul1TM2vhdBcboQEr5FVmwC56+MpsUMgiNlJWGl7gccvl9zQNWMShURj32PTHXep2fg/mnFZo8od6zDES89YYW7+7Ve7tTDuEcRiUV3pvQQJuHqKyyR5pUb6ExCkT+ZfIElgrbYAe1nEKejthUGW2RSFUG8u0jTZC7txfCc9CPZ5a1OUfp05HISQ2LonDxTCmKc3cqvTnG6Se/E+GkLtB1cJBBJcfxx7UpKBlIFC0JcDEFlVYR8AhChPe/1FT6PQwaFiAO88SLx8x5jQN2FMKPR4QiUnSJg9mdP4B807AyKUPy94wU44KLc3tQSTe7A6X0Tj7lGTGiWVelcw9JZuDFrXnftgZMvA2zAJbczxwnwCzwWkanf7gVoY5aeoSgozdDarymMroevRAoiA59PjiBae+8efRscAUJ/66lefrLCJ980jgOveVz+7GYTupYt2fPXnS6yzcOHMXgBsD7aKX6mjyFcbEwZjfAnbCACFMRdCPPkgyj6IDs18wbMFvQodRVBvqVoCN/9r6LYvp9mf6R4JhCN1XZEjpd2Z/+NTH0688q+lA05uQqx1qF/TQQ4Fdq8idIKgIFuxIegbn6HKLgwabk5Q2Hd9PioLUie2CpsebKW9oz/cJVjw+wbxmokUHPLrmTVjlnsla373zvFFH9hxmhIoGX5LbbzyjfDVbN0o4IkJhQImDxb2n6GbJolTzsF9r+sv5p7bAQSialtvpkBOW2ZwkzFCuPlEnuYNX8tlU7yArnL20MUtmd1gKbKIvVvihV/OtaIdxwfeydi6Ts15HWsJo8pO2BJnyV1RKuX5vHJTMzQ8/MlffvhigooWH72dFW590Ai2f2gGwPKlXn5xDM1ZfooEqZH60P4/HaCU75oZv/388u9++M/j0Zn/v71/8WsiS9fF8bWqkkqFIhfUvnmDBFRISIK3oLmJbQohIbE1FwQ0iZ0UUJEY74aWqCBGbFsnxgti1L5Jt2Lvnn3G8Yzdu3v2OD3TPXPO/n2/373P7DN7Zv8zv8+qSkjABEGEtnt4Pt2SS6Vq1aqnVr3rXe/7Ps9dApkAXMmwJEmSOivkpmjKfSqBCv9xV/jw1SXPOQW21g+K2Nwhc+xHJjfW9mkIx72vtfGllfhaQpkZE4aP0xfnUmUyaTuq1w8oAJdHNs/ArV0metamvvhxTEf62CLkltVa8mv3QsNrI3s++aybxhRHPnnrjcs6TLJojQJIyz8LJDc8wIhvhwBIXK/zbLgegsYnJNd/kaf7uod2/eaMcEYPGRjjuE2aZVxCYLBhTzCexH/cgGjYff85d5fNGyi2Gisw2n7kMrpYww0HAIobl9LAL161bKMbAzRRvWG52Yq5HikAFjhw9FwLwMjN6uP3K7m2YsHVj+1cptm8NxbSAfMgmCW7MefuzVORuyaRH94BDe9XAs29t1eGnavePqChMaXh6jor5h/72O14pwoLfDQMQOyDuODTJgzEPyNRGTRM8OFFQEPyu70zaynBUojebAsNcYBvfpDWGqQ/srcByo6KpvwelCaMoMiEsp1s/7HJffqwFYRu/eYWRu/97K0lT+7Lgudf+3DDh7/qh3uXltLxz99Y+vpZP73pi50fff6VXorcgLFvL2Bc2bX5XxGW1AYSs7+r9p6gfCzbWDD1DyZ3tAfHTwwH0P7mIwymxv6+33nhjf6kZ3TJno7PSkqbly4VpDcsopNHb2oGL59JRt7YhsPaN66g0nuw4r07GHSe/+L8jFqF4qZYEUX5tGjgMNwzhOQ/0spkHuhjY1MOY1BkU0NY2PxK9Lc4ZzsSzQ7hVb86cfTxa9VhQDw+H46uuyTTfXJKAJQfHoP7dwtS6za48a6dBL7p/90pNLx1hSu5V/66CYJ5rPKfA6ZoVs5eaBRqlg4wviLkBikzkVsBxyAIvdMBIZCdfjzoXv71n//w7SJPy+Jf/2H5tXVh/6UHQSB//Nc/f8pikQ37IQhd346WALDG9+6V7735RZNsRn1klbM+lnBRpF6BAc/JPgkRfgWWrhvXx+FUkxyqVlFkQgkbGeGPSW4IQHjrh0v+8/sdUgg2f9i7/M1TtfjmzxMAs70pxtbeSCqf9AJgf78TNvy2BoSWHuMmlg+ftvArF/PObyy8QzfL+SSC89x2V0kxcoeVorzC1BiQ6j0QAjwkkmFWy8NeJDqc7D6mrL7kh0wUpRpvPyaEAKe0AFj1Bq5ua3rVP//6/bOd08ivnXBgC0mRmjjL1rUA56aHQW0F+HFCXSf0OHh4eao1M8wS9RaLCnRbAj82uddUK8p3vt+Jw+P//vYpURBID271A9j8g0natM5PPGmGWGJnCXZ6ZyNo2XAHrWVimx8b0HPox1BPtuqM7pdwWN0Q42MaC/AGA0AhjuVJGOB8dReYV7eYq+CRWvoAx7j6nejSStFCpZSvzYLWextrDZ7gM6vyz4FDRFLkIMGwlDfY2eBs0VlfAXIDKFsXn4KgMKwmxgs2T4JGZPixyb28AQLlzbeH6d7PygFmrTy2/30tHLz/sRI7cDNd8bgVB0OPtfSRo2kQurEXlWKBxq8uSqFsYJF3/hssqY0aZpu5hJZHjD6GDRUMYwWCu4NTuzil4aTVeuxfuiYTD2YwXn1mhrwUiEifPmlnfT5CvNjgIH7s1b3sOQ2vUEzxrBRZ7LCITe7tr/iRJ5TBs0ckNKw48ZpOvezDa2Prvtpi+vytA4vuv1lBb7vRGDz33ZFdH28LBo/cdGLOM4tQ2DwIbvtu+amtf9glmPebUpour43MdixA5JYzLr2nUEQNAI4S79TSuZILr33z5IvlLcXIzZdkmvmY2+gifaKUTM+wPZf0QdNs6rO8NKCz8C+iinY5Biids8j8Cxu0KH9kcuPntyDfdeKsEPNWf/L1SbEEuE58defcuy14X3UKOB598n6ZA9CbV0KI77+AZAJoKHv0/g+Hxc4fYUrpHxD6Z+ssQeS2MD6XoLC7x283Tk1uWnvhcENXBBQn9wtxG6hJipKnQczH9DXTummkL84DuNMwrmssei7QYtJgoOCjDlPr5RLw40Iq5WxKVKIQ+oNcvF8wGGy9HgY4uu/wtBQVEOQmkMGsCgXtd/44iwtOY9zxMkZuhqqhBIUr2UtdRPo5S878GtfzyD3TdiUoHxV1gkGXizKr7D82LfLOCezfVNzfLlPHi4w2UGgx/OhngcavILe8DvmSijgOK95rsHI1MfkFSxyTZtRY0GMZ5mr6zTckdlUCn7W7BIZE5JU7yQIngCrBnrfT0zrATM9+KtJDAINC0kdGrZiUZKkSVvoqJdZ6FtcUnUDE5Fq6yFdEzeAro4WYAWY5d+fWzS8nxjq+KqkUshJlpFgow/SByN27ZLDAyI0BkCxpn1mo6rSP+hxyB1iKCeCSLaMlIpfR+qr0OHftLSfVeJF2s3JJEXLTXn3tq0Zu6einv/zl7r5XRlx3AtLDtQow60IvMKSnyt+/W9iD5VfKG+ek7c8jt44k9drgxYuNDEWZBa/MeMKlrexZnirMbpyxFF1jN8hVs0grmRsEFRFB+tXp23xgUpZIznbkRqWw9S5209ZIwRrcQaMr9QJ7ncZxn0NuFcmalfvr/S0kWVc3s5iruQUGgf9afeEGwaRbXiTVBQYIwytH7nwxvVcM0K8klNgsg1oQuV0k6dp6/llDEgKsZXsifxqEPTtpLCQcOMMWPUNzCCQmimQuP5JEbEqxz4fKYcHcxs/+dh4Xd9AJpy53BwvWt7DrA0VaAi3ixkJmSV7LkauiwMT8eX033S0B4AUy+E7DChzr2X3/iMtmabHQA0BwVofHABQwFCnqfMcOniU3jPQYQvmzuWe8H7y4xvhnqEj/TDrkme0znnGF2VdztV7hIcKSOCtmNWDiNj9Sh48jcc9V4IkJMZ/YWmTui9Xqpz2hfMbHNEWP8iSden+TN3j+DVOI1vPM89SQwc/ptswCaBWS9LEW2cFrhaQD0kJbLrYEy5tzTuj62Z7IsyO3Vc9uL2tJ2dIQd5vFVCZLGRanOCyAuehz7lg4IE6qCuwfMkykGIOVet1UZkm2vc8+PjkdG2y2z6tCW0M4vV7LDvRz1Z+FgFnJWHi2Njcit8/HxhX2G8+mmSDzIM/mjtaXbd6+ffv2HTt27CgvLy/vRxCL++syQGlhJMmSJOXz+XziCSgpApZlWYaDy+Vy6fVGo9HoEhFmiiq/Mlxp1um8Oh9F+owajUZjMKjVanV7e2mpQCAQeDypVCqlUCgUUqlUSnMaQhMxl51vPvGsTCIGBiuM1iLXQxtLTCa30+l0ptPpcFgmk6VSKYcjmUx6PB6PIA8eTygUiiQdjlRKlgO3cSQSCqGNS0tbGhsbG91udR7a89DY2NJSWor2HAqhHaFdBYN8r3Gqb5NgzSDvYI7UfLt6rAmucOhs76hGH8vKHaD5unvSrnCAeY4FclMO8ydrTp68dOb6mpu7ny5ZsnTp7utn9u3bt+7Sqtv3T664evXq6sNnzz54sGvXqVOHDo2NHThQdbD1VHV1dfXB6pGVazdtGtm0ae1KHmvXjoxs4jAyMjJSvXZtdVNTU9NI24G2A1UHT+0aO1BNsbduLLm94vDZ5ffq+1lf1+nFR9chnNl39OjNm+vXr19/5gz6d9myZcuWLEOfHj26b9++fbczWHV7Oz2Xj1LoWmeefPdguCAeLxKKA/WsO5/cOAD2dUuvLztx48aJ7PlsvX3zxJkzZ86sWb+OP9l16xYvXrxu3apVq27f43Dy5MmTy5cvX75iBfr3/v379zNnu2rVqktoU/QDDuvyXvO4dOnSpVWrTp7k97FixdWrK3gsX57Z68l7t1ft27d48YkTJ04cPbFm3/XrW7fuO3pz2c2ty5bts8xvMSTcSsVeRkRLI8WS8jSUXD77TNo/7tliyI3cgR9u2RN2g9qgbq8wKIW2uMXFlvSPlt89v+XYnTt37hxfWd3aMHbq8pGzZw8fXr36QcPqs9d27dq168Cha5cPVVUdOjXWUHUIATG/oaEKYWxsbKzh1KmGU6dOnbp8raHpwOmqU9dOfnZar1+5ddGpB2dXH36wt4Sk+psW7Tp77dq1a6e2VTWgG+LcuXPn0DH37Nmz5/zdoeG+PvQsGR31ZfDo3jXn3NqJgXU1k5cqMbYvghc+JKaiKiaO3LTpy9UXLuyvr9+PUFZWVrZ54Nj2ysrKyp7uvmb0VBOJRKK4KaoTCoXChKF9EI3P/ADODfbjo312DG9paUEDOIfBwcGKivaJqMhDaWlpaUtLS4vBYDCgp2IsFotFVSa50axn0LHLe7qGr5zf3rtl88ULe+vXVq+5Os/yMeEdCedL2A1HbhmEia3Nz1wSWUxrH3+n/LbMgjpALo9bzBaL0WSSywmVLRC1ab08ajWahLp9cHBw0G632xMJjddbW1vrFQZiWp1Oq7MFtLoMohzQK5stEI0GbDabLaDVBgJCr7Zn9wERRVbuIZS1GrXSmzCyPpKxaZRon8papUbj9QqFWm1Aq9Vy+yNUKhVBmCbg1slLOnwOHV0QB7bl2yc5tSFZUozcwGDWTRzUMf2bV2yBmM0W02agCtiiqB+IqEllQp0bj8fjRrPIbLFYLCIXstwYhuVNuIwhxzAsb9i5XHqXK2PaIaBX5kkQjYPfImsKot2j7+Vxi0gvMspR/1niqBU6WywW4Hq6/oZ8fsmd7ve+NHKj2vO+x/KJZMCAVEflAqfcn5fZOWOWpmmMljglVr9ClnI4Ih5k97U0ljZWqCva1QYD4rVSqWlvNyiR/ae0q9XtFRVqg7piMIvsCIJGFENFhQG9Vg8OJgYrNAdX7bEbGbarOaZOKJXKRG2tvo4ifTZNIpFI1LoTCbsdjTe8bZndGz8SoX95W3X42iKzDGJz58WFABgOnfZM/KjRHi+Wsh0z2SdZLMbdFy0Jg1qNTgUNq4MVjS0VnPXsGSwNZeBI8UO0LIxmF36/348sdasV/W+1SiRZ+1iCXjqdTn8GimeBrPuwPw/oQ94C5w8hkzkyj4FQSMAZ8vxDoHGw3T5yo1wyn+TGJErjSzNLOGGFzRs0+WMdWn7fHMXHnXXux3fsz7rVJ8zysUITXCmPYFCSQzADSf5nUjyIq1ZfVkqFjJ4Vy8d9saVmMUmiZM7pL4OYWy9HZ5j8M3M4DvDTyqyeKAyp5MVWKCl9ZEKFBAyQN4ba8YJZaZn+ls6u4tJLxcXldZF5dQb65TbBrENL8smdPnQ1lEdeGmCNe9SO8cqknhu32jOLRnksg5DOXCGUMI3PbrBMDpxploR1WhVD+ogsuTFpgGJZJjSTGgP6Tafic05uKOk7UZbMa5O+u1imKG4kB+n81kNQcrNrkNe/HncDTmYP/sosah6/J07Oq6Nb0WV4qWYJAI33xmS5uwUDMKkTGsY7PXT0lgHRKzXQsf3ujr6aElIUN8njcT1Z0t88PHB++7FbfUZHcX/qc1sSpE621mLquAdqkRr9+O8whZz0MfEwnL6v1TJyzTwP2TtQt2+1LjfAkn1F06DbCduEerkAlK8rb4HAYa/Nuu44Ew7B3j7IGQQCt2M6jZgPHLxNOebV0Z3uU75cckMgvL6JqzCVrRsHtWTjODEFax5p0DaHbpy8v2jFyXu37109sujqihWHj6xYfm/5orMrVp/dNBJ65urySwDTWLn0Vq3rk8psMSvATWKKjGXJjQNsUM8wZGAG8b1E9QPjXJObqzqWevjOnfG6RQahvJifOxAV4nn3JgSga1VNKQYkBm56l53mocmdTauxI26XehKe6bVk7nFgFTk3QUbFkBaiEqwv0SxBpFjaFs6uqKNDHLPkAuAc++4kAJA239+vL/GJxT6RSmmoGHQ3hriFB08opQh51rtm5g+ls4UuQcW59b0pa8I0KIGQNupJ1p6/nwDLiimNFUx30Up36sh8jNwI0atn+lEiFgaBU2ssNty4RKFJz52790kHDkCpmSAI5PBRTf4b0xntr4pdcmoVO79PEYWNCOEvmdy4/kaTB2DZ9MfSMmUuE0e2744GQJx571xcxfnyVLqoShW12TjXns4W1cY0H5WBmagHcMXqUDDJYP36aiU2aPH60XgYNDMko87fj0RFin1MLVIWnNbo7a2aF7MEQervW7WKRA88aB4uVo4AinyCCeSGcMtJBtWwfZbcWRByl/dVIfeDFeycT2EmQNGTeBlh/BPIDYB+Q1uA95DQAHjkte254y1+KMQwoPngYdykQtfBJJebCJWK4JyyJkJOEMrHW+gZVoaCmBRWnLvRYMMjKhtfsRizikjKVTFhM5nRR4oZpQKfnu9avfqIOTwvIVbIVnIcu3HEZwWgpqto5L8yLpzYGKxsuQuJm/80yL38pOtlmMDTx0sitzuf3BBI9fvW1XCmBQ5B0K7Pkdu5+KEWgyBy6SEhJ0wmglBFdQSh4sZtlSqqC+iIxPrKmdYXwWhV27K2KJ40GRs5mQoc4lY95dNPyAqGeIuIJSlKK5verltOXZ4XcqMnJ+qo0j03b54P6WIxa1E/t25ibBi+f7keZQr8NMi9bo15flUtXpJZ4p44cgMQffDhnhA/n1TssOQE6hSrygKIjNe2ETbOJuT+08ViURN/MaIq5ZKB6c75UJgZGriGVpw53i71xOTunFdFpqcocmLaPZS4SUpMUvIKTjX5ebSNLD9pmc9aJxCkrqy5ebxb5ES+0WddltAcb5lglmBg5UmLBECYNGfJbDLpomipNRqX6145ch+Nz29TrCqTZ7ZxUxDCwcnkpm1tN1bHubz2UEd7ztRS3H5oQ/oZ27ZFuc6Xq2IBXZRQqWy6cXIv2zFdVzQ6YEpedWJ5T6PETehapHkuw6SLIpnQpO0lWpb1sSUubZivXTclv8O3780ruVGLUuy+H25WlnKFpZ7JQxOVNE60ucHBe2YrwPLITcSiKpuKiBJENPaqkfvMUdH8miWyGrt11nVLCpAbAPeVS4t7tQBgIZHaPX4Exb16ArmzLraiiSR6jKqiOl1UF4uqdFlyH+2e3s0mBTBtuXj9ZpNWIrWb5R7Oks6QGwMCxkfqJ8/OIV3rKmEZltIrU899PEjXrJpfcqMYSiC6WLZu6ZEdAW7SO7EjhBblpDymsfuiieQ2qWxylc0W5caNV4zcJ27P88j9UsgNCpGbToofHF20XQDoCkvL+BHSJ9fKUaGHh6f5kdsmP7b83ond776zeL+IyJB7X8/k/RdpO3tw3da20RQ9GDVrHGB8hY6fyDay4wkK+cDaRSxLUSU+l9bteE65/zOX5pnc6NrbRDZZ7Ni9pScPEuFJAdAxuWoiubHLk0duc8Pid959b+vpK2Yi+qqRe+tt8/yO3C/DLEEJUCTDmiYRAUo0x24vX7Qn3px3w4bProyjC3TrXjxjI578p+9ef+27rz9aM8rNhKJR+9bKiZyDUixrP3B/0LelpuZdG/a16Vv8oRhraynQaYOkmJIrnmkpwCIERVFikmTFrJEghBWhsD9IYwVy0eHZxfr58ZbkQeqvkIcBDFfUHV78zr0tLk3e7DJuHuQjE7L5eGDXOiMyzlMiU5Tjssr31b9+9/W3n338w8ZXa0IJAaCXnrDMryvQqTSFZl18HqaMBcgNAB2x1O9afnj3o0EFMiDRUdJnWwkcAvrWYgs3gyRUh/+4JWqK6oi40cTP9mNLR0onsRtm+gfVOsKtMtPe00vePdxhTtOlUblJqSgU3A/VVCFyo3zNZJSkSiiSpUiWKaFc5rhKqxEoCvTB1duuOY0KLNRsTNWdQPVsMYxOR/esPfrWvgP15e1+JwoR0YsifGdgfOoLwA6vZ2gAFe2MRc57SXzffmBUqSzU/ppXj9wfrJ/nkVtRk5h9hS7o9pEM8yy5MdxawdafWbP67IUunRvVd8Ss164v1+IQ9K7nya3SXf7FMZVcFY3FVOjqxExM51cn6kIToqoyfhEgafGKthxeemPVql5bu0zWbmKjgnSRCglASVEsUbgzJYNRPcm6ODkoLpaZ8pFmYUsQn1iaAr98xqwA8wsIfNudGM5Z35CmoSyh6l19ZuvSDYs2DpF3e30VpTLneHwJxC99/vhRo4cgWcYi52zsuu+eGnVyeTSmUxGvGrl3z/fIne6efRE9NJ+k2ALkRgRJGsixo1e3rd20cqSsj4zZTy7+/rVTcXh+Pe+qiuoefF+pU9miUZWNs7ldZ3b+198umQR5VwSTpgZV4mPbru17+t7608fvBpz+iF0lV2lLpRhX3ruQtiv0+khWZS3UWrTCozaTDBq5KYrkKc6wPlXFxArp2IM1ovkve0wwQgUXo5OtuIHhUmus8mL16qNff/3Nm0uuHqjeeKcXZQ917Ri6fuPdDRtFjI+l9JY46j/xZ28Z43K5MU68euRec984v2NFOB6dtVkCYSNLsUxLIfcDDmDjnu3Da3cdejS0/dijcyOvf/n7p2+cOHfkppHLo5Grbr/dZzLpa7pdyCGoih749sMf/v3tvQ83361hRofLNo5dvb9kyY0bS966efZWXVRnSMkqAmYmXtvi90vx4vYwBrUUS2qLFgYPOlu0JpRHwgmeURQSiaeYaIU/z+mPVe2bL5t7PFYRwmAL97iAqBS/xOlUOBwoLbelQqnVV54ve/To0aPNt2519Pb29p6/cr5yaEdfnU9cUkeWsByZ+7/9/PJ7v3n7u/155H5FauYobu4zzmsdT0xiMM6+1hlsRElcLQW/AqDxltxgiNVdPLCravPmHVuXn/x12YE3byw1qThym5b9577buz/6/ncN/NXY/8Ger3/5p48fv/ve0w03V+zadaj6+PbR6KBDliy1KwOE3BhXGRxBXgZxCt5h2NTkhhBInQJ7bUAYdeldLEsxLpYlKUae55PHR+Z+5MbgpKI6Unu/cdBT6lbXemM6udksYrksMGRCsZnUsGymv1jvY10ussRHDg2TlJ7rvua//4+Pl62/uW5LNGdz/+glWngobu6zzG+R2nSJVzZ7rSlEbldL4e+goKaiVOEZVLdrXZ0dbU9e+/Xft97RXtlt5Mitiy/7X198fnNX24X+jLOk9at/+u3J85UDV4Z3dLsaQx63PSE0mc16vUUVUHsczkz5DTh1EQyO3Kx26hNDYd64TK3WxKLyuBnlEpJiNprM3hGw+uQ8TCiRUx7HpRJ/OtKi1mhV7ChpYUmfWEyWUCjZkWRRoYuM+cQVvuDecp8wJEOJqRJXJ8m6jByZm3/9Vh8htEW5IDTOHaWvndv2TxvzT+5wd8I5zSC5KTAVuYGsIq4OAmAVDApCAsPZo7+pGsTAwAZzAJGb0D9+vSZuImxchKBKFVWVP/37Eab51qMLFx8+urC5xBjTatQCh98qxTOk5nVpn4PnkzvHWnSb0M5Quy3OsD6GZUoz7MY23pv7kTuYTnoaDbVRk8XFMi59iY/yUWwdqWfFYgpVb6Eohp/2Uj6yu7MTURvl5XLTYFZ8YPXlC6M+imRZMz8/7/vtfZPcFDPJM+EM/8jkxpxs7CUEs0xFblzBuMJclB+UKhzuB/se1rrV2N0lRm6k1rl2vk9x9gm/qBM1WfQ3jg821pr0ejHjI9nSF3PCY06CYlnDjEZd3N+uYhhKpB/MzOXOrZqz6T1OByUyj7o2RlgsLD82oxHZx/oocT/JlpAUxfhIl4jNy1QX39pcSenNevSEQUkJrKt/wxu7BhiSJcVmOc/lrr+usnAvoqpXjdyO5ffj81rqGEqVonZ81iKrU5AbgsYOuzSzJo7h1gMPRGknDc4v412B8vjjN1y6qE6uywazRXUnB3AMh84WORq2XjCi+kXIDSCeTogYlrRU8L/buE7/kh2znC0l9SdbEkKVUe9iScRdNgNUaUvvGriwp06E3ur52gt8jg0qlRC9VeYjYtoYKkmBMsk0asuSm13q9nZ1jMlwW9X9b+uM+VGBrxK51101zq+f298feAlP3kbWxxYnd3N7ZDyGVbppzIxiBI+tN3NLlHH54t90icx6PWPkF3WiMe2lu5Dzgyh06LH8YgnoHLkZw0xHfZwOESTpswxKUcv3rnqJVwND8ke4M6kWxkx6H5q9+nycPU2SJMdihrM+9PsP+fTxeDQatQk1Bq6IDqqZg0ooWGOjdgnOT5D4/lQvv2pBVX1CWW6rev5wT57P7Sgh0ry0U5gdHGsuqebXFajYUSt9CYk4iNxFvC64IhEYHPdsSJrG5FYagu3rOLesSq7r+OwPf//PP/7r13d0mcsRXVeZEclxChmKJF9IwBCRm5wpuZEVDtM6imT1jVKAgfrFopf3HKWtjkavyiJysWgy6KNYRswZyzzQ+CwnojatfXiPrsUpkQaDqAJfXnFhCEGLTh7MT5GD3quLjBIMAyF9lszlP5wmXlVyn1inn1eXO5RQ0ZcgYRch2WLkhsBPuJLjmTX4wbE4ukB7VpiITIxrz8rTVx+c3dbHmYnRqDx2ciB7/axalhK7BC8w34UpM0mKBC9yMphNT5F6DwD0xnUvg9wQ0FZZqTJKuEhEZ4ZBCRPcP8gmcYnMRsKmtVd4HAoJjkOYbjQmi9yT8YBmIjsCqxfp0RzNk1nuVan0F5p1ryK5UbrhmXn2cwN/RdxNz3ro5shdRAsPtmxR5hJ+8ZEGjty9l3lyR026qE0XE2pjfAjsRHJjfoJixcQL2AaI3NSLkRs4dYyPVfkBXLvYMiuzhEshDfobvXELg5x7Pr5+rYshfVzxMqMqlqgIyRTOID3uuoEe0lTs4a3vz1+4BRiwHVjN3X4ec5bchFD3SpoliNz37snn1ebGnazNgUF6lruJsCxTmNwYgO7hRtk4ubGNTRy5L65FOWZc8iRBqIg4qimnm0xuGgMhl5giDTNvHzdym1+M3MCvYklWaAVNsyM3BHRyUBm1+Hy8k5q3rZEBYjbGattbkmErx9WJdcXld9MQL3jCtLpZPXHkNlYd4mKRBDlyy3XRV5Xci1aY5ndC6RiwO+Gs/dzFyY1SYoS6xvGKI9i5TRy5z13kyE2gUM2oiVutVD0zckMcx5VkCSOaueU0K3KDtImifIPw0Br9bMwSmYGwoGVFn4+ieGceyzIWVcDQmHJyKdD8OeaIzOWcGnvckiIXRCAyTSA3bV5ZZfEDCAWiLLmjUV00+oqSe95H7vCo1jn7evdJ5NMaLPgVDiRRY2Tc5sYu7o0jJbptO2wmW5SQm1RyC0EQcYIv98olxJ++ktegsNnH+HQzb5KAZMkXzEeFAA+ZKZcr0nBvxq5AbokJ4LSiUahjMm4+ZIGQLKMXmYSGiH88crxw+TOYKrWkC8cV4IRXGJxgQopXNrhQiZhGEZqe8+tgHLcJwsSnCusI5lVxBapXLTbNr6QfbbC4Z1srEE5BbgyAliENnjNLyh7GgwCEd5XHbFz3R1UmVEHYW6tJ2BMJO6rUevZKXuYArmZJypyccaNmQW4MAlxDupjYkfsvFIBsDQ8GjC6fmOEWz/Ui1iUym6OJxnC+/nmx2n4wopIXEyx3UY355Iag/zhHbmiIWuJc1WATKumcLeuM6mVrbfFXYuRG5L63SjW/5E4bTbMutwVBkilGbhxAdZ8nnNNr2VwmpwFInji9beXBpqamA61IDqH+3KPega6aGtIkNAhSl7fnfo8BhZFiKe+MDScBybKWFyI319S0iiHJRftc/hnd+KjoW1ht49ccURwtQ5GMKypsFziD+ZpxubqHz5awMA2lijxKoWbInU9uDIw+5MgNKgJeoU2F6mPH43J5ltxIPkVEKOe3hFlxqK/ei86vzR0e0IRnr/1enNyo8II3Fhm/mNj2zXKIAatv06WrY9V7O85XDnd1dw1duXV87Mjt60/fWnP7yK4j4vwd4AlG7xPNeOieFbkxCEIuF9nxwDczckv9FTY9S5HIG8IjHmj3SKTZem8wK9pWnNyYaUcxTyAtIwlJXntw0FOGyA1B0mYYbBFk64tzoggVFRWcHk5I8SqEcyOoz67QzSu5Mf9ozDnr1XegQClbFQW/woA1YMkloWNlHWZ0iUEwnZbgecV3IC1VOEoHhTa5KDIhZRn64z6GTNAzqzMN7SzLRl/Qrcq1SCliRx+VTPNqcIuvVnfUlQkOd7lcrFivq4g4pTPTDMNAi1KuKHyuOFEbk0y42Ya2N9WhzGg6pJC8QiKyhaG9enh+Y0twa625YvbVyYuTGwPAPZrIiZnjFx6aMzqRYEJINjeooeKZzwi6QSHJUkR6Zq2cLbkxkDaRTHPNdPw0XBqcNKIxsz4uWMTFkJTLonXLpPz5zax6llUjL/bAIcXqicWoKs8jcnNO01ed2gBoFx2Z3wklbo3aSmcfsOwvSm4cQHt3aV4CwMpt5tzFnnjRsxeIxie2KMn4SKrIElExQDtLvjC5+ZsyQZGULzSd2TbtTLttLhQowpKMyEJabJqQE8PGC93PiNy6nlCx+9jWN6GYOoQDlRly/xSgPbJCNa9mCZ2u9IZnf9MXJzfKxCF0qdzI3VRtzjyn6UnbgWzk/uR9SEwkSwVmpgk5W3JDQPstJEk2Ys832iQhb5zxlfi4nEzGItc0+nkZkGyTZ6SHbBz1F1t3kDATjFaMHuj6SZH7pG5+E4T93Sbr7CeU/jjJsoVdTjRwCuO556xkrM3MZfWiPEYpjfudVolC4XSGw2EZpwKacnBqoPlCoW4TwzKU3d04ARk9OXcjpymXE4FC/7rdApWYGh1tbMnKjCJx0EgGvFBdOJxOp9NZTR0kFZoxinj7CMNxDUVSU3rYUb5DMOzWWUjEa5eeZfWmRHJWFxCDBhWRLnJDEQbhBHKDrprW7TFP9vx4PVP+zDj5poxq0HSK9j/3Go9Ll2OTJ8VcKDOeEah1ZoCkoNLpcEYLECmspqh794nZLoXPCDQtRCVYZzehnpLcEHN3GnJdS29ft+vC3vptK1duOtjU1jB24NDlXQ8OH7l6ZMW920jAc9+aE0eRWOiyPKxf3clSm08suT4B6Juty5Zdv379xjj4z7du3br1RBlDHf7w5vozGRw9cWLNmn37ONVRJCeaFQk9fPjwYaRN2dDQ0HDwIJJz3bSJ+3dk06aqHT5SlJyKFRjusMtRDBQK8nPpzTG3dbYTGEyhLirnYLZUTHiu456KI0tW3UeSp0cyWL36wYMHD06fvnYNqXIeOoTOq7W1tXUkg/r648ePHz93bv8M8fBh7tVeDufOHT9eX78JddfBg8ir24T0QC9ngNpy8uTJe/fu37+PpFn3XVrzwVtjtvnNxAl6hYOzVVaAwFmU3BDg9mZP3jwiMbK8emTbxr0PH3WU3Tq25crA0PCO4ea+0RqkkF1SwiVQMRmJRF4JQ2QWuUiyc8hlmQDkxY0bjZlXGXBiiLxMIuu7uyenm5jVVcyqLI7LL7JZLUYuN5FT5O7q6urac+X8+UMdJCUWTtE3MKU0MxQKzaZcIqO8XYbBvET2F4ROPCgtUj9c3mOY+FjAHZsOHtiI9JTPndu798KF/fvv3EH58WVlHR23bt26tZmTIt+yZcuWgQy6urq7u7ubm8tniM5OpGOOpFOR/CwXtOtDguV1dXX9/Z38t52dnTU1ozx6evr6+vrK+/p6enrQ+5q6mlGTOTa/UYHWbu3MV/8mX+MpyA0g1hiN5Zn1eEqVSCg1GqWm1ivUBrxeoRbpomoDNrSmhtQ4Y/zaGhJb4GVUVSq2jmSbzRMlUOUZTKxIzW2OPjJTJQPDqti4HiuKutDZOKAPAoFAAB0F/dXmQZhBraa2lq2jGLFZUXQsFghFJBq10S0i0oakELwERVbMWBMsshfMapmcuUErSs2ZtUj+fLJnxJ8Vfy78X07AtrYWnZh35kD6nVz2j0ajqc2DlxOr5ffPH4tDtjE2G9fnsVhUFyB0oheJ75wFLyXDyOae7bNUqiNJn7bQNzQOQom4M7dCCTAB6n7Ux7UapVKtNth5GNqRNo7b3djS2MhLNDc2IvHl0tJkSzsppkZjIYFAEHkOkhmUWhhqNB4qFUwEp+ecb7XzFjq/6JFRA0MCr3bUvoQWJQzbCzzXMAwLJrUWF8mKSYalRKbayEu7bF6LtpjDTGOv9dCTrpVAk8h0oD2RB3seEpNgfwEgSdpin2cx8T3SVUPBFPxcyN046K7w+OdVExPHtGz77F2BxcmNRm4qL54bTT+4dMpn/dmZr8df5C1WO+VilvTSEMDnIdcito7VcHGFHHL74ieN+e8BKFyoG9IGhmKjzme+wnBM4WVYH1K2dInMqgrFSyz/4B80KgrbiZASNqYmVZrAaHzSov6zi0bF+mjuMTluZn6LimJSbywx+2SFqcnNyHIKwllndh65x7u8uLUqtVGMSzcTg41WuRhGOaFfp4jnyN8ubx9AJidJpoDCcjhhdqFJpEvP6AMCKw7A83UapouYqzZYxFtiEgslz16r/PHglSM3lgEE2DyXy0WuuS6dZ/bZ71ObJXItLR2PLXm2XnLhLs9zPWE0rWZI0iXDeZWz6YzcuJwi9UowaVR79sC866/gsVG0rpZhWeXkr4ODJoZEM1BGb/Z6pHA8X/clgMZFNcFipjselT8zEGH4uGsOy0N+n2CT8NzHX5F+naq/QZFBI7cdnPehG0p3GKWzVwenvRTF2KSFVvMgkNldL77qyi/VYzIXK2bdM+iZoIglmWn8YGpSQo9LzFjS43qxaFkGNqrMXPgII7LEXr6AKdSStZIij1JvrdA9WUxknh/1PyXgtNannn3g1BTkBtAgr6Vf+PbJ3PVWxsWwyhksAbwccgNFXEy6xlWj0BjosIm4BRuRnomG5qDUGpZ2y4st4rg0pY2TenJ+zYyfFjCpobZ21sXnpyA3BJjXlXrxhamMdYLpSJKMzuAB8JLIDTViH+UdV+/AggmkkcboRQyjG6Rnm+VREETcW2TNGLcYVX5sosmyQO4pEBwVts/+GtFeiiw6cqtZ78ziQib8OmPutaN8nBmUdHlJ5AZulmTH01phKEqSYtJHMi5TuxMDYC5i8cRiZ7HrYdXKnZMWkxfIPQUkwyLF7HsHUzIkF9TzzK5oAFIVLhzPm05ArgoQr2LAPdfHvSaZR8iEOyHjQgmhlRJBJgeMzqyWZH/AC+VI+V/i3H8SM+lDRZXz6IflbQ2yU8YJZ5HbCLULxelizjhLsm70AILAqhG5SBdFsaxFE4bjJ4ujs+TOCaVHoohGKYYBKEW6qTBjqHNe1+wZZY+VLS6fbQj/gigpmuzfPqi0c0dA1auyxjfXs9JMsnF2yQLm+zrzjwFzJ843COL4eIv43qcB4HaX0ZngO1o63nL+M3y8x/jsX5A9VzQnprnPaVREl2tlpgOkeWfOh5VBPHsN+F1LARe2j6GyczgnPgsyIcMYV7cUyx2U90xAvtmQpxoSsYN8c3hhuwClxmd580MA7QzJRJ2FlaMCulpsvCFAmm1LrsgqpDMqRpz4b0bKKKuCivO/lVlIimkfZz/G7YXrTHQFglwcHRdjinNXFlPoWT0b4TbCspdz/ApkeifHz4nTsrzXOC70sYwdfS31ED6WZUiXXm/jjO3JvZa53SCe7X3u4mVvQEBn6qDxxMMAz8PxsFi+PTgOUhVmaxEpFKai0Y5njsOPCtl3GTJnzw7Lys/yHcv74niSw/EemDxhwLP9DifuKu9MM8TLDSyZU0IOJy70IP+2hCDP3p3YvZCvpTWeKZ1zatF57M9yO7uDbCjp5M7J6dFm1wkzt16wUWubJAg3Y+AQqEmKJIqQ21jiodOyMLAq/DhuleASpxT9hVgQjbVBGgQlUoCCymgp+sJKY1YJwKxWDASdQRD0WzGpNOg0iX2s1mmlMYUUg34rBE4JDpx+P5T6pZhEEkQBaVDq5//HrSERy/o8wOmX4E6JAkjCTkgrJEAqkQBgtWKQ9gehNY1hkrATWK3WoMRvxYOogX4/jivSQWBNO2mJ04/IzYoaJZjCbmZ8JTUuXx2rCToVTpAOK4A1LYGKVBqXhJ2YVJGmcUVYSiscTtwvc2KKcBpIUiloTTsA7nBIpamwFJdFglAhcwJrKow7HTJcEknS1lTKKU05JCBUKsEEel2gyNwCEwXqvP7woMDqj5TKrElPmpalZbRVlgxKUmFakg7TtN+K4dZwEEpR10kkNLRKAI7TEKdpDNUBh1IpRG/4HeLZUYW7T0Dmwcjd6jQ3KmRL42eevLyUN/9gyHAO58ZL7hNskrxxvuza+IDFsxYDEOOmLBDDuWGZq3SB4UgsA2nBQCnAnX4Mt1ohZlXQtEJhxcKONJaWOWlr0oErUhHaGSqVBiMCaTASkuChljCMuFMg2ejAQ+pSiafCbXXUjpo0s02yk0JQQfmKklt7xyfrHNInxd2uFDlakox31Xl05XUV9r4atXt0VJWmyo0pS48+bW52hVXdJYLanjqPurxc7e7s8TrE3aqguceSNun15ECP2OHtqRl0l5ej/xOR/vKAghk1WuU1vpSqhpLVlpPh2tE6z6C4n6TKt9n84n5hylVjssbrXNbacl9ksF/cKOgUuwUlnYNhss6eJvt11vioxRmrcaUTo76ku7/fnRSPJvxsuTftKieQWcJcqaRKVaTLJy7b2Nd8Z0At62/2pshRk9/SI3JGmymFpq9OpmnuF5T2NDeG6mpqU+JuXZpqjiuYYV+KaPbJtM2jpe1d5QZ3X3OtrLw7Hu7ssoTZITJsqexPEgPlpcLK7gp314A3MrS/TlJkEiRN1V7oTIjujmqIyvKAamgHIWwejitHd4hq64Z97WyzuF3fU6PRdfZohT2dpsH+zri7pEdfKuqhGk094hZbeb9BU16uqajri0bIZkuK7XKF9V0lKV05JUs01wgEfX12Rf+oRuLrUzktNRaFqlMUFJaXRBop0u0xU7UyI+VNW6iY09JPWGOUWWHQiwQCvZ7/n3IlaCMbU0R9hD8gjiu8JRarvZ90NJaUNIb0Yo1DXxdzMj06p7lHJNF1lqQ1Pf2pRN+ooHG0R+OoqdH6xeU6J1lOOE19rEzbTaZqm8UeQ99oRcVov710dFQZEY/aBHXdxjDbbE4xQ1TS2FUnMA13tpsqe7yxyq5YbOiKqnZ4yNjet8PiLrm7xSybdcEpCDw+HxMvkmbt1FCOcDjtdzrCVqkflStN+51+hd+ZTPkloVDKmSyNSFoGPdaWdo+zNNFojQgTEo9XY3UEAg6/0CbwB0ztfq2ILRkgYwqN3JZ2602RCoso5LFYWpJGiyYpJ20KHaMKexlXMkEyDoPP5zOPXtCWMnUahaXfpohTRn9U7Ep7xZSsnepv8bAlhgjTX+tg+2MyUZ0pTPhEMmGJS6EU+0KNDNkeYUsMyTilk8lZiu3a7hOJKdY3vHevj9C7PBERMyiL65Uyld6WFpp1CqVIF66IE4qWKOGJxOLJsFDXKNPYBhWagMFp1yScpYnasKfUngobBpPOUrcnLRgUKJItSYnC4fH70w6rXxJR+P0ep98h16iLOK8wILBpS8OyUDiZiqRk4Ugq5YiEZR6HQtYSSctaGj3+9nZ32q1uTw1q1LJ2ba0sGQtEGk3RliRhGkxGzYaUTR8IR11EWCM2p+0kJaigOhtLfeW1KarT5meHRU55tzis7SoXqMubS1tqarylJT3CEFUT8Jj7VQ5Lv6vUVsd4lDV17sa6TrWnblSZZDtjSXNNNELURFO2TmOoVqxvVPpK2kvFNQkH01nrMIujaZFYJSP6zQ5diTkZ8JEtBrGvxU12qh3UaCDN9JnC8mZjWFXDyHQ1dUlvf0mpoaSzor2kRCMgxbGkxUekdGaTzCAiHGp53BMhdIJIrVAg86pLU+qKQZlbUJryJFPhlD8ViYT9YYEjnHKEHRUB+6zn/BB4SIoxFqsh4KyRSypchNNjkYcd8bhDFjeGnISoMRgwJqReS8xpJ6LOEKFSJI1EWBE1eRRaotGqiarT7dGEpEVVKwl5vUoRW0KqvTaZojbmkRhijcEKYQUmCBgkIW9Ckg7YU+lauyJo18isBm9EWuujqJ6oQCqoHZRElGpnWmMPSwwaj9SQaJEOakppt9dNe+xup0fZ7pdpEgq/RqkIqpVJelDbAgSGdtyhaacjSrtMyFBsD+kifX1balw1Fk+wQjhIC9D/Xo0iqa11pmPepELr9Ui9sUbaEFBL7LqEFLVaYEpY07pAWqaKhhQ6wi2x2SqkSkIpVcpjVoNK5/BYVOmkyBTxE/oWicpskMTitbSmvDxY2LlEg6CTMZc6TKrBlE2llEUJu19I1IYTJm24xRaIREwBj8IUdad1sUGJXWUPt8dqrYJYIpyMaVMpbczh9HpDUoOwUdIoNEgEgXZJaa1SEtYoU9aEISJp1whgacKNhdSNQYG3Ih2x29MhuyGpsNsbFW57u6O0XRluaa91NFbYIwZ7IuQxaNoj6nalw61WJivsdtmgXeMZNHgFjYOJllK30O1J2N2NGoPakVAmHIMJTcpt0EbcarujNFEr8NiVpRGNplGm1gwqKhIV6UaNXSKwD0ojdoNTobQ7rQZ7yqlRpmC7PRl0a1r8au+gs9Hb7mwJKBUhm1aRsgnD6VggkgqoSsNanTqlJQwKrVzpEJq06UFLTNZoY02S2boCIfC4SFZUjNyYI0xLZWkolYVxWiajsXAqiIdlUqsi7QSKlAKThcISSWkk6Pd4ggqBRyINuRVBx2BaWjoYwpODITpSMZg0UwxVazA4JYOGpKTC4PdXJCJYi8Hj9ChL/aGEQZq2250KuyEZNGhSTq2P9O2wleKNmgoo0BjolFDjTCfsYau3ViY1eCNw0FsRdOsqcE+tWxLW2J3p2lpJWumV+Stqk9JBTYukxeumI4lGqZry+a6MkmzJ0F3SbjeEpWpDCLbYBZKUplQiU7r9ivZ2ibNF7Ze2t6ed7RVJaanbAZOlHmmqMSlNlwrwdDIioQVuJxYJhaWpiAxXpGQwnEwHnY4UkCrSMJiWBTHO0JdZMYm7WFIrorzCidNOCZBYJTR0+p3StMwJ0goJnU77rcGwX+IMOazO0pDVKRNI/MlBhSTUkqIFgx5pqLFU4mivsDra29N+tSYcTiiTfrUtGTR4WxSDtnZrqVbo92i1yVQslvQrdW6JPTAoUevUdEtArfDUetPJWns6mVDKFBptyGoXNkpbAu0Sj7fdGknYnehOSNqVKZlGmAqraz2SwdrSYEVti9WjMVgjSqUipTEoFHZNOG1IpFOGWo9iUNMSbNG6pSFhRdDjTaRTmkQqXFvr8CuFKUci4HG6vaXSCm8FLVAagkm1OihL2MPOQUPK6q5wgNLBCObwOIDDE5H6HTI8mIpYsXRYiinCEmj1B6VOvxOXWCVOiM3SLoHAI2JZV6r49+NeiTxZupynAvmycMhNabDxGAR8YixK0EiVMLU0xjmJ0GZ41nvFzbz5bFzIZwsADJSKSIpUICFefoqP/FC0FOdn9jinvgto5KLifVwYJuVUe7Mt4wQupVyDZCSrr+xyiVwsEUEbSSEIoh9mJmMYjuHo6FjGWcX7/9BheddmvteBdwVh2WVXbkuc96tBkLkIaNqF488ZbfBsqMZ4BvK4GC0cP1w2kBny/iXIOUshpHnnCpbxPkLuOzrjHYRceAsEmBRwLhZUfTYYtAKpJAhpiRTHrFgQSoIA+tHc308Dp1VCB8NBgEtwGHTiACqsUBq2YrRCgtNBRRDDgziGZrdSvx+XSqWQDkowzCnFodWJdo0DqVQKYBAAKe3HAToeLc1QRJq5qNzpYpBzsPK9lNUz4r/kPSo0X0GB62TkhZVypIDP68ppkFsR59zQs71L8nb5TLEaVBNeN+2Welw+tlgVy6ki557ZOFgqItnR7Qxl9M51VN10ohZfWn9O8d1M2zGT9hbb93QiF1+k/2fflxy5GbblJSSiFG0UJiRJkpi2Y+clkRviLXqSZDqv+IyG4HyFjP7Yq45zeZP9WOcyiz3w5J5haZEZNQpiapb1TV9e2eOiXgK5oWRQ5HORLvEQE6JfaOR4Gec+31gg94Q98OSueIldMblRGGxkWLFo2sX/PMxsyc2ZqhUi1iemXFR3Iu/J+fLOcnrnPt9YIPdESHUkxQ7Odi9TtjLsYn36lulGYLUzFGOSvPh5cbEiUjXJUBRL6imUSYnPfybLAl4FYIjc6pcf3ZwDVFhY0tU+bXKzsyM3N1s3iKg6imFZPctq6VwGyxye5QJeRehIckbJBDMFBiVRkmVqp09uclbkRtxWiyjGxegtcpak5H563sySBbxiQOT2BufuutOQ1lIMG8DB9FacZk9u2EL6GJLxyd0Gn5g0p/F5m1Au4BWDlyJJ4ezT6IsCA5iS9LFR6zTdjXaWpHQv/CSBGKTdItbnY8zGRphiWUrU+KL7WsBPHnaSZGNzWMMfQtjOUkgdcno30CzJDUEpw7AUKbK00DDlEovJBD2XM4oFvMpwsyQzi4rBzwcGSvUkKU9Pk2IJliRts0huC+mRro3e1EgDYCUolg0scPsfFh6GYoi5rJuPg6SZJY2yaRo+syM3sMZZimRYcwKl4EhtPpaa3+q7C3iVECFJVhSeu9ENAojKP7HJac7nEiRLxvAXmwNg0GkjxRSr11fwSUoGhvJNf/1oAT83pBiWFMnm8NENoV9OsqxgHsiNS4QsSnE3qzN5t4Muyud6+fV3FvATgULEUKLI7Mv7FAUEUkTuimmWnFOSnJn8QuSW2hkfRbrMmswcAnr0KDt5wQX4jwqJhaHMnjkkNwagnGLZxDQLG/LkfjGfdFIvZklWr1NA3v0DUyKWYjXzWn53Aa8QpBa2RNw4d35uBBvF+mzTrEMRoBhS82LkTkcZkjKzunBW/w465T6KNc3hEtUCXmlI5ayPap9bcnspkorS0zsET+4XyA6F0lqGpCifJYSP/zpI+Egy7lwg9z8o6CjJssqXsKMpYCApcrrjZ4BkSOWLDNx4KZK4YV0VeUV3MBtFUubpeiEX8HMDHiNdrHBuj+FmfWx8mvEiAZKdOblR0Rm/maUo1iyk87VUtBRL6ZML5P5HhYaiyDkmt8dHsRbr9CgWQw+SGZMbh0GbT0yxDDEhQAqrIFkfUzGznS3g5wMDSVKxuR3bkizJGqdp+cZQCO5MyY1hoJEpEZGsJTSR3MhUYe1zenILeHUBG1mWImZbdXBqpPUkaQxPb9IaY0k2MeOTAP44y5CsxTAxPQmmGBT0OKcnt4BXFzDEMFR8bmUGnWaWjKfmlNx2kvWRrE0yIW4bQr/LxyllL1jd/5CADhdFWeZ2ziUxk+JC2mLPNgbQNpIi1TM9AJ50sRTF6FOTZGcwq8lHMXHnArn/QRE2U6TeM7fkjpOUazpJAzlyz6w9EiFDkqxrcJJ7HEJplKQYi2wOF2AX8CrDKSdZJGUwhwiqKMZVMQ2GQUDrKIpsn+kBInqKdTE666RDQIBpUS1Ez0vTmlzATwsSFcVSc1rcAdA2Su+ajvbaC5I7GGBI0mxpwZ4hN6hFdacaF4zuf1TEfKRvbpcocaWPZLzTMA0wII1SFFsxAy6iLSNGMcWatXAyhyGk20mSJF+CjvgCfppAFbGFcxo5h80huZG8UYClXC5T5JmvIMDciNzKhbjAf1S0kxSrm1NH90zIrfKhClgzIDcGBEyJj2Frn90/BMCDyB2Yw+z+BbzCgKCFpVjTTCPnZjRD48k9jeFzSnIXPiQGaC1J+VyFioxDAJIkSVJR6UtzlyzcJD8lQJBEDgX/5KuWVSrMiEziE9Nsx1dK8PHdgFx5erQ9WkwZrxjh9omZaI7c47Jt42UbsWwt9rTcR5IthaTox4ui8Rj3+kGHiGRcpJfO10UcP4twnCIpUXC81Vx9+QlFerBnJqF07nskqojlCkxmimryleYhXOD6Kw4IwiKKLZhFmSUslpFqg4U24KUS+bcT9SHzRlo3yTJ8MRLEYyzDsPHBOLsxBEBCiFlLacGG8vR+5nNMyVAsa3Zk5Fvz4l1R7WJFnGR9FmeuUc/uF5/OqI7azWs95u0kbyn0R7p6C3gOJHEfoxdMdYXHVVU5JudfyHFaT3JTTByQQSNJslFpZsjFsLwhcPJvFCYfyRYcuSf/IHvosJFl9KxaCiYqdmYa7oyTLCWXje/kmcYWoOVk+wnjx3pe3zEr0MjdnnOhsr2Alwnc5GNc7snklgJP3dDQ0NDdHX39vCJUsFGcgd7OZ+DaY3ITQRBE3ODkMrsUCZMKvVcJBRyTg5EKA8Ig0SdmUCqOtdSuVqvVBkNjCtEDYIoWgwF90t4u4ZRAraVmsmRYVGFQyzKmREVFRYVMJpM5M/dGOoOwlVfdCVa4XHUlZEtawZM7aFWE0fZhfxCJ3kjkJEv57GEF+g1vYzm57xF4GV1rRJ2BhDOZ8FD2fdKKbBRMEo1GoyqVShWL8DRvV1mi6DyjQgfXxlJ5v5iiKEq2YKe8WoAAV7oo1jv5utAg2tra2lbV1lbVVh1HxAneqqqqOojQei6NNvFuHGnaVF1dXd1abeEUbEdXtrWOIKy8lULEGbxzcC3CyMFNm1HlH1xczb1fuXLtnQgaVz29B9euRT/YtEmMxnPM8rCP7Tt7au3IpjsetIfknk1rV65cuW3btm0kR+ba/cdHRlauXLly7Z4kTkPgL+8nXRfuPdi2dhvDjaO6h9u2oWNsW3lRg06DIEnfyK5ta0e2bewOIkWh2oebuDatrD9Xy5UyrKlfm8EeBbJt7HurN3FnMVLNcLOD4eq13GlWVz/0oMmEYWUb/3aktR/ZQnRPU1NbdVVTVXdwYSh/xYCpGZK0PVuXqbG3+uCmkZHqgwe3udI4AOEta9vaeHI/NCBZMFt1W2trW1tbW1VVnQSRe6C1tQGhtW3jIHqKC0f491UNrRdLok5An29q43CwobUdJczY2xr431dVDXPcHdrUx/RcXd3aVlVtR3pXLSNtDQca0PcNA6isPOxsq2pqQ/s8VI98fzB1TEyOHjnxoLW1rZfL9SkfGzuAvj9woFUfBBCPkRRVfbWt6lTVgY1hJIlmOniAb0RVFctZ5uer2jLYJkB2emAt36KqqgM9SJeL7mpqaGtCaN1UiyTO3dvamrjvW6v2pNEH4uqmtrYDTVXHQj/2tVzAJMBSliXl/skf0yDJlNRRrHi0px+VyQEgRVUOcbjSaW4BGLDK93Qc6+3t7X20pdOLNPo0Aw/vPHz48OGd/ZUiBw5AqvnccYS9G5u2dYgUAJh6zyFcOLf3PCvAAZYaflhfX1+Ptmm20RBgxPkasnysde+5448YB45BWU/H3voLexG6tU6AAeX2+r170fYbN+tDiNyk2HXl7Orj9Xv3DwuRupv9/MZHqA17Hz7yVQCIKVkfuffQnYt3LtypJBwAg5G6i+j7C3duHeNzR9u7L2YwYHSg0HDVlT3HNiNs79dKIQTuvs3bz6Pz7NghasEgkNoqO7Zz2DJKoNRQT932jjtNVQ3HzP6FtdBXChBGSIYUFbAXpUqTyKjXmy16ppaTdlS7RC4OerOH07PXmRmWZVk9xUQ5AcpSEYOgZ0m2goYQ0EwdAtX8cOMFSxoCbLAEQeyrYxgurtUvr6srKRGLfb6SuBXpOg6WlHTuHxaX1PmoBCcAEvd1+tBvfIzZimMAL/X1l/h8Pp/YpU8gs8SspzZv7K0rqfOxljA6gxDFtYFkRKjON65mxexwL0m5WIYVJQENoNXIcmBcpJxvNZOBXtyIDBWJyajnt9DHpRADsJFhXCIEUu9G3RS0sXoEliVFKHsO8+j17P6qtjK+BQt4VQAhVBjNpF7wLLkx3BlUOJ1OZ0Qm4eZetGOQQ2OLgPMF40lDrd1utycCSi4gHAurYzabzRawxYS8f0GN5mGqqKv30Q5RGMfwtBe9JwjCZOMycyTuaAaxBDIJgNPIdu6pI1RyU4zLGINqm5zbh5yo4NpgNZi4SSyhijkAkHrMVM2WLXodYZJH+RwHp8bETf5isZgnCLli9n3DKm3AFrO1OJEnBA8FAoGATmeLCQU4p3yWCER1aHubQcZNGEPtGk0ikUgYlIPcSGwd9NqVCF61gusmR7sSfa+s1ZRyvWZtrNXsaWjtkM9lRdEFzBgQYhJCT7oGn4k6ChrsdHYb/i+et7LDefUyirm8+m6+nNb4igkMBoNBq0fko4ycZ0GCYLVanRKuHiAmGQfOafY6owxLuSVBp1Sa8SZarbTVarVKpRntWVoqlQaDQT+Sw4WYl6JYsTdNB60SfskIQ5q4OI60hrkfDDIky8qtGC+/yy0G8V9yc79xsd5JXvSMyzJ7vjg28T3n9c9fe8IwrK6pYYHcrxa4S4SScu1w4hI1jhwTg2Cc3jB7UTnSwMkLIpP1+TJ+6YzGsSzOiuLJSUd+xrPAkdskJkURXiWa5u+PTCNzv8qtoWBOs8vFmiMw5+TGQd6iDAZgKSoXaLKOVx8s5JvOLkbln0v+Wg0s8Cv+9siJXGM1bW0L5H61wPHG6yNJ7zPB0L6GJkY6cUWOzg50NJ35XJolIMhfEMGyjMyQIh0nfWiylpe6Sz+79IN24CQYvT7ECYOPL3vz42y2RFqWuzg/F0YVuP38W+4LGuQtl0sB7hGRFGNWjDcwt+o+8Xac2AykZZ5Zbco7sdwNNDHsgHPR9zU0LZD7FYSBJEm5dFJUhrSramTHxGzy582WnuFq9rd+k48yR8BzgUZu1ieaKultwhMDV/oYcfHSDei2S1IUycZTYK4Ba1rbOuT+hQnlq4ZSF8lanM+Su/VubeF4jmlizslNq0iGMrdMta2MRZEn0zj2LAH1rVXn5QtlCV85KCwk43JMHHihtKuq6ryQ/hHIbZ42udMiFIvun2pbp55kWbYUzDVwTX19H7FQUPaVAy6nGFIwMWAI/kgjt3wm5G7R+8RM7ZTbBs0sy/rcc96HkBb4xCrpArlfOQhR9cmJH0HFcFXTkPblJGjRBOUT8WvTaLKGHCEFt0PkJinz1IUmpLk5ro31MeapR+VgnGRd5OCck04KgrH44EI+2ysHpBRJEhPdB9DaPSfk5ndeZJUaohDVqcmddcSg11IT6dNbFFMueSNys6x6zskNAbCmpQtRga8eQj6SFU1yY9Hlc0VuHCvmeOHJbZl65M65+lIiH6nX4c8jN+NjlXMf85FJzVlg96uGFEtySyf5wDonkns2Vy2P3Che2lFMGnIa5MYkakWW3ALWxzL2qXmLyF0yrQTO2YJ2Sl5QqGoBcwmrUcwyEwvz4JilbWNnTiwJLce5Rsp8EVAwwbHwfiEAqT41AJK6qh5XMsivQg4urkdJlpreQ49Y6+TtOXKHuNXHIoO7+vpaKw65xXuNj2LZJJgSUhvJMqxt7md6tHFHYloZawuYV0CpzccgvbF8YDJzD6nJH2MVS/7y2dc7+wp43rC+g2msUIY5hJ1/uAWAteFPm/TcxA+C9Nn3TEDqfPTRd198tkozaXOe3GEAa4+YijQ22PHFDil/mwQoijU9Z90EkZsldXPuo6Pd9VVDioWB+5UDBg0U47NNqF2CAzytN5fmERYml5xK6U5/eeFZowIyA4XJjdFN/7FaAv37/t9VLGf2QFD3ejcAdNmT7YKgP4xPzr3Mjtztm4usO0KgOL3BzU/g5KyY9WJTWxyI3JRPNU1dh1nA0NZ0cca1lxcw58BBKcmI45MDI/BSNz1OZCkAyd2HcWitf000iShTTKLw4Jr/vTsFWj79v0vFXA4ylBy+HQa0Z8O9NEQxhZOThDlyO5BVRBeddOpeG+ZCm8IitoRN0FObAlKkEygm5n7pUNPUetHlfwk7WsBLhszCMlQoFwLKGd2TLGkY3n0NA6D9yUoIpN6BIW0QA1iLeHOnA8JYTAIwBbPFggM6YPezlZwBD3GsdMnjT+yY7Y2Pdoo9aHeY98kVCIBszb+M3RmIBQEYJBUQ1ppwgS6obibT3jqf2GwzOQfNEoU+DHCrvAKDie7uQRzIVMHGvv40AP77i5woySAkYknX4HOktDEvxbpY49xW10dItDVdcM19DMtPATgf4VkM0xpnuBjllzMi4SaSoSbqSKNQ7InRcqF3LkAgHfr9dhDc/uSPf/yoC8Ndb/3mb9+v00juHcaBesUvfvmr88H08vtnv/zTEQcfhmr7vP5zC7i7++z73SEuwq/kKzn6E7v8m3//p7fXpsHA+2qgOLDCP7qs/vFv32bv9rpI0di65NCHg8KdfQB4nzZjnZ//+c83vNC889yS3/5uFAf4yndb0ISzBVUTcmBTV5PCvD6WIc0L5J5HZCozYbMsBgBfRI60UGOUFEvq8q1XiKd6uhV55ZggGHzjfvP201+sbsGMbzxsNH9wNujduVVf2vVlj/PEImmw6rv+xo3v2mVn/nsns+OrAD/nu/K5+WZX8NCK/V/d4lyBcPNOA7fObw1VmG//uTe47WkLUFy6p+j65RuV5ne6TMN6svz9Brr3SYXi9iIn2PyJ1/7GcqXwrTaM+ePrHfH3H0EAmj8LoAQBA0kxxiDAn0tu0idSzPkVXSB3DhDLEvyF6Z0Jr589uyHAIj6WNE/0l6nWVgtzy+QQAvtnX/z1P54MpDF87QrbhbfOyPGLb3gB0L9udp5YZB38tBpiiaXi8Pq/ioHqW4bPvxo7o1600X1p4/Yvj/MTykfvCDCIB1F4NhbeukZW9UESJhevUgy9Lgah02wLQ5FrXzOCjicJuON9pePMrmDvazoMW7k07frNDuA/3Yymr+8bUUmKWh/FyHE4dfQLIrdP7ArP+QXlyO2Y88P8FABr74YglJqH/c+ys1NMT3Mn4S2ql+NahX6zj3F5JjRF3FBdHhnfOwaA9uNblhNfjKSg/94fXruxRUA7l5+w0mDoK41zwwFg+qYPB+1LO0NvLXZC0Wsk9yv3zgOSc0fLr/f0fbKIi0yFj55m9ENQgP+D9eH66xHg2HdSNnRjEAC/X2Hq7/9guRUcf08A3G/1kjtF9IGdERx7+Njh+lgI6LQTALzuIzNqEUGyrPd5jy6o9pE+H1s650uHyoMNd0jHgi8QTeIP/sIHQOrEb2J8LBHiKM4ncuGLVuWMXS7OCH2TRkWmMTpfZBGA0g/3ckUnZ90cKFUxDNmOTSR3U6Uht4gDoPLjARDa+OtL7uDJ9wdSAGPiK26EQfjqG5HUB2NQ89oxACxLbZ6dmzBa/lkNt1vdd9tB3c6TK8z9S3dzS4mw46kaw5x9KnRm0fc2BY/tbATOdav8w9e5LM60nL3yZJgGK99vBNLW6/vWhfGVb1YAacM6v+t1G8ZPeJs/FtIASIwkSdqfZ5bNG7kNG1svsLKFyCkkBnDj/7kAwOBr/1SeXbLN5CYCIN21b3IfQQBcT7WZV3nfRT7Yz72d/egNDayP1AYnkrvt/ITYkopPLwAgOfb9A8eW1y/ILfWfVO747IK+fulRh/PoYan1yIflvhsrwqWfHseB/ZMBzjfS8xsWaJ78qYxwLfrSzO285omKxvzLPxmIizo+WSbEO7/ZTDS/flvRfV2NbtJwXH9nazsED99IAOj6/V9LAFB9dEhU9lEPZJ8EMq258/4gH8xNMo3PzQ5C5KaYOSc3FtrbdkyUWliiRBbal/93Fw4tX//6WF5lSc7EwOChVX4AreNeZ/6Kij4WcWvOOF9Gkq/CmNzwCELgB9M0Y6YAFDCsfqI3WNxQNSTMjy0pXVOJlDjK1g+GL7zxT39571E4ffD7P1eNLE77r57CQGDx33+3WAOTZzZjeGhxLxe+d/FrDZba/b3K5qv6t2ZuN9HX7wKA15788t//87VDSgx4jvzx/zx57bKkZE0pt0JjYu7sFQBwd+kggKn1b4UARg989bcvbzmh+R0NhkqbAOfyE2kMAIeLJfXPDRKfL3IDqepujTz5Enb00wbqZv1r7953YEPXdzchEic2b6xLAQET1pZtj9BXL0lA+4M+blsa4J6auyFb9eJfrmtgcOi4u3YA+dQEdy+yQdzz1gWAG68GXkKjHEaS0k9I2BI3VA0E8kduaSm3vIyh0bJdHkVkdHpVgkMnFVJ1C4ZJ/TpbCtXVEaCKCikpSrLtb5MBMHQ8HCUrl/o4eikurUtBFP4Uj/Nyk7JaS3uiFEsbuLAjPyrCEwGYo0KC6vrV4ugeaSdQGTN/IpMFH/u4Fw0DpQzLmp/rBYGDLMlQjHquyQ0BFLIE9g8/cqPypnveql8/GNzVem2dEwSHPvniF9+PYMxHDTu//20PfXWN1b3qNT23raRzzQdf/cFFfvDH//hiw0DQvPTL3//hRClovPT7L77blHa/vx83vrnE8xIsPRgj69hE/iNA3NA2kdzjIZ38RCDzUGl53EBDbLJDLhPWinP58tZglPVRpdxv8J7PHlq5tHiYq86NCp/gvMw1wVAofpAv5p0pLpIJzcr4RRpXvaVGyfODDMvKn+u/ni9yo9tUE1owuQHA/IfXkR+aBMs7e5eGgO/Ly+3q9xqwzr98OFr73nl8xSXbpa9q+C0tr60Qmz7ox6TxL4es0P50t8mx/C2HZORx3CEql5Z++lD/+WPty2gSbGdYH5G/fMyRe9IiZYaOqPQBemcg2hMN/9IPOGpCjM5NCLKL5+izII0TJJuN5w6u/HILBONxLKhCDn/TYDhHbpcrHuL87Ll6OVxZBywTx+24/wnFrUoaWJZ6vpYPR27SNffkXvCTcIAYbHlzbfsHffJljdTTWv/ZdwQg+fQCqPlSjKcaGOmibz75z818ATPQ/PvbA7W2MAC2H/ogvudLF6DPbrUGPu0OIl54Pn3vm98YX4o3ECrMTIlLlvdJIXJnitBkyBus/8X//NcvV6byytNn2Z0XsgohlBhJihFk3ku6OwFEMiSZxwSKIsmN3BaSjcsApzgizZfpGC/SE3oYx7niT0qS8T0/mQKRmyXnfuReGLN5YADIv+lxnl358LBV+FFd+GZDUCpYdgd0PtEA4MSll/77yZfL05laTXv2ffDkPA5w4dc9AGv7sBFIry3292ytwNB+DB/97fO399MvZdjAY2Ixm0u2xQBzoK0nNmmqmpP54P62MAPlAcnz9+00UaQ5NGl1v6DAgVPOsFz5nucmJkMtKfYlpOA5yJC7du5Hbo82/A9vcSN/CHbrSxte/+aNPVCwc2X46FUJSO9rw0veEKLe8W/dran7ei9ntUIJlCabPlICIPziLiY9/skgAJuWKjo3CDGIK2DitbHI/q/J517habVq0EUx0WCu3F/7sYf9moKUmLKUWiEUIHexLTlyQ/B8cmMB0kcanusnQuQmSXbuyR3sai1/KRfipw782kctoORvfzCB9JplyYc/1I+O/PZNT//HBvSl/+bqYPD41yyaj4UfVHf13XtSCzDd29txKPricN/mj39rcb+z7ErlqWtp5dd3geDSWxUv5cKlLT5WHxknFQ0ELqZw7mF+vctCVdGewVyQm7b5SOb52sA8uedh5HZcaO1twf7h6U2D4P2lMjj4+u4UkGz8LCFo+v2floxdJ0TruJVp//UHUhi5+UCKyL1l5+/+9nhIigH1CQoCyfaP/vL52I1jMHDvF/+2TCz1flsJAPHhlZfSLKuuTswmsqRCZk8tISi45QTiTaewidNEUS+Z3FCqK2GZ59/W80Zu97aGvUbJwrQSg+eHMCC5U0NDEGtoBLRALQsmaWeIu+/9t/owKa4T4dyYmFSrI0jbiBZIUIysxx4KKmQA8xva/YAObbIBgDOBl9KltJtkyWhmIstNEXHrS/IBKAjKZ0TlLZ87903rGFIeef49IwUSooR0tUy1P77scAvpYykmNudqNS31Y3tZ2QK5c4Av8u0EjdCXBywlEjGiSMZjjSJZcHz2YSsoHcyflPsoVyBTuX2KFuDQTzCk0YPu/ylOEOdmI1ExkmOdEsgir3BRJMmoXnJnPXueC+R+pUELWZKqzXi1cBC0e/GXMHJjChtpcYlJljHLn+OVDiYSHiNL6r2hqQNZMRgu9fujJSSlndpVQ4Ok18j6KJaxyObYEb1A7lcbWAvDuoz+7PJLbf3Gl1CFDGJOo89HUhTLUK7nlK9ucfksZpZkGVdy6keTQi4iDCaWYqgpY0swzGn2sagoD4sqCs4+Ameq81wg96uNoIoSs5m4VwhNI1VMHhtTHv4vRmNZuWh+6XCCWjScPNlEfoS4iyIphmI12QjI8SLwSAmPr5CG/kuxLHJKk64S99QkiTA+kiRJHzth1Ym3sSeA1pGsz8ewFFKOmIBiN09G5BjL1qdHC6OcWDAfCeAXSIvEYLasHLvILmTivLKAFRTDqpwZbwlZ1TqkHv9OOnSsUSAQCJKhZDqVSqUUCoXCaXUqghKJVeEM0k5rUErTGMwHv1OAaUiGFaOVxzwljnxyA54wEI/6OHKz0ZxOPJYRp57ARFxDceSmbMHsEmYWGIbjNC2V0hxgUu5ifCWMj22xSqVIWwcJWPn9fn84HA4jVWGHI5mMREKhSCQSQefn8aB/S0tbWhrdFe12ZcAWJYwWPVPXOdrXPHT3Qoe0SAWixuOte30LmTivLpzIKOBHaETupru5ojz21374AOGdD965gXD06NGj+04eubriyINrh8YOHGhtqh5Zua3+3IULFy50dHR0IN3GLVu2bDl/98rAnQMNB9qqqurvdvcMDQwMDPR1Dw91d3c3Nzd3DTfv6OkaHu7e0d3duWPHQD/JkXbLcOWOPCDty4GhrubKDM5fOTaKtmOoyt5jx44d69i+veNOBkjnEulUIn3L+pFNTRcpMcWS5K3LbadOHz58+PDy5cuXX7p06dLixYsXnzhx4ujRM2fOrF+/fv3169evo/PauvXmzZs3168/sWbfujX7Lt1evOreydv3ll9ddX/51fsn7y874i88yabddw48XMjEeXUBocFFMrW8JDo0jTTczdXYc9y+X4n0H0tGy2uam5ub7969e3fP0N2OY5vL7jzaf3zbypFNB1vbGg7s2rVr19WrV6/ev3///okTJ04s2bdsydNP33j/zSdfvffu+zs/+OSTTz55843XP/vuu+++/fbbb3749suvv/nFky/f/vLLJ2//6oM9DCLt3c9/9cOXX3755dcZoN+89uTz9z7M4IMbu+vRdmzz4a1r1qxZs3jFisX37t27t3r16tXXTp06dGhs7ACSr15Zv7F+C8uQpM/Vub3yCicRi26W4eHh4Z6enp7R0dFRsc9HUSTJCUsajUYjUgH0er1eTULd3uhGwoQVFdn/29Xu+n3ewhMHmB5u2mOULSzAT8Src7NjUCHyUWYZVz8bxg8euJLLEA6vXnTXbFKZVKpoVKez2bzeWgRvba1XKBQKvV5vrTcQ0Gq1WqEQ/avxCvmXQq035uvd3FHWp60VCtGn2ljAK4zFkBqkVhuIBQJaL7eZMBawUZRPz3KakDb0L78N2n0goBWiAwYy0LOUjyoxKYX80bk/3HE1Gg3ajvubUCaUcYr0sfqAUqNJIMnMhBJ9z7ee16PU6ZAOplwul5tMJrk8zsOcB4vFaCRMcrkpbmtbShUTUg1bSkQ/P3LnLUVPY+NngWXKTucjM22ZlWrHjIEBqYak9HacO6a8Go3c4xFNu85SLaFkiDdHG93t7e1qtcGeUCo5Lnm9Qq8QMRERhiOnDqmrRlWqqEpHGI9duHOMiRNyuQmRR2WJWhDQSMm9iFssRkvcKLcYWTEl1vOfo395oskR5YxyeYaAnMiqCTn4+i0Er+IaVfE3hM2GCM7fElptwCv0arUWlmXQrefVIJ3UhN1uMKjV7RUVaDQeHHS7GxtbWkpLkc2dTCaT6QyseZBIgpz4pZXGe9cUnTRCgWU6QWT/SMgoPCLB0vyPkVQdH+M5j+RGOYxGljVycsCTyC2tOmsKTq4jBDGc1wxD8ziM0zZF/9A0jeO4NBhEjJAGaVyq7ffFrM6g1SpBM7qglZvboZdWTnNV4nRanRKrVWpVU6xezU/60L/5FAsGkRYrmiyi3TrlFGuJOGkk4oqOgyaeWXHV8b8o0JzWufoJnE+IKND5GDaDDobY+WLkhhALpn6WSn0Zv9j41H6KLZ9B9otJoz9XsAnOSpJm5qcBIFQyLsrLTSNNm6oGasefKMGRRUZUOng8aApmz5xjdJ5SJA8MlyKXhVRKS3EYDHtrZVzVeMD3Ugu3tIiNn1xGyxLCcNznem4iIupqukLvSgTBNAK7BCKXAcD83oXjI0rOdTi5o5/1+mAoKmpLMbMEx3KZSj8vYPRdsoJTZUbI/4bmRzE849TCgpPACW45BpVKdWnEKs3vGmxQHcTweSU3gkRO1bEc9Wyb2gZqx09GunKFxYlqCUacKBYXR+OqQiZLOxwpWSpU2jiYsG1cKc8rPFF+cNWlS7dvr1hx7+Tq0w1N9Rc6jg0PDQ33DQwNHdt42gLGHYKYIigJ4lapRErjEKQrGnH+icDZanhLnhQHPJ+pFMtlTTga0aAL6XBpRUzcDh15RNd1Ee0hvxWXWv1hSalZ7BaEIo5kRCYLp514+oX6NPOjgaI2N8SdL6UOwasGCIOXru+7tGb99aWff/PR+zeeLl6xq2Hbw+3bt2/v3f7owZ2HDQfaHuxb8njnm2989dVXX332q4+/+fa1T95//MHOdw5sabj/wTtLb6xftvSdncvWLTp44Up5HWkhAvGqtz66dPXayN7egT6E5uHKgcodw32dlMu0Q3Q3COi5IT3t1vsoE8q7FZ5rKveOXyy6/p4ZkVu8fnXZo/0bR7a1jbVVHbp8+fDZI0cW71tz4sSy6x/u7Mg1Cjtx+UrPjvO9+zce2HXk5L3by+/dvnTpxM2b647ePHn/+pIAGCcMvfnytbEjJxddPXyqamTjxUcdHdv3XBnYs2fPnlu9+6vb8sYK7ycPtpVt2dHX19w1PFw5dKzjzoX6bWOLP/jsDz+cXrk3L0Vu+PG3H91YNFZ9sLVtU2tb27m1m6rXHmxaOzKydu3GlRuDLzJePI/cEHgHothzs95+csAA1Hz913fX319+ZPXYotWH204fONDWMHZq9cmjS56+uW/D8g//6U9vf/3mW8v2rTg9NjY29mDRrrOrT187VH1u3//v39/+7d//9su//uH73//qyy/f/uH3f/jjL//2i9/+8d/++sd//ePy/dVVY6d2PTh06NCh1YePXD15//alS6tu3z773kf3rPhcLSZLbGSJz4BBoNDVsN7cSe5dJULktn14eODWnb0b61sPNFW1VW87fud8Vwklimu99s6Te3Or4dKja7U2XVSli9kCcRdZ0tM1sKdyz7HeY70ddzdf38AZrhxhrPGLZ6oHhga27D9+cOzsvTU3l2xYuuGtp48fP368YeuyL85Jc4Phnv/z3Wvvv/HRRx999OT1b7/+5LXPP1i/avWphgNNI5uqvrgczvXIxRNldzb3duzdtGvF8q0brp94umT9mWXXz9zY/cG7T949+ULljJ87cvuHxm6lf35GCcBA6Ws3hEpvQEdEiZhWGNMKNQl1RbtXzvRs773+zbLjO/r6WZHcRBCcM0GHHF2BgE557v/7t7eO1G++Vfaoo6Pszt76h/Xn9l7Yf3xt1bXDtz/66zaxqXawURBCk/hIaYXdYFdqlPYKt6Djg6oK55w9ACMuyiUqRbW1bUwiV07t4To9Indo6YgwZosSyE1hkhM2VVQXqxUKtTptwHypI7caTq/ZFEPkVkVNhMqEvIexQEyni2m1tSrR/Xt8lUOExk3XDvV09nU17+iqHOrq3tHcvKO5p6+vD/mhewbera/NVW/ofe3hre6e8tG+5u7h7v7Oupqa0dHunq6BK3t2bHmyRpebzp07q43GbIRNFTcbRXq93lfSX95ZUz7aWeIbWn7ohYaF547cjs1tG3+W3hLof293HWuRRwPCWm1AKIzpYjoizjm5YqqxZQd6hLYoIY/qdDreLcs5gAM25cX//XqlxoFcAbhU4nRKrUGrhMaRqehMj/y9nlRrYlET73Y1ElETEbWpCHk8vvnX9/VzF8WA2SnWZ0EPeVlj7mJhZeuYNIDY4DsjMVUekI84mnl980IuWB8/06Yqtp3r0oFc3G5y2/Kmrp7ymtHR8uHhrq7KoaGBu1fO87j76KvTnbl9HvtoZe+V81u29/YeQwugm7fvOX9lx3BXd01NTc3Td/Oy7cpORlVF4LvaNgvbAdvx1Fdkvpu61bBSXPrzs7kRud8RC9AcSyrNhjXwcMgiTesv9whk/uCEz3nU/PNbZj/3avLvpPTxP9yxTZq/c14uDILYZyMVczhG+KMsIw74uZDu3NE3n2DRVKxiQ3WgGHHuncsRUXrimq7Yduy64zlPhP/g9ZFOY9Sm44Z5lQr5sDNLKSrV0FcHmZwdv/mNC3UEITcaLZx73GyJo4ehivvNO0/ZHGnr1xFFyb1iVuTu+kck96dL9f5CJMWh9ML9vYSkELVpvP+f3rEUI/f+P08i93gFD2nj02r1HMZvYqm4mKK0EhzmS89tX08hcht2t8UKkYZQqaJV23LFBqU3H9iKEuxE5XiEFcBXvn+8U25SEQRPVFWW4gShC1S+ttGSa8L5dy+y3OKQihuYCSKqs5kI/s2Nd5hx0sK1i+PFjk3NgtwYgM0fFAuO+hmT+80lFily9U0mKY0F917abytEbZrGxH8pRu6g9NHfL+qKdJVj2bm5kxZCDvYWM0mRttHO/Ot4fpkvDQBM7D5QkLSI3MdHcrzBd+8qahqIz5Tg4+TGOl47PqoiEKFNJsJEjHNXpbJFj70+kqfAc+udMiYa5W8CbntCpUM/IEwm09bdzPjDDNYvtxQl9/IXJzcOYN8HZJGR29FRtbLk50luNHJLM5gwAuOSc/s2mgpyWwqp320wWvGC5A7e+t1DXRGPqnXdfs2M2zgTBIUUyZDnq2OZA3K1h4+SaGqn2X2QM5+NxqhKZ0OxJohcOhNBRKMdbTmz13rzdJRbJrcY43qjSS4ndCq5XMWNuyU38nT48Ec/PBSrOE4b5QRhjKkIlS1D8Wjvp+d0uU1v3ehw6XTomLo4YUKDttzGmyUm09L1uZEbbFrDoI/l0ZguGiWMMdSSqI5rK7m8dRYZ6ljJUrZIfoSjo2qkrmWmO3zlgfxZ723IDMHPMFjycF+9quDIHQTkH3cag88Qm/tZ8O4vLsaKeJYkty+oIJy7QQJCScxH6UsqqYynQgpwcOwGg0Zu++5WjtyETUUwJUZujGXKCR0i97GGvJF7w/0YInfDp59/9Ye//mrnZSYWP93qkqPt+5fmMRZe+TZL7iih08ZiRDQasEWz5K7Pq/JZtpUnd1Qbi2kDqjgR1al4U4YwPd7qyh28dZ+I4zzTvWeAImzRKBEX15m4Jw55clbk9u1mPIW/QiP3Pxq5aWlZUXJD/Z/fNEqDhchNS3t+cbFI9VboX7zJNJOQiJkCAyAZpfR6sS/Am/YwrRnsuFkShhBr3F3FOz6MhGrtp0McYRqWiG1oaLxyKscvbM0iHSL30b8sW3Vp377FDQxBfrrewt0Mo7tz/nMI6j6+mCG3Tb7lyOpqSkXud9my5N6WK4IFLh7lzBL5o7EV9+61VepVqj0DHLmjKuLzZebccs+hxUb0sWj9v/5/f/ngnEUeJUSL94m4G4s92frC0xUIIPkOWVr4S9nmA/Ulzy0X/pPDlOTGsd5i5Jbi8V+8EcekBclNM9/fKVLhEpOtuRyf29p0NJaUkz6Rj9EqODXJqE/Ue41E5PYsbeBCRHUm247v/+dGzsxY/imJrGDd0OWct4Q+cZ+L3rv9q+aALqoLELoY9d7ROEfing25KQMGzJ9kyW0+/Kvf/u2PHbbzXw1wMYVEtPfTkbzZxf59ZaxKRcTf+svv/vrnf/nNAbNr9/IMuVVPlhlzj7JdlzjbvefbpZvrP/htgyVKMI+XxLlJJnvvxcmNQci8QxUenWG4d+yc2P2zKxk4NbnBlqLkplX/8nocFiY3Tnx/sQi58eTRFZY5zXZFSNcNUaSPckUbwzRtQpVtSAGEeGQ3T25VlF3y/Z+OoImg6sFH/fFoVGcb3pVbR5GevMfFpt7+ww5kY+h0xqj5+hoTZ/d2bzDkOg+PfX6xJkpEjSb56l8f0t/67GHszq+6Ob8goep4utGQy8vcu7zXEo0S+t37WIulZGMZ4dp5BM0nVVGV8Ycb+vEuwU4u5kbpri/PBmLiDV8MRXXMOxv03A1Erto0i66DxBJfEdMD827pEf38zBJkBb/7FuUvyGAcO79qb7Swt4T2/vCaXFqQ3LjE++XF2iIPueSJ9Za5FlaU4qIDt8QU4yMZlbBWzmXIqON0t3MAAB0GSURBVDQhLHWjijMtdPKVvz/0/tI4ejOC5m9Rna7ycG41kT5yT47mk4u/rYnZdLaATaUiunt4G717tyHvzGrfReTWyW1l/7JapLIM+2ybf6jkIsEJXcfObXnkXru81xiNqvRPL1lMcmM0qtMvWZ4l92dnjOOkxc+u4TwjPV8cURG2TX+9o4vGV6+OvwRyY8QSX2OxL90+y88yQViy8wOxooi/rzi5cc23r8npwiO3VPPFw2LkjqxZMufkBpCoWn6uzseSFOvzsVxCroth7P6tbZwTOlrz2VujSz+uQ2yN6+XIQNbdXZFbfseunTTqVKb4me9GLZ2Vd+pHTYQu6+Rr3m3IO1DinTuI3ETJzsd6G5r1Re++uUPFkTtw6818cjcs75Ujcr+7zmiL2uQmnXzNcuTuVulUxl8vyTNLVtzjyD38i8OEihj7wy1dVGUUEby3ZNXILEyHKcgNgbPWPufP0x8Dkvcel6QLrtNMQW4pZv/4YwIv6C0J0sq3i5I7tO/p3JMbmKobLgz1kyyL3IIiLnGXEROS9a0cuY2H/3hHdfb7yigRVZkIeUwXVUX33M75gGHDSYtOJbc8/uc33vzm7T/8dZvcFlOZMuTeYB/fDoPKtxC5TbaHv7qgi6pMNoIw7rHwOTzCzW9sM+SqT+1asRkN1K6n10duPP7wmkUVHe7Lkvvt9USO3KtXcRPd8388HbM1f/ZtTVSHvJW6l0TuwgnCAAP0/Ibfzxckn77bLytIbikid2Gbm4bqT14n6ILkluD23xclt2fde/NB7pGDV0w2kYukGJKifIyLJRnGQN8YUdlUclvlv3y2cuzDf7qgI/iQEWSIX7mUy/4Ott62EKoo+95/fnBv5OKOOlHemmE+uQEQfrC2BiVnrnuDQamMOiKWiUOJ2nTbX2/NVZeQnF3Ra0Tkfvd/fvPktSenXZlwFRR1I/r4vjHXW/fucfOCR3/auv/Ua79bi1o3voC0ZjbkBrat/UVqqvz8SJ0F/t7nfYqCRokU71hejNzSis9fExW2xmnc8Ivj3iI91r7uI6NijuPiIU5sah2ulXq0IgvDUqSYZElWHaLprStVOpOt/MP/53/813/81//eJSd43iAyXVmXq+RKb7ttROR+8pYlxidTqsYJ1vxO/gJr7J2DNQRBuN5dJzfJdRbCZsqSW6c79lkeuRX3r26Pc+R+94qFMBHZWCxCRRDkNydUeWbJCo7cHf/nv//rf/3vP260ROPyl0juItk/YaXj58lwuPPTvnBBjkrxh8v3EkUY7H7vE7N05uR2r/tMJJvzpI+WLb01Xghwf4UuLhJRjK+bsEIcP3ouKieIjf/8b1+d2bb5u2VMlMiR+2jOBwzLbscRuT9+bOSWylW5oEBVzwRyE0vHylUmRG6TymTTRU3yLLmjtt4v28bJDZM3j2zhyP3pcrkqyvlT+H0SKlP/N+tsuQ45e5Yj98E/jXUPjL3258uWAJEj99pZkftmEXIDrHxl39wrzP8oePpeT6oIg+uv7o/ihQlc+vg9SxCbMbkr7n3AzvkogeEyPSmESPoRL41SrspHHUghB993IWqLGVf88aDcqNLf+E7Mr2rz5L7pzv1+zyo5Ivebb+lRXHd+xOskcsdvXO5TyZFZIg7EiM315mx4bFRl2/z7qnHHCix95+wWo0plYt64bTQR0TxyR+V9Xx3Ji8R58IA74shfHgqj0dFPv+2x6eac3MEdDfvdM97fTwJP3+wKFSapdKQouTHPW08tkpmTu/Hep77IHJMbR1KosRDvqYBOt+DWqU6U/R5cfCuq0nV/+0Qsj9tUh//4KBobJ/fAkorx38O+e0b0+ZovO+7evTLQbSZs41Z3+e68ZUdgvn61TxUliM2/Otr7aM2v94nGbXO57cpvD+U6QfDB4bvGqCom/mSFhbfLMyB00a4nV2O5ZfXThzjSH/zPh7ZYrP/zrzt14yP36NFzL9wnEAPCm3Xthb8M7mjYZvk5puIA8Nb7lYLCBJZc21WmKkhuDJMtXWosTG6cVv/2lLBIHxsufViSnnOzhBPPy2SgYHjw/CaWI/el7VEdselvVShIVdf799uZYChEssq38i583QrOzj323l//73/8r//+4YotF2Ld+TR/qqxff7UHVfoxbvvuv/7ypIHhg7E4cusmkNv9xuFKZI+zS6oyyQ8ZqHTRrs+O5PVWltx/eqhvrn7y65F47tg16/e+MAE5cpdMQW5x6T8WuXHn8rOPVIW/wsI31sclBYkPaPVvDxdTBrZf+qBzrm1uOlMOky8uiUJe9+oRuenblSpb9MKSGpNcF5O7bh/KuPcQyXZ8mJv9AdeRTIzp3S0XessG9KroeKhs3dNoXuPJfYjcJrmJGL11l1KZbPJ8cp/KhKFAAO3fHt6B/B7G5pKsoTNO7+6vd+XiVbLk3vtfv/76h7ff7CACOVdN59aHL95xGNBOSe7+l1Dz+RVEUXLTiuvL70SDhb4J4ullq0xOujC5bX9dFS1ieiRWLelLzrFDFQd06SCeqVuD6LDlohmRG7/fTagCJovJGDWhaLy4LhOfisj9ft7KY/ywjv9UF9XZbNGojRgfPus25AVpA98qRG55XKfSaaMxIppz200kN+Z9snpAHo1y0bWqyeT+uEGYI+3pQ3xSxNUlt0eGXERUbhw/duf1O7Mjt7g4uVf6BP9Q5JZKwx+uuqiTFPpOQituXlUVDkkJ4uTvjpqKkfv2ze7QnIu8VFw4586M3Mg02dLLIOs7srhflT855PMUeHaf/zyRK25DrTBlGTi+IUEQNpPJVrK4JO84datud5uMWUfhBM7Gun9/LWNtQAD0X53cYSq4XVTV/VGVN1fkZdeBYrkKqs63jr04uSHUbhWrC38X3twwUiKY6R5/AoDYkq8qW6Q0jkmCNF+Zh5YGJUEaw3HZk8sd/PA8ebHGSoeXnbQUDknB4MDfHpuLHC62Ys3w3JNbXj1mlOYSeW/16hG5tVvrbJPIrcrSbeAjy3hxQ9h8lSBU/HiNSmdmaWhTEaq+xUN5XSc+ubxHxW82CaZo1++vjUePwZq3VgzLi5K72ju+PgivjRUld82751+84xC5fUXInXzUUF33c7S5IXbmmx0VUq5qnTTIs5sr/4dLgpEPb1+MOtEnqMIUngcYjOy+bSw4qNM4rPrnN/VFDqc9efPu3D8A6w407agYTweDFzaL0B92qS9WmNyq6I4PxeMjN9Zx1RRVEaaMsw5lgpl4wup0oyvu5KpIYeKTi5oJnS1KPMNuua3nV6cD2dJo9PZFi7rjuVspB52KaP5ko2Y8BgU7dK1oilvN5ztmQ+7AsmLklm1uONjZ+LMLeeXI/asBN8pMR4nAfEFIbsaIARB489LFGJ1Vo5hYgm7w6RqLpKA9jgdv/vNnZJGjae+tmntyY3VVB+56x8mNbdxsRn+H3uvRFyG3quPDnlxZ2uobA+V1jIUvaswDlRX2ClWuOyeq8khQt2r3ua5ykdz2zMitEnZ+djojsgeBdG/1kWZjMXI/2ascv7HwA5eLZt6PftIzi+sMA8uoIuSmBxpaa9w/w8gpiN38fmXcXiFwhK1o0QPHoTTtMAjlLnHz6bc3rHhYgkoRoMHLkododOijo/EiLvD0u3/5lbjI4QLLDw2HZq+i9xyIDzTdzU3SJGP7jYg8d75qur980YPLXHH3lStXtra2to5dW33k5P1dV9d/vX/c10wfPHzmxKpFp3dd3VW/8eGWHXdH68p3DNw613bowaKbX90fJzcN+nf+8ldffbr1zJrFq04uWj124GD9ppFt9SsPju06e3XJv51SZUtEB8e2LDtXTrEuvZ6sGy3vurul4+K5jdu2bdt2fP+Vh5/dUY7vEzu1dO22jfX1K+v3XywrKytDpdmGd1QO3D128fjq3y8KzKwf8q8z0C1jBot8GV95rtMwwx2++sBAsPkX/+Obp0uv3zyz79LJq4sWLVq0fNX6JZ9/9ut//du/ff+X3/3yd3/+xb/89c9fvP39H7749V///Lvf/e53v/zd3//6/ff/+d9PRclUONSuUZlLyocHtmzu3Vz26NaxLVsqH372p+8ulld27F/Z1FbV0HAgi7FTl3et+ezMUONcS89NIrd11/44Z518vmbZiX2XbiMlgxUrVqw4fPjwalTr7f66VcvWlYnGyR20CywDjw6ePnxz99GbR9etOrPq3qpL9++tuveg+sLFvQ/zRjjf1psPWxvaxnYdvnTixjuP33vv3Y/eeP/zDz998/O3Vp394UAsuyle2vX9x+8+fbzzw/c+/fTTNz9//42dn77/yRtvvPHGe++9//6GLmXughx8emTVpUuLb95cf2b9icWoCN2qVavu3UMX5vKyHf7p9kEBmIqSG/PbKJ/6Z5j9LtGv2PDx609e+/bLL3/45ptvfvjhh9def/LJJ5989MbOTz/57//457/89u9/+PO//OLXv/3zX//419/+8u+//fVvvvjyh69e//jXv396dN2+E2dubl22devW9WvWrTlx9OjSp+++df3z3/zi19/sfGvn0w1Ldi9ZtnV9BifW3T559sC58/HIS2j2VJhMbufV/XJE7oAyyBlcfOnarNoShksxQPvziyZgAKNxlPSAS7ka3KhQN4RS9AtcSucdx928uaakp6d7mNPLGa6s7KocuHv3ylDzaF/38FsPiIxDHwKg3bKlsrtrx1Dl3T3Hjm3fsmdgqLunu7u7u/fCqVN94rxRM/po78M9Na5orTvpDGJcqV3aH2lUak1m8ejgNHugIPTX2YrC32BI2vtn6C2BAFqbly69d+8kGraPIGmW00gbZte1Qw3Vl6++/9v3ln5w48bRM2tuL19x9sGD09cOtI01tLVWb2o7+e66TccfdWzm6oNt2bJnz5W7A5WVw0N7Lq48sHJTLyOiSmrKa8p7uoczQPJHO843l8Tneuoymdz++xdMvFuQr8U8efvizcnJmmWyjSeUsMcAZhWqBKWlje2GWm3U5Cop7xuqvLLn7p7ejmMdt8oumrLbAVziLN92/NyF/fv3X7zz6NGdi7fK7jx8ePHixYuPOnr31OQFbU1qTbaa0fieXhzkdbKi2HfBdPpnGM0NIGaVXzw/UDk0dHdHM5IRGvWxenNcrop67e32K60dW67sqOxGxR37+utGOzs7++vEFOsy++oe1alLSwWeUEtpKCLwRJKRpCydDiuswaBDJ2JKGJHZwhUNy86HUNUxm9drH5zrKAYMlDQ0DHAljLkjRdavjE445Qlh+VwASlasMZM6AzO15bOCe7nZ9HjwM/8WTwp4xvHyErSUpoMSZzjUIqhoT9iygmrofoIGVITRJI/L40ZjXI4c51yvmCwidjx9EcPzqtpPqAaPo5IB052rjBfZz+0BAqzzRpHsd4wb4+b2mryKaCktRfqGoZRfKg1K+af5RMHGguDkLxBdfqT0Dqq1bViIZ8ktOLqW008vfAXR+eD4uNzCFA0u8FWeYgqcfAAMSkG2rzAcYqiiCwLSGpEg5RFOs8aqUIQluJRbSwhKrOgVV8COUy6Rcr/AcAzjlDKDNJ6vcZnfsKlUWjJfdd9ki5oeEP6cUxaeD65PIQQFhZ+eZXduJPwR2ipqOF5XS2fJ3fJBld7hcDiSDiSNFAq53W6kXofQbkgoOYUwYUZtiSv0x5U9Q0Ut4xZURdjlcjEMy7JI7q9/lCoZHR0tL+/j6+r39XV1De3YMYRs7S2b727ffv7uwJbt27dv6d1+bMuxLb23ELZv77hV1nHrFvqvrKzswoX9D/fv339h/36kfHlu7976+gv19fUbN26sP75x5caNa1du27hx28qV9fyHyKuycuXKbdvq127beO7c3r17917gcPHOnUePyso6kFIAKiyLdC6zgn5IknB0tKams7O/n2VZ1mwh6o+6ipAbqy33/gy93DMDnPBIngp5P5l/ckPgMXWZleMjd3Lpa9eRh+T+vfv30d+TJ0+evM3j/r17qCz+OqRbemnfvn371q1bt+7MiTPrz5w5g6bK15csWbJk6dKlS99555133n333Xcfv3djw+eff/7++29w+OSz7z775ovXX//iN2///ve/+fW3X3z/my+/+dV3H3/08Vevv/7kjfff4/DBB58uu75z6VtIhmL9+vVnzhw9sS5zrHsnl1+9f/veVeS9uXrk8IMHhx88eLDr8uXLu06fRrKUhw4hP1NDQ0NVW1tTQxvyXra2jaOKc0ahV2jLy7t2nT794MFq5FlB54n8LEjrEkmvLrux/ulVURFyh/ccqJ/VXPXnhGlT+8cauYE0rm8ZP7CictfltWvXrj2+9/i5c3vP7X348OFDNOSVlXXc2nxs+/Yt589fuXvlyt2BAX7kQ6NeDyoi3zfa2V9XV+fLgGUYl0uvF2Ud/ygcm0BFT2IxG68mqakVejlhS2+tUKMJCJF8Jf8WSV7yqpToBa9pKcwqUKJPeClKoTCA3mgzEI6D/61GiCT7NBw48b5nYOcEK/m/2dcItXalsd9YxE8V7m1oEEv+kc2SnxZCHmve40PZz8meanmR01gG6BXSf7Shl7wyKnrPBZNw+qWq7AJ8DiZOzZRXlDQajWYz0p3k/7OYRajutpFXobTI0dyRGJefRP+a+J2hFEv+sJkjxmI2XpRVOCW5AwFhnoBrtvE5EJlJavYvp4LJHd5kMprjFpEoXLizUh0NVZvdP0M/988VecU2MejRotGrvUKt5vRVDQYDLx5dUTHobnS73e4Wj0AgEJQiFdbSUn4S7fF4QshCz0qYJpPhsEwmk6VSWTFThUIRDisU/sz80OlXOP1OSWai6AwGJUEJzcfs8BNEq9Mq4d/gWCaYh58yosk6F4OGYRidlcXMF5LjKvdz3h/+s9ysPR/Zb7LSc/x0VMLBGbZKFaEio3PoYkPD5tjPcPn9Z4hnrmCecw3LV4SFE7fnnUG5n+F4Zg2mgC8i836iGCTvMMm6xgFXAf9Zxx6EU0VFTm0cjM/WC4iGZmb8/PfZrfP2ixWdM5ZeaGh7pPo5iuL8/ABhqrlfUZgmU/omn6HLTI45/cnFbP2jxRx/L7xf9/GGpjvELMojL2D+gIk2jRSZ/S+QuwDcxxtaL5p+fkKUP0vgo21VlsLXaoHcBeA+3lC1P/6zVH//+cHafWhTubLw7H8a5M5bs574t9ivfgbkbtg7D1XuFvASQHeNHexLTJgwTrzwGA1wDEgzkUiZpdTxb3Mzvyzbp1i+y+2YfuaLAvdFLiZhgnYKCmeZmSuuEJH5AJm8OSy/TPzshhidvw8Y3tJWtd8Sft4hF/AqQDI01tacyEnM49i4dyO3UY7Sk8ld6PXU0RtcZGEm5uqZjeBkvwXv0Jj4wTM7fM7TYmqnEO8YmXS/wgL3Lw8s2fxoh0sGFvATgOLKWFOzV4pnouhQyClC3iVF3jiYP0TnMaEQOXP5mJMOhedzdAJlszdEgbfPuhUzAVwTtsenMj/ygnzyj5rJB5y0KSzapGxUu9pFWtI/9mVbwHQg2zLW8OhuXQ/bzrm3FF6RBan6Gi0artwjnhSaTUKDwes18PJekhZNIrOWbeVGYetgezu3xDOY5vYQTLkzCGfWQdCaD9qiUcY/DBSeikH0fUWSf+LjVhknfB+SWWnO6gimUeyWQ5D0BzlC4X5ZKgPuPeYMOzLI7CGdfW/NGDyyDBQSlPIKIbeihODnN6CdKQ+/2iTB8t/zbQDjbUim0nzZy8wxBamIQxBoX/Bz/xQAFcdaD7Q2tbY1bEZaGFDV1NSEAo4axkYIVJvHWdna2tTU1HawqWo7Z2gaLlS1VVW1tTZVj1g4Wzg+MrJ243EUkbeFe1gLrpw7d7y+/vjx4w91GICYVPto7/FtKGrv3JAAYBD4R/durD937ty5+t4Ax37lsc1lHR0dHY8e3U1iOAR0zWb0tqO345EcR88J5Xb0tqzsVu+xUgxiQELd6sjAzO2hfTsX/dLR0bEdCSJgEmZzGRcQU3aLlEBIY4N3ex9x25cNDCKziDZ1POIPcgvVbIVYZLiDC0osK7ulQ8HguG4z933ZnWNdMrTYKWvm9rd5c++WuPUfOuT1J4TUrYbqptamhqoREwrE165tbTt48ODBhoNVt8IYAJLhKo7cDdVjbUYM4EC9qaqptbXpYFNbw50UhkHcx1Ed3RBNFmTBJFYeOFhdxd0gj1CReinb0Iruh6qqhqoSRIrIuYamBi5Qr+EC9zQQNzRVcd+PNXUizfvQoyo+oq+poQxVCMH7+d9XNYwdGkUWcqqstSqD/Y0o/Jtp4+P/qqrGhpH2gX/LgarWqoaGhoax47WIiaaDKFSQ22TICgCUnG84wLWh9cBaLboF7Zva0OYNVQ1je8IQAGtPG3fMtrGGajMSA62tHkPvDxxoaL3gWSD3TwPJPQeqEFWrt9U40FVvHjmIiDUyUv2oFrm/tfVNBw8eROzd1pdCFkLXJjRyVze1Vu21BVGg1bmDB5vQDdBUfTeEQUxSjh4EKOC0ahshxQDUnGut4sjfdrAyhANg3VHdugltf7CpOoosmcTKg218eOrBY0iQRNrVhr5uajtYtZJAhzA85D9orWo4FsIAkJbz7EftFKFGDl7gni9NBw8eKCulMSCtO9ja1opu0ramEgnAgKCMj4BtPdB6B2X3So1rm7h9NFVVd4YBwNLHmjJovYPitXFd/cHq6upNm6qrN42mpABL14ygSgCtbU3VZQHrQuDUTwI4dXz7qK+8pK/fFcABxFLkaE1NTc1ofx3FJAEGrcqazs7O0Zrymjoxl42WdnV3dXVXDg13deoFEAKJsrlrx9CO4eHhHoYrPpL2dd0d4jJB6/SlKAFHM7SDe1/Z3Y9kEfBU3Z5jKGHgypZmLt8FC+y5i5IIevcMjJrQHhydWzgc275D3IL2YLt77Nix3t7te86P2qw4hqXF2zO4S6FKhyCAyjqgn+zpV/khAIqSge2V3D6GyHY08KqH96BDnj82UEM4MQCsqqEuLlWhu6bEixLWQnVdCAND3T6XAxlktT3l5eXlo/0lJUwAuVT8Iq5fymv6KddCQPdPAhBIY4yeESGUYihkSGBxIehZxoSGcuCPmc1mkchs1psNEgAgLUAZN3q9SKQXJTmHQtTlc+m5LJwY51EolYvYzCZu9J4OmFlunyI9wR2zUc8guPSMGUWSY0EbyR3SpXeZZMg3U5pJ6CFJsh1xVyJkOTCsy8jN5ZIWkhSh37BmXndHw4i4fRhdKm5qENG7zPx5uOxcAmeCodAxLXqGCGMAw8NGPfc943JpkJFBt3D7QzB7kLNeoeXbLNIbNWiPuIeIixiLSGR26ea6JsECXgogAOGoKiwLh8PhILdagkU4N0PYkXLinI9NwXkaZDKHg1uXg7QiFUIRr6WDMr7GoCIiiKCoV4GAdyLQkZZS5CEReDx80Up/aQsXFhsJZTwPSRRJa1C3GwaRAUwD/yD33qA2hPm1lVK7nftEXcGJAkGrmkO7uiLJryUJ2hNq5IFRt/CLhU53RYLbqd3B+a2x0kFuD4b2CivXBklpLXpboVZHrMixiaVKuTYJPB4Z50vEQnyTPR7O6wOhgnOXoHMPcss9uCLsiMiSDkcqvBA39dMAGlnH62CiJZzsZAnjE9sneaNzrmYI8ewbWMBlzTuF8Wxw6yTksQNiNAR8YCrGrURiBdJ44aQmoJXQjN3Lr4hi9MRN0V2K5bcBw7KOa365E8vGxGbqDvIrogVy4XPFKvjjwueuGi3gFQLEYXbpOe/KQSDFUFX6QjUS+FW9cRaOLyXy3+K5z7Pk5uOq8wJQxj+HE1d3sguj+fSCzyzXY3h2LTS7CRxvQYEFzLyFp2dWHuGk7TLtx7GJjYD87c4Jw//Y12sBC1jAAhawgAUsYAELWMACFrCABSxgAQtYwAIWsIAFLGABC1jAAhawgAUs4AXw/wcsNKlAg5Wb7QAAAABJRU5ErkJggg==;" parent="1" vertex="1">
          <mxGeometry x="1060" y="420" width="732" height="507" as="geometry" />
        </mxCell>
        <mxCell id="YJcozvg0irMk7yflcaDP-30" value="" style="curved=1;endArrow=classic;html=1;rounded=0;exitX=0.587;exitY=0.316;exitDx=0;exitDy=0;exitPerimeter=0;strokeColor=light-dark(#ff0000, #ededed);strokeWidth=2;sketch=1;curveFitting=1;jiggle=2;" parent="1" edge="1">
          <mxGeometry width="50" height="50" relative="1" as="geometry">
            <mxPoint x="1489.684" y="580.212" as="sourcePoint" />
            <mxPoint x="1230" y="580" as="targetPoint" />
            <Array as="points">
              <mxPoint x="1470" y="550" />
              <mxPoint x="1440" y="540" />
              <mxPoint x="1220" y="540" />
            </Array>
          </mxGeometry>
        </mxCell>
        <mxCell id="YJcozvg0irMk7yflcaDP-31" value="" style="endArrow=classic;html=1;rounded=0;strokeColor=light-dark(#ff0000, #ededed);strokeWidth=2;sketch=1;curveFitting=1;jiggle=2;entryX=0.5;entryY=0;entryDx=0;entryDy=0;curved=1;" parent="1" target="YJcozvg0irMk7yflcaDP-33" edge="1">
          <mxGeometry width="50" height="50" relative="1" as="geometry">
            <mxPoint x="1240" y="610" as="sourcePoint" />
            <mxPoint x="1240.072" y="870.2159999999997" as="targetPoint" />
            <Array as="points">
              <mxPoint x="1230" y="680" />
              <mxPoint x="1270" y="740" />
              <mxPoint x="1300" y="740" />
              <mxPoint x="1315" y="800" />
            </Array>
          </mxGeometry>
        </mxCell>
        <mxCell id="YJcozvg0irMk7yflcaDP-32" value="&lt;font face=&quot;Comic Sans MS&quot; style=&quot;font-size: 16px;&quot;&gt;B&lt;/font&gt;" style="rounded=1;whiteSpace=wrap;html=1;sketch=1;curveFitting=1;jiggle=2;strokeColor=none;fillColor=#CC0000;glass=0;shadow=1;fillStyle=solid;fontColor=light-dark(#ffffff, #ededed);" parent="1" vertex="1">
          <mxGeometry x="1220" y="580" width="30" height="30" as="geometry" />
        </mxCell>
        <mxCell id="YJcozvg0irMk7yflcaDP-33" value="&lt;font face=&quot;Comic Sans MS&quot; style=&quot;font-size: 16px;&quot;&gt;B&#39;&lt;/font&gt;" style="rounded=1;whiteSpace=wrap;html=1;sketch=1;curveFitting=1;jiggle=2;strokeColor=none;fillColor=#CC0000;glass=0;shadow=1;fillStyle=solid;fontColor=light-dark(#ffffff, #ededed);" parent="1" vertex="1">
          <mxGeometry x="1300" y="860" width="30" height="30" as="geometry" />
        </mxCell>
        <mxCell id="YJcozvg0irMk7yflcaDP-34" value="&lt;font face=&quot;Comic Sans MS&quot; style=&quot;font-size: 16px;&quot;&gt;F&#39;&lt;/font&gt;" style="rounded=1;whiteSpace=wrap;html=1;sketch=1;curveFitting=1;jiggle=2;strokeColor=none;fillColor=#000099;glass=0;shadow=1;fillStyle=solid;fontColor=light-dark(#ffffff, #ededed);" parent="1" vertex="1">
          <mxGeometry x="1260" y="860" width="30" height="30" as="geometry" />
        </mxCell>
        <mxCell id="YJcozvg0irMk7yflcaDP-35" value="&lt;font face=&quot;Comic Sans MS&quot; style=&quot;font-size: 16px;&quot;&gt;C&#39;&lt;/font&gt;" style="rounded=1;whiteSpace=wrap;html=1;sketch=1;curveFitting=1;jiggle=2;strokeColor=none;fillColor=#000099;glass=0;shadow=1;fillStyle=solid;fontColor=light-dark(#ffffff, #ededed);" parent="1" vertex="1">
          <mxGeometry x="1220" y="860" width="30" height="30" as="geometry" />
        </mxCell>
        <mxCell id="YJcozvg0irMk7yflcaDP-36" value="&lt;font face=&quot;Comic Sans MS&quot; style=&quot;font-size: 16px;&quot;&gt;C&lt;/font&gt;" style="rounded=1;whiteSpace=wrap;html=1;sketch=1;curveFitting=1;jiggle=2;strokeColor=none;fillColor=#000099;glass=0;shadow=1;fillStyle=solid;fontColor=light-dark(#ffffff, #ededed);" parent="1" vertex="1">
          <mxGeometry x="1260" y="580" width="30" height="30" as="geometry" />
        </mxCell>
        <mxCell id="YJcozvg0irMk7yflcaDP-37" value="&lt;font face=&quot;Comic Sans MS&quot; style=&quot;font-size: 16px;&quot;&gt;F&lt;/font&gt;" style="rounded=1;whiteSpace=wrap;html=1;sketch=1;curveFitting=1;jiggle=2;strokeColor=none;fillColor=#000099;glass=0;shadow=1;fillStyle=solid;fontColor=light-dark(#ffffff, #ededed);" parent="1" vertex="1">
          <mxGeometry x="1470" y="720" width="30" height="30" as="geometry" />
        </mxCell>
        <mxCell id="YJcozvg0irMk7yflcaDP-38" value="" style="endArrow=classic;html=1;rounded=0;strokeColor=light-dark(#000099,#EDEDED);strokeWidth=2;sketch=1;curveFitting=1;jiggle=2;entryX=0.5;entryY=0;entryDx=0;entryDy=0;exitX=0;exitY=1;exitDx=0;exitDy=0;curved=1;" parent="1" source="YJcozvg0irMk7yflcaDP-36" target="YJcozvg0irMk7yflcaDP-35" edge="1">
          <mxGeometry width="50" height="50" relative="1" as="geometry">
            <mxPoint x="1250" y="620" as="sourcePoint" />
            <mxPoint x="1325" y="870" as="targetPoint" />
            <Array as="points">
              <mxPoint x="1250" y="650" />
              <mxPoint x="1230" y="680" />
            </Array>
          </mxGeometry>
        </mxCell>
        <mxCell id="YJcozvg0irMk7yflcaDP-39" value="" style="endArrow=classic;html=1;rounded=0;strokeColor=light-dark(#000099,#EDEDED);strokeWidth=2;sketch=1;curveFitting=1;jiggle=2;entryX=0.5;entryY=0;entryDx=0;entryDy=0;exitX=0;exitY=0.5;exitDx=0;exitDy=0;curved=1;" parent="1" source="YJcozvg0irMk7yflcaDP-37" target="YJcozvg0irMk7yflcaDP-34" edge="1">
          <mxGeometry width="50" height="50" relative="1" as="geometry">
            <mxPoint x="1270" y="620" as="sourcePoint" />
            <mxPoint x="1245" y="870" as="targetPoint" />
            <Array as="points">
              <mxPoint x="1350" y="740" />
              <mxPoint x="1280" y="800" />
            </Array>
          </mxGeometry>
        </mxCell>
        <mxCell id="YJcozvg0irMk7yflcaDP-41" value="&lt;font face=&quot;Comic Sans MS&quot;&gt;&lt;span style=&quot;font-size: 16px;&quot;&gt;E&lt;/span&gt;&lt;/font&gt;" style="rounded=1;whiteSpace=wrap;html=1;sketch=1;curveFitting=1;jiggle=2;strokeColor=none;fillColor=#006633;glass=0;shadow=1;fillStyle=solid;fontColor=light-dark(#ffffff, #ededed);" parent="1" vertex="1">
          <mxGeometry x="1130" y="720" width="30" height="30" as="geometry" />
        </mxCell>
        <mxCell id="YJcozvg0irMk7yflcaDP-42" value="&lt;font face=&quot;Comic Sans MS&quot; style=&quot;font-size: 16px;&quot;&gt;A&lt;/font&gt;" style="rounded=1;whiteSpace=wrap;html=1;sketch=1;curveFitting=1;jiggle=2;strokeColor=none;fillColor=#006633;glass=0;shadow=1;fillStyle=solid;fontColor=light-dark(#ffffff, #ededed);" parent="1" vertex="1">
          <mxGeometry x="1130" y="580" width="30" height="30" as="geometry" />
        </mxCell>
      </root>
    </mxGraphModel>
  </diagram>
</mxfile>
